<svg width="16" height="16" viewBox="0 0 16 16" xmlns="http://www.w3.org/2000/svg">
<path d="M8.9178 15.0447V15.5153H0.588379V15.0447H1.42603V13.9435C1.42603 13.8141 1.53191 13.7082 1.66132 13.7082H7.84486C7.97427 13.7082 8.08015 13.8141 8.08015 13.9435V15.0447H8.9178ZM7.30367 13.2377H2.20485C2.27074 12.7482 2.69191 12.3718 3.1978 12.3718H6.31073C6.81661 12.3718 7.23779 12.7482 7.30367 13.2377ZM10.8166 5.22118L7.85897 7.82118C7.81896 7.75529 7.77191 7.69412 7.72014 7.6353L5.31309 4.89647C5.26132 4.84 5.2072 4.78588 5.14838 4.74117L8.10367 2.14117C8.14367 2.20706 8.19073 2.26823 8.2425 2.32705L10.6472 5.06118C10.699 5.12 10.7554 5.17412 10.8166 5.22118ZM15.0284 12.9906C14.5605 13.4053 13.8411 13.3635 13.4237 12.8871L9.54838 8.48235C9.46367 8.38353 9.47309 8.2353 9.56955 8.15058L9.76014 7.98353L9.1625 7.30353L10.1366 6.44705L10.7343 7.12706L10.9225 6.96235C11.019 6.87764 11.1672 6.88471 11.2543 6.98353L15.1319 11.3882C15.5413 11.8612 15.4966 12.5788 15.0284 12.9906ZM12.3037 4.83529C11.9186 5.17224 11.3403 5.13613 11.0001 4.75059L8.59545 2.01647C8.26143 1.6395 8.29101 1.05312 8.67779 0.715288C9.07293 0.369528 9.65246 0.425324 9.97662 0.797637L12.386 3.53411C12.7178 3.91528 12.6801 4.49882 12.3037 4.83529ZM7.28485 9.2447C6.89781 9.58813 6.3124 9.53724 5.98603 9.16235L3.57897 6.42588C3.26126 6.06672 3.26172 5.48088 3.66368 5.1247C4.05028 4.78711 4.63 4.83227 4.96015 5.20706L7.3672 7.94587C7.7102 8.33362 7.66113 8.91605 7.28485 9.2447Z" />
<path d="M4.97297 10.0887H4.50238V11.4969H4.97297V10.0887Z" />
<path d="M6.96713 10.4289L6.56818 10.1789L5.82034 11.3721L6.21929 11.6222L6.96713 10.4289Z" />
<path d="M3.65494 11.372L2.90698 10.1788L2.50806 10.4289L3.25602 11.6221L3.65494 11.372Z" />
</svg>
