<svg width="16" height="13" viewBox="0 0 16 13" xmlns="http://www.w3.org/2000/svg">
<g clip-path="url(#clip0_559_42895)">
<path d="M16 6V6.8C16 7.02188 15.8219 7.1775 15.6 7.1775H12.495L11.1168 9.9325C10.9699 10.2292 10.651 10.4013 10.323 10.373C9.99175 10.3386 9.71675 10.1075 9.62925 9.7855L8.095 4.1825L6.38 12.17C6.305 12.525 5.995 12.7875 5.6275 12.8H5.6C5.24375 12.8 4.928 12.5625 4.83125 12.2188L3.3975 7.2H0.4C0.178125 7.2 0 7.02187 0 6.8225V6C0 5.77812 0.178125 5.6225 0.4 5.6225H4C4.35625 5.6225 4.672 5.86007 4.76875 6.20375L5.4875 8.72125L7.22 0.63175C7.295 0.2725 7.6105 0.00999971 7.97925 0.000499706C8.348 -0.0120003 8.67625 0.234875 8.773 0.591L10.623 7.3685L11.2855 6.066C11.42 5.7725 11.6975 5.6 12 5.6H15.6C15.8225 5.6 16 5.7775 16 6Z" />
</g>
<defs>
<clipPath id="clip0_559_42895">
<rect width="16" height="12.8" />
</clipPath>
</defs>
</svg>
