<svg width="12" height="16" viewBox="0 0 12 16" xmlns="http://www.w3.org/2000/svg">
<path d="M11.7063 7.70625C11.5125 7.90313 11.2563 8 11 8C10.7438 8 10.4882 7.90235 10.2932 7.70703L7.00003 4.41563V14C7.00003 14.5528 6.55221 14.9719 6.02815 14.9719C5.50409 14.9719 5.00003 14.5531 5.00003 14V4.41563L1.70721 7.70625C1.31659 8.09688 0.683777 8.09688 0.293152 7.70625C-0.0974731 7.31563 -0.0974731 6.68282 0.293152 6.29219L5.29315 1.29219C5.68378 0.901566 6.31659 0.901566 6.70721 1.29219L11.7072 6.29219C12.0969 6.68438 12.0969 7.31563 11.7063 7.70625Z" />
</svg>
