<svg width="12" height="16" viewBox="0 0 12 16"  xmlns="http://www.w3.org/2000/svg">
<g clip-path="url(#clip0_580_43313)">
<path d="M11.7063 9.70625L6.70628 14.7062C6.51253 14.9031 6.25628 15 6.00003 15C5.74378 15 5.48815 14.9023 5.29315 14.707L0.293152 9.70703C-0.0974731 9.3164 -0.0974731 8.68359 0.293152 8.29297C0.683777 7.90234 1.31659 7.90234 1.70721 8.29297L5.00003 11.5875V2C5.00003 1.44718 5.44784 1.02812 5.9719 1.02812C6.49596 1.02812 7.00003 1.44718 7.00003 2V11.5875L10.2938 8.29375C10.6844 7.90312 11.3172 7.90312 11.7078 8.29375C12.0985 8.68437 12.0969 9.31562 11.7063 9.70625Z" />
</g>
<defs>
<clipPath id="clip0_580_43313">
<rect width="12" height="16" />
</clipPath>
</defs>
</svg>
