<svg width="16" height="16" viewBox="0 0 16 16" xmlns="http://www.w3.org/2000/svg">
<path d="M8.45905 10.1632L6.53413 8.307L12.6759 2.38438C13.2082 1.87187 14.0685 1.87187 14.6008 2.38438C15.1331 2.89695 15.1331 3.72804 14.6008 4.24062L8.45905 10.1632ZM5.98242 8.83902L5.98485 8.83668L7.90977 10.6929L7.90734 10.6742C7.9681 10.9109 7.9997 11.1195 7.9997 11.3749C7.9997 12.8257 6.78204 13.9999 5.27759 13.9999H1.77774C1.34828 13.9999 1 13.6648 1 13.2499C1 12.8351 1.34828 12.4999 1.77774 12.4999H1.89465C2.32314 12.4999 2.61382 12.057 2.56983 11.6468C2.56035 11.5578 2.55549 11.4663 2.55549 11.3749C2.55549 9.92417 3.77314 8.74996 5.27759 8.74996C5.52064 8.74996 5.75882 8.78043 5.98242 8.83902ZM5.72479 8.02809C5.57897 8.00934 5.42828 7.99997 5.27759 7.99997C5.25815 7.99997 5.23627 7.99997 5.21683 7.99997L2.23345 5.1242C1.62584 4.53827 1.62584 3.58765 2.23345 3.00195L2.80291 2.45282C3.41028 1.86693 4.39534 1.86693 5.00295 2.45282L8.25489 5.58826L5.72479 8.02809ZM8.77744 11.3749C8.77744 11.2296 8.76772 11.0843 8.74827 10.9437L11.2784 8.50387L13.1158 10.2781C13.2811 10.4351 13.4002 10.6296 13.4633 10.8453L14.1852 13.2827C14.2435 13.4796 14.1876 13.6906 14.0369 13.8148C13.8862 13.9788 13.6675 14.0351 13.4633 13.9788L10.9357 13.2827C10.7145 13.2195 10.5104 13.1046 10.3475 12.9476L8.75557 11.4335C8.75557 11.4148 8.77744 11.3937 8.77744 11.3749Z" />
</svg>
