<svg width="16" height="16" viewBox="0 0 16 16" xmlns="http://www.w3.org/2000/svg">
<mask id="path-1-outside-1_1570_78105" maskUnits="userSpaceOnUse" x="0.781677" y="0.328247" width="14" height="15">
<rect x="0.781677" y="0.328247" width="14" height="15"/>
<path d="M12.0625 14.6717H12.061L11.1085 14.6677C11.0164 14.6673 10.9276 14.6331 10.859 14.5715C10.6821 14.416 10.5457 14.2199 10.4613 14L10.3958 13.962C10.1627 13.9969 9.92456 13.9746 9.70201 13.897C9.6148 13.8677 9.54141 13.8074 9.49576 13.7275L9.02326 12.9002C8.97766 12.8205 8.96289 12.7269 8.98176 12.637C9.02773 12.4058 9.12932 12.1892 9.27776 12.006L9.27801 11.931C9.13116 11.7466 9.03146 11.5291 8.98751 11.2975C8.96931 11.2074 8.98479 11.1137 9.03101 11.0342L9.51101 10.2112C9.55731 10.1319 9.63115 10.0723 9.71851 10.0437C9.94185 9.9683 10.1801 9.94806 10.413 9.98475L10.4783 9.94725C10.5644 9.72797 10.7027 9.533 10.8813 9.37925C10.9498 9.31867 11.0381 9.28524 11.1295 9.28525H11.131L12.0838 9.28925C12.1757 9.28957 12.2643 9.32364 12.3328 9.385C12.51 9.54038 12.6467 9.73663 12.731 9.95675L12.796 9.995C13.0292 9.95991 13.2674 9.98222 13.49 10.06C13.5771 10.0894 13.6504 10.1497 13.696 10.2295L14.1688 11.0565C14.2144 11.1364 14.2292 11.2302 14.2103 11.3202C14.1641 11.5512 14.0624 11.7675 13.914 11.9505V12.0262C14.0606 12.2107 14.1603 12.4279 14.2045 12.6592C14.2228 12.7494 14.2074 12.8432 14.161 12.9227L13.681 13.7457C13.6346 13.8252 13.5605 13.8848 13.473 13.9132C13.2499 13.9884 13.0119 14.0086 12.7793 13.972L12.7138 14.0095C12.6275 14.2289 12.4891 14.4239 12.3105 14.5777C12.2421 14.6383 12.1539 14.6717 12.0625 14.6717ZM11.2708 13.9185L11.9048 13.921C11.936 13.8848 11.964 13.8459 11.9885 13.8047C11.9836 13.7344 11.9987 13.664 12.0319 13.6018C12.0652 13.5396 12.1153 13.488 12.1765 13.453L12.5718 13.2267C12.6331 13.1916 12.7031 13.1746 12.7738 13.1775C12.8444 13.1804 12.9128 13.2032 12.971 13.2432C13.0188 13.244 13.0666 13.2397 13.1135 13.2302L13.4328 12.6827C13.4168 12.6375 13.3971 12.5937 13.3738 12.5517C13.3103 12.5208 13.2568 12.4726 13.2195 12.4126C13.1822 12.3526 13.1627 12.2834 13.163 12.2127L13.165 11.7572C13.1653 11.6867 13.1855 11.6176 13.2233 11.558C13.2611 11.4983 13.315 11.4506 13.3788 11.4202C13.4023 11.3787 13.4224 11.3352 13.4388 11.2902L13.1238 10.7397C13.0767 10.7314 13.029 10.7266 12.9813 10.7252C12.9228 10.7647 12.8543 10.7869 12.7838 10.7892C12.7133 10.7916 12.6435 10.774 12.5825 10.7385L12.189 10.509C12.128 10.4734 12.0783 10.4214 12.0455 10.3588C12.0128 10.2962 11.9984 10.2256 12.004 10.1552C11.9799 10.114 11.9523 10.0748 11.9215 10.0382L11.2875 10.0357C11.2563 10.0719 11.2283 10.1108 11.2038 10.1517C11.2088 10.2222 11.1938 10.2927 11.1605 10.3551C11.1273 10.4174 11.0771 10.4691 11.0158 10.5042L10.62 10.7302C10.5587 10.7652 10.4887 10.7821 10.4182 10.7791C10.3477 10.7761 10.2794 10.7533 10.2213 10.7132C10.1735 10.7149 10.1259 10.7194 10.0788 10.7267L9.75951 11.2742C9.77535 11.3195 9.79501 11.3633 9.81826 11.4052C9.88177 11.4361 9.93527 11.4843 9.9726 11.5442C10.0099 11.6041 10.0296 11.6734 10.0293 11.744L10.0273 12.1995C10.0269 12.2701 10.0067 12.3391 9.96887 12.3986C9.93106 12.4582 9.87721 12.5059 9.81351 12.5362C9.78983 12.578 9.76976 12.6216 9.75351 12.6667L10.068 13.2167C10.1149 13.2261 10.1627 13.231 10.2105 13.2315C10.269 13.192 10.3375 13.1698 10.4081 13.1675C10.4787 13.1652 10.5485 13.1827 10.6095 13.2182L11.003 13.4477C11.064 13.4833 11.1138 13.5354 11.1465 13.598C11.1792 13.6605 11.1936 13.7311 11.188 13.8015C11.2121 13.8428 11.2399 13.8819 11.2708 13.9185ZM11.5943 12.9512C11.3466 12.9513 11.1082 12.8571 10.9274 12.6877C10.7467 12.5184 10.6372 12.2866 10.6212 12.0394C10.6051 11.7923 10.6837 11.5483 10.841 11.357C10.9984 11.1657 11.2226 11.0414 11.4682 11.0094C11.7138 10.9774 11.9623 11.0401 12.1634 11.1847C12.3645 11.3293 12.503 11.545 12.5508 11.7881C12.5986 12.0311 12.5521 12.2832 12.4208 12.4932C12.2895 12.7032 12.0832 12.8553 11.8438 12.9187C11.7623 12.9403 11.6785 12.9512 11.5943 12.9512ZM11.5963 11.7557C11.577 11.7557 11.5578 11.7582 11.5393 11.7632C11.4968 11.7746 11.4587 11.7982 11.4297 11.8312C11.4007 11.8641 11.382 11.9049 11.3762 11.9484C11.3703 11.9919 11.3774 12.0362 11.3966 12.0757C11.4159 12.1152 11.4464 12.1481 11.4843 12.1702C11.5093 12.1852 11.5371 12.195 11.566 12.199C11.5949 12.2029 11.6244 12.201 11.6525 12.1932C11.695 12.182 11.7331 12.1584 11.7622 12.1255C11.7913 12.0926 11.81 12.0518 11.8159 12.0082C11.8219 11.9647 11.8148 11.9204 11.7956 11.8809C11.7764 11.8414 11.7459 11.8085 11.708 11.7862C11.6742 11.7662 11.6356 11.7557 11.5963 11.7557ZM6.87626 7.47625C6.26828 7.4762 5.67396 7.29586 5.16848 6.95805C4.66299 6.62023 4.26902 6.14011 4.03641 5.57839C3.80379 5.01667 3.74296 4.39858 3.86162 3.8023C3.98028 3.20601 4.2731 2.6583 4.70304 2.22843C5.13298 1.79855 5.68074 1.50583 6.27704 1.38727C6.87335 1.2687 7.49142 1.32963 8.05311 1.56234C8.61479 1.79505 9.09485 2.18909 9.43258 2.69463C9.77032 3.20018 9.95056 3.79452 9.95051 4.4025C9.94958 5.21753 9.62538 5.99892 9.04904 6.57521C8.4727 7.1515 7.69129 7.47539 6.87626 7.47625ZM6.87626 2.0785C6.41661 2.07855 5.96731 2.2149 5.58515 2.4703C5.203 2.72571 4.90517 3.0887 4.72931 3.51337C4.55346 3.93805 4.50749 4.40533 4.59721 4.85613C4.68693 5.30694 4.90831 5.72101 5.23337 6.04599C5.55842 6.37097 5.97254 6.59227 6.42336 6.68189C6.87418 6.77152 7.34146 6.72544 7.76609 6.5495C8.19073 6.37356 8.55366 6.07564 8.80898 5.69344C9.0643 5.31123 9.20056 4.86189 9.20051 4.40225C9.19984 3.78604 8.95475 3.19527 8.519 2.75958C8.08326 2.32388 7.49246 2.07909 6.87626 2.0785ZM2.15676 13.2765C2.05821 13.2766 1.96357 13.2379 1.89337 13.1688C1.82318 13.0996 1.78307 13.0055 1.78176 12.907C1.78076 12.8207 1.77001 10.7762 3.19551 9.359C4.08676 8.4725 5.32576 8.03325 6.88326 8.06775C7.88956 8.01643 8.88977 8.25161 9.76776 8.746C9.81054 8.77101 9.84794 8.80424 9.8778 8.84379C9.90765 8.88334 9.92938 8.92841 9.94171 8.9764C9.95405 9.0244 9.95675 9.07436 9.94966 9.1234C9.94257 9.17244 9.92583 9.2196 9.90041 9.26213C9.87499 9.30467 9.84138 9.34174 9.80155 9.37121C9.76171 9.40068 9.71643 9.42197 9.66832 9.43384C9.62021 9.4457 9.57022 9.44792 9.52125 9.44035C9.47228 9.43278 9.42529 9.41558 9.38301 9.38975C8.62067 8.96661 7.75399 8.76828 6.88351 8.81775C5.52951 8.78875 4.47051 9.1515 3.72901 9.88625C2.52901 11.075 2.53151 12.8797 2.53176 12.898C2.53276 12.9973 2.49431 13.093 2.42484 13.164C2.35538 13.235 2.26058 13.2756 2.16126 13.2767L2.15676 13.2765Z"/>
</mask>
<path d="M12.0625 14.6717H12.061L11.1085 14.6677C11.0164 14.6673 10.9276 14.6331 10.859 14.5715C10.6821 14.416 10.5457 14.2199 10.4613 14L10.3958 13.962C10.1627 13.9969 9.92456 13.9746 9.70201 13.897C9.6148 13.8677 9.54141 13.8074 9.49576 13.7275L9.02326 12.9002C8.97766 12.8205 8.96289 12.7269 8.98176 12.637C9.02773 12.4058 9.12932 12.1892 9.27776 12.006L9.27801 11.931C9.13116 11.7466 9.03146 11.5291 8.98751 11.2975C8.96931 11.2074 8.98479 11.1137 9.03101 11.0342L9.51101 10.2112C9.55731 10.1319 9.63115 10.0723 9.71851 10.0437C9.94185 9.9683 10.1801 9.94806 10.413 9.98475L10.4783 9.94725C10.5644 9.72797 10.7027 9.533 10.8813 9.37925C10.9498 9.31867 11.0381 9.28524 11.1295 9.28525H11.131L12.0838 9.28925C12.1757 9.28957 12.2643 9.32364 12.3328 9.385C12.51 9.54038 12.6467 9.73663 12.731 9.95675L12.796 9.995C13.0292 9.95991 13.2674 9.98222 13.49 10.06C13.5771 10.0894 13.6504 10.1497 13.696 10.2295L14.1688 11.0565C14.2144 11.1364 14.2292 11.2302 14.2103 11.3202C14.1641 11.5512 14.0624 11.7675 13.914 11.9505V12.0262C14.0606 12.2107 14.1603 12.4279 14.2045 12.6592C14.2228 12.7494 14.2074 12.8432 14.161 12.9227L13.681 13.7457C13.6346 13.8252 13.5605 13.8848 13.473 13.9132C13.2499 13.9884 13.0119 14.0086 12.7793 13.972L12.7138 14.0095C12.6275 14.2289 12.4891 14.4239 12.3105 14.5777C12.2421 14.6383 12.1539 14.6717 12.0625 14.6717ZM11.2708 13.9185L11.9048 13.921C11.936 13.8848 11.964 13.8459 11.9885 13.8047C11.9836 13.7344 11.9987 13.664 12.0319 13.6018C12.0652 13.5396 12.1153 13.488 12.1765 13.453L12.5718 13.2267C12.6331 13.1916 12.7031 13.1746 12.7738 13.1775C12.8444 13.1804 12.9128 13.2032 12.971 13.2432C13.0188 13.244 13.0666 13.2397 13.1135 13.2302L13.4328 12.6827C13.4168 12.6375 13.3971 12.5937 13.3738 12.5517C13.3103 12.5208 13.2568 12.4726 13.2195 12.4126C13.1822 12.3526 13.1627 12.2834 13.163 12.2127L13.165 11.7572C13.1653 11.6867 13.1855 11.6176 13.2233 11.558C13.2611 11.4983 13.315 11.4506 13.3788 11.4202C13.4023 11.3787 13.4224 11.3352 13.4388 11.2902L13.1238 10.7397C13.0767 10.7314 13.029 10.7266 12.9813 10.7252C12.9228 10.7647 12.8543 10.7869 12.7838 10.7892C12.7133 10.7916 12.6435 10.774 12.5825 10.7385L12.189 10.509C12.128 10.4734 12.0783 10.4214 12.0455 10.3588C12.0128 10.2962 11.9984 10.2256 12.004 10.1552C11.9799 10.114 11.9523 10.0748 11.9215 10.0382L11.2875 10.0357C11.2563 10.0719 11.2283 10.1108 11.2038 10.1517C11.2088 10.2222 11.1938 10.2927 11.1605 10.3551C11.1273 10.4174 11.0771 10.4691 11.0158 10.5042L10.62 10.7302C10.5587 10.7652 10.4887 10.7821 10.4182 10.7791C10.3477 10.7761 10.2794 10.7533 10.2213 10.7132C10.1735 10.7149 10.1259 10.7194 10.0788 10.7267L9.75951 11.2742C9.77535 11.3195 9.79501 11.3633 9.81826 11.4052C9.88177 11.4361 9.93527 11.4843 9.9726 11.5442C10.0099 11.6041 10.0296 11.6734 10.0293 11.744L10.0273 12.1995C10.0269 12.2701 10.0067 12.3391 9.96887 12.3986C9.93106 12.4582 9.87721 12.5059 9.81351 12.5362C9.78983 12.578 9.76976 12.6216 9.75351 12.6667L10.068 13.2167C10.1149 13.2261 10.1627 13.231 10.2105 13.2315C10.269 13.192 10.3375 13.1698 10.4081 13.1675C10.4787 13.1652 10.5485 13.1827 10.6095 13.2182L11.003 13.4477C11.064 13.4833 11.1138 13.5354 11.1465 13.598C11.1792 13.6605 11.1936 13.7311 11.188 13.8015C11.2121 13.8428 11.2399 13.8819 11.2708 13.9185ZM11.5943 12.9512C11.3466 12.9513 11.1082 12.8571 10.9274 12.6877C10.7467 12.5184 10.6372 12.2866 10.6212 12.0394C10.6051 11.7923 10.6837 11.5483 10.841 11.357C10.9984 11.1657 11.2226 11.0414 11.4682 11.0094C11.7138 10.9774 11.9623 11.0401 12.1634 11.1847C12.3645 11.3293 12.503 11.545 12.5508 11.7881C12.5986 12.0311 12.5521 12.2832 12.4208 12.4932C12.2895 12.7032 12.0832 12.8553 11.8438 12.9187C11.7623 12.9403 11.6785 12.9512 11.5943 12.9512ZM11.5963 11.7557C11.577 11.7557 11.5578 11.7582 11.5393 11.7632C11.4968 11.7746 11.4587 11.7982 11.4297 11.8312C11.4007 11.8641 11.382 11.9049 11.3762 11.9484C11.3703 11.9919 11.3774 12.0362 11.3966 12.0757C11.4159 12.1152 11.4464 12.1481 11.4843 12.1702C11.5093 12.1852 11.5371 12.195 11.566 12.199C11.5949 12.2029 11.6244 12.201 11.6525 12.1932C11.695 12.182 11.7331 12.1584 11.7622 12.1255C11.7913 12.0926 11.81 12.0518 11.8159 12.0082C11.8219 11.9647 11.8148 11.9204 11.7956 11.8809C11.7764 11.8414 11.7459 11.8085 11.708 11.7862C11.6742 11.7662 11.6356 11.7557 11.5963 11.7557ZM6.87626 7.47625C6.26828 7.4762 5.67396 7.29586 5.16848 6.95805C4.66299 6.62023 4.26902 6.14011 4.03641 5.57839C3.80379 5.01667 3.74296 4.39858 3.86162 3.8023C3.98028 3.20601 4.2731 2.6583 4.70304 2.22843C5.13298 1.79855 5.68074 1.50583 6.27704 1.38727C6.87335 1.2687 7.49142 1.32963 8.05311 1.56234C8.61479 1.79505 9.09485 2.18909 9.43258 2.69463C9.77032 3.20018 9.95056 3.79452 9.95051 4.4025C9.94958 5.21753 9.62538 5.99892 9.04904 6.57521C8.4727 7.1515 7.69129 7.47539 6.87626 7.47625ZM6.87626 2.0785C6.41661 2.07855 5.96731 2.2149 5.58515 2.4703C5.203 2.72571 4.90517 3.0887 4.72931 3.51337C4.55346 3.93805 4.50749 4.40533 4.59721 4.85613C4.68693 5.30694 4.90831 5.72101 5.23337 6.04599C5.55842 6.37097 5.97254 6.59227 6.42336 6.68189C6.87418 6.77152 7.34146 6.72544 7.76609 6.5495C8.19073 6.37356 8.55366 6.07564 8.80898 5.69344C9.0643 5.31123 9.20056 4.86189 9.20051 4.40225C9.19984 3.78604 8.95475 3.19527 8.519 2.75958C8.08326 2.32388 7.49246 2.07909 6.87626 2.0785ZM2.15676 13.2765C2.05821 13.2766 1.96357 13.2379 1.89337 13.1688C1.82318 13.0996 1.78307 13.0055 1.78176 12.907C1.78076 12.8207 1.77001 10.7762 3.19551 9.359C4.08676 8.4725 5.32576 8.03325 6.88326 8.06775C7.88956 8.01643 8.88977 8.25161 9.76776 8.746C9.81054 8.77101 9.84794 8.80424 9.8778 8.84379C9.90765 8.88334 9.92938 8.92841 9.94171 8.9764C9.95405 9.0244 9.95675 9.07436 9.94966 9.1234C9.94257 9.17244 9.92583 9.2196 9.90041 9.26213C9.87499 9.30467 9.84138 9.34174 9.80155 9.37121C9.76171 9.40068 9.71643 9.42197 9.66832 9.43384C9.62021 9.4457 9.57022 9.44792 9.52125 9.44035C9.47228 9.43278 9.42529 9.41558 9.38301 9.38975C8.62067 8.96661 7.75399 8.76828 6.88351 8.81775C5.52951 8.78875 4.47051 9.1515 3.72901 9.88625C2.52901 11.075 2.53151 12.8797 2.53176 12.898C2.53276 12.9973 2.49431 13.093 2.42484 13.164C2.35538 13.235 2.26058 13.2756 2.16126 13.2767L2.15676 13.2765Z" />
<path d="M12.0625 14.6717H12.061L11.1085 14.6677C11.0164 14.6673 10.9276 14.6331 10.859 14.5715C10.6821 14.416 10.5457 14.2199 10.4613 14L10.3958 13.962C10.1627 13.9969 9.92456 13.9746 9.70201 13.897C9.6148 13.8677 9.54141 13.8074 9.49576 13.7275L9.02326 12.9002C8.97766 12.8205 8.96289 12.7269 8.98176 12.637C9.02773 12.4058 9.12932 12.1892 9.27776 12.006L9.27801 11.931C9.13116 11.7466 9.03146 11.5291 8.98751 11.2975C8.96931 11.2074 8.98479 11.1137 9.03101 11.0342L9.51101 10.2112C9.55731 10.1319 9.63115 10.0723 9.71851 10.0437C9.94185 9.9683 10.1801 9.94806 10.413 9.98475L10.4783 9.94725C10.5644 9.72797 10.7027 9.533 10.8813 9.37925C10.9498 9.31867 11.0381 9.28524 11.1295 9.28525H11.131L12.0838 9.28925C12.1757 9.28957 12.2643 9.32364 12.3328 9.385C12.51 9.54038 12.6467 9.73663 12.731 9.95675L12.796 9.995C13.0292 9.95991 13.2674 9.98222 13.49 10.06C13.5771 10.0894 13.6504 10.1497 13.696 10.2295L14.1688 11.0565C14.2144 11.1364 14.2292 11.2302 14.2103 11.3202C14.1641 11.5512 14.0624 11.7675 13.914 11.9505V12.0262C14.0606 12.2107 14.1603 12.4279 14.2045 12.6592C14.2228 12.7494 14.2074 12.8432 14.161 12.9227L13.681 13.7457C13.6346 13.8252 13.5605 13.8848 13.473 13.9132C13.2499 13.9884 13.0119 14.0086 12.7793 13.972L12.7138 14.0095C12.6275 14.2289 12.4891 14.4239 12.3105 14.5777C12.2421 14.6383 12.1539 14.6717 12.0625 14.6717ZM11.2708 13.9185L11.9048 13.921C11.936 13.8848 11.964 13.8459 11.9885 13.8047C11.9836 13.7344 11.9987 13.664 12.0319 13.6018C12.0652 13.5396 12.1153 13.488 12.1765 13.453L12.5718 13.2267C12.6331 13.1916 12.7031 13.1746 12.7738 13.1775C12.8444 13.1804 12.9128 13.2032 12.971 13.2432C13.0188 13.244 13.0666 13.2397 13.1135 13.2302L13.4328 12.6827C13.4168 12.6375 13.3971 12.5937 13.3738 12.5517C13.3103 12.5208 13.2568 12.4726 13.2195 12.4126C13.1822 12.3526 13.1627 12.2834 13.163 12.2127L13.165 11.7572C13.1653 11.6867 13.1855 11.6176 13.2233 11.558C13.2611 11.4983 13.315 11.4506 13.3788 11.4202C13.4023 11.3787 13.4224 11.3352 13.4388 11.2902L13.1238 10.7397C13.0767 10.7314 13.029 10.7266 12.9813 10.7252C12.9228 10.7647 12.8543 10.7869 12.7838 10.7892C12.7133 10.7916 12.6435 10.774 12.5825 10.7385L12.189 10.509C12.128 10.4734 12.0783 10.4214 12.0455 10.3588C12.0128 10.2962 11.9984 10.2256 12.004 10.1552C11.9799 10.114 11.9523 10.0748 11.9215 10.0382L11.2875 10.0357C11.2563 10.0719 11.2283 10.1108 11.2038 10.1517C11.2088 10.2222 11.1938 10.2927 11.1605 10.3551C11.1273 10.4174 11.0771 10.4691 11.0158 10.5042L10.62 10.7302C10.5587 10.7652 10.4887 10.7821 10.4182 10.7791C10.3477 10.7761 10.2794 10.7533 10.2213 10.7132C10.1735 10.7149 10.1259 10.7194 10.0788 10.7267L9.75951 11.2742C9.77535 11.3195 9.79501 11.3633 9.81826 11.4052C9.88177 11.4361 9.93527 11.4843 9.9726 11.5442C10.0099 11.6041 10.0296 11.6734 10.0293 11.744L10.0273 12.1995C10.0269 12.2701 10.0067 12.3391 9.96887 12.3986C9.93106 12.4582 9.87721 12.5059 9.81351 12.5362C9.78983 12.578 9.76976 12.6216 9.75351 12.6667L10.068 13.2167C10.1149 13.2261 10.1627 13.231 10.2105 13.2315C10.269 13.192 10.3375 13.1698 10.4081 13.1675C10.4787 13.1652 10.5485 13.1827 10.6095 13.2182L11.003 13.4477C11.064 13.4833 11.1138 13.5354 11.1465 13.598C11.1792 13.6605 11.1936 13.7311 11.188 13.8015C11.2121 13.8428 11.2399 13.8819 11.2708 13.9185ZM11.5943 12.9512C11.3466 12.9513 11.1082 12.8571 10.9274 12.6877C10.7467 12.5184 10.6372 12.2866 10.6212 12.0394C10.6051 11.7923 10.6837 11.5483 10.841 11.357C10.9984 11.1657 11.2226 11.0414 11.4682 11.0094C11.7138 10.9774 11.9623 11.0401 12.1634 11.1847C12.3645 11.3293 12.503 11.545 12.5508 11.7881C12.5986 12.0311 12.5521 12.2832 12.4208 12.4932C12.2895 12.7032 12.0832 12.8553 11.8438 12.9187C11.7623 12.9403 11.6785 12.9512 11.5943 12.9512ZM11.5963 11.7557C11.577 11.7557 11.5578 11.7582 11.5393 11.7632C11.4968 11.7746 11.4587 11.7982 11.4297 11.8312C11.4007 11.8641 11.382 11.9049 11.3762 11.9484C11.3703 11.9919 11.3774 12.0362 11.3966 12.0757C11.4159 12.1152 11.4464 12.1481 11.4843 12.1702C11.5093 12.1852 11.5371 12.195 11.566 12.199C11.5949 12.2029 11.6244 12.201 11.6525 12.1932C11.695 12.182 11.7331 12.1584 11.7622 12.1255C11.7913 12.0926 11.81 12.0518 11.8159 12.0082C11.8219 11.9647 11.8148 11.9204 11.7956 11.8809C11.7764 11.8414 11.7459 11.8085 11.708 11.7862C11.6742 11.7662 11.6356 11.7557 11.5963 11.7557ZM6.87626 7.47625C6.26828 7.4762 5.67396 7.29586 5.16848 6.95805C4.66299 6.62023 4.26902 6.14011 4.03641 5.57839C3.80379 5.01667 3.74296 4.39858 3.86162 3.8023C3.98028 3.20601 4.2731 2.6583 4.70304 2.22843C5.13298 1.79855 5.68074 1.50583 6.27704 1.38727C6.87335 1.2687 7.49142 1.32963 8.05311 1.56234C8.61479 1.79505 9.09485 2.18909 9.43258 2.69463C9.77032 3.20018 9.95056 3.79452 9.95051 4.4025C9.94958 5.21753 9.62538 5.99892 9.04904 6.57521C8.4727 7.1515 7.69129 7.47539 6.87626 7.47625ZM6.87626 2.0785C6.41661 2.07855 5.96731 2.2149 5.58515 2.4703C5.203 2.72571 4.90517 3.0887 4.72931 3.51337C4.55346 3.93805 4.50749 4.40533 4.59721 4.85613C4.68693 5.30694 4.90831 5.72101 5.23337 6.04599C5.55842 6.37097 5.97254 6.59227 6.42336 6.68189C6.87418 6.77152 7.34146 6.72544 7.76609 6.5495C8.19073 6.37356 8.55366 6.07564 8.80898 5.69344C9.0643 5.31123 9.20056 4.86189 9.20051 4.40225C9.19984 3.78604 8.95475 3.19527 8.519 2.75958C8.08326 2.32388 7.49246 2.07909 6.87626 2.0785ZM2.15676 13.2765C2.05821 13.2766 1.96357 13.2379 1.89337 13.1688C1.82318 13.0996 1.78307 13.0055 1.78176 12.907C1.78076 12.8207 1.77001 10.7762 3.19551 9.359C4.08676 8.4725 5.32576 8.03325 6.88326 8.06775C7.88956 8.01643 8.88977 8.25161 9.76776 8.746C9.81054 8.77101 9.84794 8.80424 9.8778 8.84379C9.90765 8.88334 9.92938 8.92841 9.94171 8.9764C9.95405 9.0244 9.95675 9.07436 9.94966 9.1234C9.94257 9.17244 9.92583 9.2196 9.90041 9.26213C9.87499 9.30467 9.84138 9.34174 9.80155 9.37121C9.76171 9.40068 9.71643 9.42197 9.66832 9.43384C9.62021 9.4457 9.57022 9.44792 9.52125 9.44035C9.47228 9.43278 9.42529 9.41558 9.38301 9.38975C8.62067 8.96661 7.75399 8.76828 6.88351 8.81775C5.52951 8.78875 4.47051 9.1515 3.72901 9.88625C2.52901 11.075 2.53151 12.8797 2.53176 12.898C2.53276 12.9973 2.49431 13.093 2.42484 13.164C2.35538 13.235 2.26058 13.2756 2.16126 13.2767L2.15676 13.2765Z" stroke="#585C7B" stroke-width="0.2" mask="url(#path-1-outside-1_1570_78105)"/>
</svg>
