<svg width="16" height="16" viewBox="0 0 16 16" xmlns="http://www.w3.org/2000/svg">
<path d="M13.3846 5.84615H12.3077V3.69231C12.3077 3.33875 12.2381 2.98865 12.1028 2.66201C11.9675 2.33536 11.7691 2.03856 11.5191 1.78856C11.2691 1.53855 10.9723 1.34024 10.6457 1.20494C10.319 1.06964 9.96894 1 9.61539 1H3.69231C2.97826 1 2.29346 1.28365 1.78856 1.78856C1.28365 2.29346 1 2.97826 1 3.69231V10.1538C1 10.2967 1.05673 10.4336 1.15771 10.5346C1.25869 10.6356 1.39565 10.6923 1.53846 10.6923C1.68127 10.6923 1.81823 10.6356 1.91921 10.5346C2.02019 10.4336 2.07692 10.2967 2.07692 10.1538V3.69231C2.07692 3.26388 2.24712 2.853 2.55006 2.55006C2.853 2.24712 3.26388 2.07692 3.69231 2.07692H9.61539C10.0438 2.07692 10.4547 2.24712 10.7576 2.55006C11.0606 2.853 11.2308 3.26388 11.2308 3.69231V6.38462C11.2308 6.52742 11.2875 6.66438 11.3885 6.76537C11.4895 6.86635 11.6264 6.92308 11.7692 6.92308H13.3846C13.5274 6.92308 13.6644 6.97981 13.7654 7.08079C13.8663 7.18177 13.9231 7.31873 13.9231 7.46154V12.3077C13.9231 12.7361 13.7529 13.147 13.4499 13.4499C13.147 13.7529 12.7361 13.9231 12.3077 13.9231H3.69231C3.26388 13.9231 2.853 13.7529 2.55006 13.4499C2.24712 13.147 2.07692 12.7361 2.07692 12.3077C2.07692 12.1649 2.02019 12.0279 1.91921 11.9269C1.81823 11.826 1.68127 11.7692 1.53846 11.7692C1.39565 11.7692 1.25869 11.826 1.15771 11.9269C1.05673 12.0279 1 12.1649 1 12.3077C1 13.0217 1.28365 13.7065 1.78856 14.2114C2.29346 14.7163 2.97826 15 3.69231 15H12.3077C13.0217 15 13.7065 14.7163 14.2114 14.2114C14.7163 13.7065 15 13.0217 15 12.3077V7.46154C15 7.03311 14.8298 6.62223 14.5269 6.31929C14.2239 6.01635 13.813 5.84615 13.3846 5.84615Z" />
<path d="M5.57693 6.92308H7.73077C8.0878 6.92308 8.4302 6.78126 8.68265 6.5288C8.9351 6.27635 9.07693 5.93395 9.07693 5.57693C9.07693 5.21991 8.9351 4.87751 8.68265 4.62505C8.4302 4.3726 8.0878 4.23077 7.73077 4.23077H5.57693C5.21991 4.23077 4.87751 4.3726 4.62505 4.62505C4.3726 4.87751 4.23077 5.21991 4.23077 5.57693C4.23077 5.93395 4.3726 6.27635 4.62505 6.5288C4.87751 6.78126 5.21991 6.92308 5.57693 6.92308ZM5.57693 5.3077H7.73077C7.80218 5.3077 7.87066 5.33606 7.92115 5.38655C7.97164 5.43704 8 5.50552 8 5.57693C8 5.64833 7.97164 5.71681 7.92115 5.7673C7.87066 5.81779 7.80218 5.84616 7.73077 5.84616H5.57693C5.50552 5.84616 5.43704 5.81779 5.38655 5.7673C5.33606 5.71681 5.3077 5.64833 5.3077 5.57693C5.3077 5.50552 5.33606 5.43704 5.38655 5.38655C5.43704 5.33606 5.50552 5.3077 5.57693 5.3077ZM5.57693 11.7692H10.4231C10.7801 11.7692 11.1225 11.6274 11.375 11.375C11.6274 11.1225 11.7692 10.7801 11.7692 10.4231C11.7692 10.0661 11.6274 9.72366 11.375 9.47121C11.1225 9.21875 10.7801 9.07693 10.4231 9.07693H5.57693C5.21991 9.07693 4.87751 9.21875 4.62505 9.47121C4.3726 9.72366 4.23077 10.0661 4.23077 10.4231C4.23077 10.7801 4.3726 11.1225 4.62505 11.375C4.87751 11.6274 5.21991 11.7692 5.57693 11.7692ZM5.57693 10.1539H10.4231C10.4945 10.1539 10.563 10.1822 10.6135 10.2327C10.6639 10.2832 10.6923 10.3517 10.6923 10.4231C10.6923 10.4945 10.6639 10.563 10.6135 10.6135C10.563 10.6639 10.4945 10.6923 10.4231 10.6923H5.57693C5.50552 10.6923 5.43704 10.6639 5.38655 10.6135C5.33606 10.563 5.3077 10.4945 5.3077 10.4231C5.3077 10.3517 5.33606 10.2832 5.38655 10.2327C5.43704 10.1822 5.50552 10.1539 5.57693 10.1539Z" />
</svg>
