<svg width="16" height="16" viewBox="0 0 16 16" xmlns="http://www.w3.org/2000/svg">
<path d="M13.5 4.23077H12.5V2.61538C12.5 2.18696 12.342 1.77608 12.0607 1.47314C11.7794 1.17019 11.3978 1 11 1H2.5C2.10218 1 1.72064 1.17019 1.43934 1.47314C1.15804 1.77608 1 2.18696 1 2.61538V13.3846C1 13.813 1.15804 14.2239 1.43934 14.5269C1.72064 14.8298 2.10218 15 2.5 15H13.25C13.7141 15 14.1592 14.8014 14.4874 14.448C14.8156 14.0946 15 13.6152 15 13.1154V5.84615C15 5.41773 14.842 5.00685 14.5607 4.7039C14.2794 4.40096 13.8978 4.23077 13.5 4.23077ZM2 13.3846V2.61538C2 2.47258 2.05268 2.33562 2.14645 2.23463C2.24021 2.13365 2.36739 2.07692 2.5 2.07692H11C11.1326 2.07692 11.2598 2.13365 11.3536 2.23463C11.4473 2.33562 11.5 2.47258 11.5 2.61538V13.1154C11.5011 13.3954 11.5609 13.6715 11.675 13.9231H2.5C2.36739 13.9231 2.24021 13.8663 2.14645 13.7654C2.05268 13.6644 2 13.5274 2 13.3846ZM14 13.1154C14 13.3296 13.921 13.535 13.7803 13.6865C13.6397 13.838 13.4489 13.9231 13.25 13.9231C13.0511 13.9231 12.8603 13.838 12.7197 13.6865C12.579 13.535 12.5 13.3296 12.5 13.1154V5.30769H13.5C13.6326 5.30769 13.7598 5.36442 13.8536 5.4654C13.9473 5.56639 14 5.70335 14 5.84615V13.1154Z" />
<path d="M10 4.76923H5C4.86739 4.76923 4.74021 4.82596 4.64645 4.92694C4.55268 5.02792 4.5 5.16488 4.5 5.30769C4.5 5.4505 4.55268 5.58746 4.64645 5.68844C4.74021 5.78942 4.86739 5.84615 5 5.84615H10C10.1326 5.84615 10.2598 5.78942 10.3536 5.68844C10.4473 5.58746 10.5 5.4505 10.5 5.30769C10.5 5.16488 10.4473 5.02792 10.3536 4.92694C10.2598 4.82596 10.1326 4.76923 10 4.76923ZM10 7.46153H3.5C3.36739 7.46153 3.24021 7.51826 3.14645 7.61924C3.05268 7.72023 3 7.85719 3 8C3 8.1428 3.05268 8.27976 3.14645 8.38075C3.24021 8.48173 3.36739 8.53846 3.5 8.53846H10C10.1326 8.53846 10.2598 8.48173 10.3536 8.38075C10.4473 8.27976 10.5 8.1428 10.5 8C10.5 7.85719 10.4473 7.72023 10.3536 7.61924C10.2598 7.51826 10.1326 7.46153 10 7.46153ZM10 10.1538H3.5C3.36739 10.1538 3.24021 10.2106 3.14645 10.3116C3.05268 10.4125 3 10.5495 3 10.6923C3 10.8351 3.05268 10.9721 3.14645 11.0731C3.24021 11.174 3.36739 11.2308 3.5 11.2308H10C10.1326 11.2308 10.2598 11.174 10.3536 11.0731C10.4473 10.9721 10.5 10.8351 10.5 10.6923C10.5 10.5495 10.4473 10.4125 10.3536 10.3116C10.2598 10.2106 10.1326 10.1538 10 10.1538Z" />
</svg>
