<svg width="16" height="15" viewBox="0 0 16 15" xmlns="http://www.w3.org/2000/svg">
<path d="M3.34246 1C3.62307 1 3.86464 1.19984 3.91832 1.47606L3.95492 1.78082H14.2203C14.7156 1.78082 15.1109 2.27493 14.9718 2.77295L13.6542 7.45885C13.559 7.79558 13.2516 8.02739 12.9026 8.02739H5.16519L5.38968 9.19862H12.9075C13.232 9.19862 13.4931 9.4597 13.4931 9.78423C13.4931 10.1088 13.232 10.3698 12.9075 10.3698H4.88214C4.6235 10.3698 4.38193 10.1698 4.32825 9.89403L2.85786 2.17123H1.58562C1.26231 2.17123 1 1.90892 1 1.58562C1 1.26231 1.26231 1 1.58562 1H3.34246ZM4.12328 12.3219C4.12328 11.6753 4.6479 11.1507 5.29451 11.1507C5.94113 11.1507 6.46574 11.6753 6.46574 12.3219C6.46574 12.9685 5.94113 13.4931 5.29451 13.4931C4.6479 13.4931 4.12328 12.9685 4.12328 12.3219ZM13.4931 12.3219C13.4931 12.9685 12.9685 13.4931 12.3219 13.4931C11.6753 13.4931 11.1507 12.9685 11.1507 12.3219C11.1507 11.6753 11.6753 11.1507 12.3219 11.1507C12.9685 11.1507 13.4931 11.6753 13.4931 12.3219Z" />
</svg>
