<svg width="16" height="16" viewBox="0 0 16 16" xmlns="http://www.w3.org/2000/svg">
<path d="M11.2402 9.30156L9.75711 8.66582C9.58236 8.59019 9.37703 8.64104 9.25836 8.78843L8.65625 9.52425C7.70934 9.05941 6.93988 8.28995 6.47504 7.34359L7.2125 6.71758C7.35947 6.59751 7.40968 6.3941 7.33533 6.21938L6.69844 4.75977C6.61641 4.56836 6.40859 4.46445 6.20898 4.51094L4.83086 4.82812C4.61211 4.87461 4.47539 5.04414 4.47539 5.24375C4.47539 8.6918 7.28086 11.5 10.7289 11.5C10.9295 11.5 11.1008 11.3637 11.1456 11.1689L11.4634 9.79102C11.5355 9.59141 11.4316 9.38359 11.2402 9.30156ZM8 1C4.13359 1 1 4.13359 1 8C1 11.8664 4.13359 15 8 15C11.8664 15 15 11.8664 15 8C15 4.13359 11.8664 1 8 1ZM8 13.6875C4.86367 13.6875 2.3125 11.1361 2.3125 8C2.3125 4.86395 4.86367 2.3125 8 2.3125C11.1363 2.3125 13.6875 4.86395 13.6875 8C13.6875 11.1361 11.1363 13.6875 8 13.6875Z" />
</svg>
