<svg width="16" height="16" viewBox="0 0 16 16" xmlns="http://www.w3.org/2000/svg">
<path d="M11.1281 6.38047C10.7918 5.83359 10.2395 5.5 9.61055 5.5H6.38945C5.76055 5.5 5.18305 5.83496 4.87188 6.38184L1.98984 11.424C1.91602 11.5566 1.875 11.7043 1.875 11.8574V13.375C1.875 13.8568 2.2682 14.25 2.75 14.25H13.25C13.7318 14.25 14.125 13.8568 14.125 13.375V11.8574C14.125 11.7036 14.084 11.5566 14.0088 11.4232L11.1281 6.38047ZM8 11.625C6.91309 11.625 6.03125 10.7432 6.03125 9.65625C6.03125 8.56934 6.91445 7.6875 8 7.6875C9.08555 7.6875 9.96875 8.56934 9.96875 9.65625C9.96875 10.7432 9.08828 11.625 8 11.625ZM14.8387 4.48828C12.9438 2.90234 10.4992 2 8 2C5.50078 2 3.05762 2.90234 1.16064 4.48828C1.05811 4.57305 1 4.70156 1 4.83281V6.375C1 6.61768 1.19482 6.8125 1.4375 6.8125H3.35512C3.51918 6.8125 3.67312 6.72021 3.74477 6.56982L4.5 4.625C5.59047 4.15332 6.77637 3.96875 8 3.96875C9.22363 3.96875 10.409 4.15469 11.5 4.625L12.2552 6.56969C12.3258 6.71953 12.4816 6.8125 12.6457 6.8125H14.5625C14.8059 6.8125 15 6.61836 15 6.375V4.83281C15 4.70156 14.9426 4.57305 14.8387 4.48828Z" />
</svg>
