<svg width="16" height="16" viewBox="0 0 16 16" xmlns="http://www.w3.org/2000/svg">
<path d="M13.705 12.4677C14.0563 12.8182 14.0563 13.3867 13.705 13.7372C13.3536 14.0876 12.7835 14.0876 12.4321 13.7372L8.00061 9.28477L3.53765 13.7357C3.18628 14.0861 2.61618 14.0861 2.26477 13.7357C1.91336 13.3852 1.91339 12.8167 2.26477 12.4662L6.72923 8.01683L2.26353 3.53227C1.91216 3.18185 1.91216 2.61329 2.26353 2.26283C2.6149 1.91237 3.185 1.91241 3.53641 2.26283L8.00061 6.74889L12.4636 2.29799C12.8149 1.94757 13.385 1.94757 13.7365 2.29799C14.0879 2.64841 14.0878 3.21697 13.7365 3.56743L9.27199 8.01683L13.705 12.4677Z" />
</svg>
