<svg width="16" height="16" viewBox="0 0 16 16" xmlns="http://www.w3.org/2000/svg">
<path d="M5.0625 5.375V4.0625C5.0625 2.37102 6.43242 1 8.125 1C9.81758 1 11.1875 2.37102 11.1875 4.0625V5.375H12.9375C13.6621 5.375 14.25 5.96289 14.25 6.6875V12.375C14.25 13.8242 13.0742 15 11.625 15H4.625C3.17523 15 2 13.8242 2 12.375V6.6875C2 5.96289 2.58762 5.375 3.3125 5.375H5.0625ZM6.375 5.375H9.875V4.0625C9.875 3.0959 9.09023 2.3125 8.125 2.3125C7.15977 2.3125 6.375 3.0959 6.375 4.0625V5.375ZM3.3125 6.6875V12.375C3.3125 13.0996 3.90012 13.6875 4.625 13.6875H11.625C12.3496 13.6875 12.9375 13.0996 12.9375 12.375V6.6875H11.1875V8.21875C11.1875 8.58242 10.8949 8.875 10.5312 8.875C10.1676 8.875 9.875 8.58242 9.875 8.21875V6.6875H6.375V8.21875C6.375 8.58242 6.08242 8.875 5.71875 8.875C5.35508 8.875 5.0625 8.58242 5.0625 8.21875V6.6875H3.3125Z" />
</svg>
