<svg width="14" height="14" viewBox="0 0 14 14" xmlns="http://www.w3.org/2000/svg">
<path d="M7 14C3.15 14 0 10.85 0 7C0 3.15 3.15 0 7 0C10.85 0 14 3.15 14 7C14 10.85 10.85 14 7 14ZM7 1.45833C3.96667 1.45833 1.45833 3.96667 1.45833 7C1.45833 10.0333 3.96667 12.5417 7 12.5417C10.0333 12.5417 12.5417 10.0333 12.5417 7C12.5417 3.96667 10.0333 1.45833 7 1.45833Z" />
<path d="M5.89154 9.74154C5.71654 9.74154 5.4832 9.6832 5.36654 9.5082L3.9082 8.04987C3.61654 7.7582 3.61654 7.29154 3.9082 6.99987C4.19987 6.7082 4.66654 6.7082 4.9582 6.99987L5.89154 7.9332L9.04154 4.7832C9.3332 4.49154 9.79987 4.49154 10.0915 4.7832C10.3832 5.07487 10.3832 5.54154 10.0915 5.8332L6.41654 9.5082C6.24154 9.6832 6.06654 9.74154 5.89154 9.74154Z" />
</svg>
