<svg width="16" height="16" viewBox="0 0 16 16" xmlns="http://www.w3.org/2000/svg">
<path d="M8 15C4.13359 15 1 11.8664 1 8C1 4.13359 4.13359 1 8 1C11.8664 1 15 4.13359 15 8C15 11.8664 11.8664 15 8 15ZM7.34375 8C7.34375 8.21875 7.45312 8.42383 7.63633 8.52227L10.2613 10.2723C10.5621 10.4965 10.9695 10.4145 11.1473 10.1137C11.3715 9.81289 11.2895 9.40547 10.9887 9.20312L8.65625 7.65V4.28125C8.65625 3.91758 8.36367 3.625 7.97539 3.625C7.63633 3.625 7.31914 3.91758 7.31914 4.28125L7.34375 8Z" />
</svg>
