<svg width="16" height="16" viewBox="0 0 16 16" xmlns="http://www.w3.org/2000/svg">
<path d="M15 13.25C15 14.2152 14.2152 15 13.25 15H2.75C1.7834 15 1 14.2152 1 13.25V7.125C1 6.15977 1.7834 5.375 2.75 5.375H13.25C14.2152 5.375 15 6.15977 15 7.125V13.25ZM13.0312 3.1875C13.3949 3.1875 13.6875 3.48145 13.6875 3.84375C13.6875 4.20742 13.3949 4.5 13.0312 4.5H2.96875C2.60645 4.5 2.3125 4.20742 2.3125 3.84375C2.3125 3.48145 2.60645 3.1875 2.96875 3.1875H13.0312ZM11.7188 1C12.0824 1 12.375 1.29395 12.375 1.65625C12.375 2.01855 12.0824 2.3125 11.7188 2.3125H4.28125C3.91758 2.3125 3.625 2.01855 3.625 1.65625C3.625 1.29395 3.91758 1 4.28125 1H11.7188Z" />
</svg>
