<svg width="16" height="16" viewBox="0 0 16 16" xmlns="http://www.w3.org/2000/svg">
<g clip-path="url(#clip0_52_935)">
<path d="M11.25 4.5H4.74999C4.33749 4.5 3.99999 4.8375 3.99999 5.25C3.99999 5.6625 4.33749 6 4.74999 6H11.25C11.6656 6 12 5.66563 12 5.25C12 4.83437 11.6656 4.5 11.25 4.5ZM8.24999 7.5H4.74999C4.33749 7.5 3.99999 7.8375 3.99999 8.25C3.99999 8.6625 4.33749 9 4.74999 9H8.24999C8.66561 9 8.99999 8.66563 8.99999 8.25C8.99999 7.83437 8.66561 7.5 8.24999 7.5ZM13.9719 0H1.97186C0.8703 0 -0.0281372 0.898438 -0.0281372 1.97187V10.9438C-0.0281372 12.0453 0.8703 12.9156 1.97186 12.9156H4.97186V15.5125C4.97186 15.8199 5.31624 15.9984 5.56936 15.8156L9.47249 12.8875H13.9725C15.074 12.8875 15.9725 11.9891 15.9725 10.9156V1.97187C15.9719 0.898438 15.1 0 13.9719 0ZM14.5 11C14.5 11.2734 14.2734 11.5 14 11.5H8.99999L6.49999 13.375V11.5H1.99999C1.72655 11.5 1.49999 11.2734 1.49999 11V2C1.49999 1.72656 1.72655 1.5 1.99999 1.5H14C14.2734 1.5 14.5 1.72656 14.5 2V11Z" />
</g>
<defs>
<clipPath id="clip0_52_935">
<rect width="16" height="16" />
</clipPath>
</defs>
</svg>
