<svg width="16" height="16" viewBox="0 0 16 16" xmlns="http://www.w3.org/2000/svg">
<path d="M10.95 1C13.1831 1 15 2.95615 15 5.3613V10.6387C15 13.0438 13.1831 15 10.95 15C10.6924 15 10.4833 14.7748 10.4833 14.4974C10.4833 14.22 10.6924 13.9948 10.95 13.9948C12.6685 13.9948 14.0667 12.4896 14.0667 10.6387V6.42683H11.7682C11.0134 6.4275 10.398 7.08961 10.3974 7.90316C10.398 8.71672 11.0134 9.37882 11.7682 9.37949H12.7233C12.9809 9.37949 13.19 9.60466 13.19 9.8821C13.19 10.1595 12.9809 10.3847 12.7233 10.3847H11.7682C10.4982 10.384 9.46471 9.27093 9.46409 7.90316C9.46471 6.5354 10.4982 5.42229 11.7682 5.42162H14.0667V5.3613C14.0667 3.51036 12.6685 2.00522 10.95 2.00522H5.04942C3.66436 2.00522 2.50204 2.98899 2.09698 4.33665H8.24827C8.50587 4.33665 8.71493 4.56182 8.71493 4.83926C8.71493 5.11737 8.50587 5.34187 8.24827 5.34187H1.9352L1.93333 5.3613V10.6387C1.93333 12.4896 3.33084 13.9948 5.04942 13.9948H8.01804C8.27564 13.9948 8.48471 14.22 8.48471 14.4974C8.48471 14.7748 8.27564 15 8.01804 15H5.04942C2.81627 15 1 13.0438 1 10.6387V5.3613C1 2.95615 2.81627 1 5.04942 1H10.95ZM12.0815 7.35525C12.3391 7.35525 12.5482 7.58042 12.5482 7.85786C12.5482 8.1353 12.3391 8.36047 12.0815 8.36047H11.8694C11.6118 8.36047 11.4027 8.1353 11.4027 7.85786C11.4027 7.58042 11.6118 7.35525 11.8694 7.35525H12.0815Z" />
</svg>
