<svg width="16" height="16" viewBox="0 0 16 16" xmlns="http://www.w3.org/2000/svg">
<path d="M13.4815 3.91663H8.47385C8.40665 3.91733 8.3402 3.90141 8.27954 3.87007C8.21889 3.83873 8.16564 3.79281 8.12385 3.7358L6.56231 1.61833C6.41969 1.4249 6.23861 1.26884 6.03256 1.16178C5.82652 1.05472 5.60083 0.999422 5.37231 1H2.51846C2.11618 1.00154 1.73077 1.17535 1.44631 1.48351C1.16186 1.79167 1.00142 2.20918 1 2.64498V13.4015C1.00281 13.6145 1.04431 13.8248 1.12215 14.0203C1.19998 14.2159 1.31262 14.393 1.45362 14.5414C1.59463 14.6898 1.76124 14.8067 1.94395 14.8854C2.12666 14.964 2.32188 15.0029 2.51846 14.9998H10.6923C10.8351 14.9998 10.9721 14.9384 11.0731 14.829C11.174 14.7196 11.2308 14.5712 11.2308 14.4165C11.2308 14.2618 11.174 14.1134 11.0731 14.004C10.9721 13.8946 10.8351 13.8332 10.6923 13.8332H2.51846C2.46329 13.8363 2.40809 13.8276 2.35602 13.8076C2.30395 13.7876 2.25603 13.7567 2.21501 13.7166C2.174 13.6765 2.14069 13.628 2.11699 13.574C2.0933 13.5199 2.07968 13.4613 2.07692 13.4015V2.64498C2.07692 2.51812 2.12344 2.39646 2.20625 2.30676C2.28905 2.21705 2.40136 2.16666 2.51846 2.16666H5.37231C5.4395 2.16596 5.50596 2.18188 5.56661 2.21322C5.62727 2.24456 5.68052 2.29048 5.72231 2.34749L7.28385 4.46496C7.42647 4.65839 7.60755 4.81445 7.81359 4.92151C8.01964 5.02857 8.24533 5.08387 8.47385 5.08329H13.4815C13.5395 5.08329 13.5969 5.09566 13.6505 5.1197C13.7041 5.14374 13.7528 5.17897 13.7938 5.22339C13.8348 5.2678 13.8673 5.32053 13.8895 5.37857C13.9117 5.4366 13.9231 5.4988 13.9231 5.56161V8.58324C13.9231 8.73795 13.9798 8.88632 14.0808 8.99572C14.1818 9.10511 14.3187 9.16657 14.4615 9.16657C14.6043 9.16657 14.7413 9.10511 14.8423 8.99572C14.9433 8.88632 15 8.73795 15 8.58324V5.56161C14.9986 5.12581 14.8381 4.7083 14.5537 4.40014C14.2692 4.09198 13.8838 3.91817 13.4815 3.91663Z" />
<path d="M14.4616 10.9165H13.3846V9.74989C13.3846 9.59518 13.3279 9.44681 13.2269 9.33742C13.1259 9.22802 12.989 9.16656 12.8462 9.16656C12.7034 9.16656 12.5664 9.22802 12.4654 9.33742C12.3644 9.44681 12.3077 9.59518 12.3077 9.74989V10.9165H11.2308C11.088 10.9165 10.951 10.978 10.85 11.0874C10.7491 11.1968 10.6923 11.3452 10.6923 11.4999C10.6923 11.6546 10.7491 11.8029 10.85 11.9123C10.951 12.0217 11.088 12.0832 11.2308 12.0832H12.3077V13.2498C12.3077 13.4046 12.3644 13.5529 12.4654 13.6623C12.5664 13.7717 12.7034 13.8332 12.8462 13.8332C12.989 13.8332 13.1259 13.7717 13.2269 13.6623C13.3279 13.5529 13.3846 13.4046 13.3846 13.2498V12.0832H14.4616C14.6044 12.0832 14.7413 12.0217 14.8423 11.9123C14.9433 11.8029 15 11.6546 15 11.4999C15 11.3452 14.9433 11.1968 14.8423 11.0874C14.7413 10.978 14.6044 10.9165 14.4616 10.9165Z" />
</svg>
