<svg width="16" height="16" viewBox="0 0 16 16" xmlns="http://www.w3.org/2000/svg">
<path d="M13.6875 3.75H8.4375L6.6875 2H2.3125C1.58789 2 1 2.58789 1 3.3125V12.9375C1 13.6621 1.58789 14.25 2.3125 14.25H13.6875C14.4121 14.25 15 13.6621 15 12.9375V5.0625C15 4.33789 14.4121 3.75 13.6875 3.75ZM10.1875 9.63164H8.65625V11.1629C8.63164 11.5512 8.36367 11.8438 8 11.8438C7.63715 11.8438 7.36836 11.5501 7.36836 11.2121V9.63164H5.78789C5.44883 9.63164 5.15625 9.36367 5.15625 9C5.15625 8.63742 5.44992 8.36836 5.78789 8.36836H7.31914V6.78789C7.34375 6.44883 7.63633 6.15625 8 6.15625C8.36367 6.15625 8.63164 6.44992 8.63164 6.78789V8.34375H10.1629C10.5512 8.34375 10.8438 8.63633 10.8438 9C10.8438 9.36367 10.5512 9.63164 10.1875 9.63164Z" />
</svg>
