<svg width="28" height="28" viewBox="0 0 28 28" fill="none" xmlns="http://www.w3.org/2000/svg">
<path d="M2.9515 22.9252L4.51483 23.5785V13.0435L1.67983 19.8802C1.2015 21.0702 1.77316 22.4352 2.9515 22.9252V22.9252ZM25.7015 18.6085L19.9148 4.6435C19.5532 3.7685 18.7015 3.23183 17.8032 3.2085C17.4998 3.2085 17.1848 3.25516 16.8815 3.3835L8.28316 6.94183C7.40816 7.3035 6.8715 8.1435 6.84816 9.04183C6.8365 9.35683 6.89483 9.67183 7.02316 9.97516L12.8098 23.9402C13.1715 24.8268 14.0348 25.3635 14.9448 25.3752C15.2482 25.3752 15.5515 25.3168 15.8432 25.2002L24.4298 21.6418C25.6198 21.1518 26.1915 19.7868 25.7015 18.6085V18.6085ZM14.9682 23.0418L9.1815 9.0885L17.7565 5.54183H17.7682L23.5432 19.4835L14.9682 23.0418V23.0418Z" fill="#764AF1"/>
<path d="M12.8332 11.6668C13.4775 11.6668 13.9998 11.1445 13.9998 10.5002C13.9998 9.85583 13.4775 9.3335 12.8332 9.3335C12.1888 9.3335 11.6665 9.85583 11.6665 10.5002C11.6665 11.1445 12.1888 11.6668 12.8332 11.6668Z" fill="#764AF1"/>
<path d="M6.85986 23.0417C6.85986 24.325 7.90986 25.375 9.1932 25.375H10.8849L6.85986 15.645V23.0417Z" fill="#764AF1"/>
</svg>
