<svg width="16" height="16" viewBox="0 0 16 16" xmlns="http://www.w3.org/2000/svg">
<path d="M11.5915 13.0556C7.75928 13.0556 4.65887 9.925 4.65887 6.05556C4.65887 4.13056 5.42916 2.38056 6.68088 1.11667C3.44567 1.71945 1 4.55834 1 8C1 11.8694 4.10041 15 7.9326 15C9.85832 15 11.5915 14.2028 12.8432 12.9389C12.4388 13.0167 12.0344 13.0556 11.5915 13.0556Z" />
<path d="M12.6891 4.675L14.1141 5.43333L13.8445 3.83889L15 2.69167L13.4016 2.45833L12.6891 1L11.9766 2.45833L10.3782 2.69167L11.5337 3.83889L11.2641 5.43333L12.6891 4.675Z" />
<path d="M9.03026 8.91389L9.97387 9.4L9.80055 8.33055L10.5708 7.57222L9.51169 7.41666L9.03026 6.44444L8.54883 7.41666L7.48969 7.57222L8.25997 8.33055L8.08666 9.4L9.03026 8.91389Z" />
</svg>
