<svg width="14" height="16" viewBox="0 0 14 16" xmlns="http://www.w3.org/2000/svg">
<path d="M6 5.5C6 6.32812 5.32812 7 4.5 7H1.5C0.671562 7 0 6.32812 0 5.5V2.5C0 1.67156 0.671562 1 1.5 1H4.5C5.32812 1 6 1.67156 6 2.5V5.5ZM6 13.5C6 14.3281 5.32812 15 4.5 15H1.5C0.671562 15 0 14.3281 0 13.5V10.5C0 9.67188 0.671562 9 1.5 9H4.5C5.32812 9 6 9.67188 6 10.5V13.5ZM8 2.5C8 1.67156 8.67188 1 9.5 1H12.5C13.3281 1 14 1.67156 14 2.5V5.5C14 6.32812 13.3281 7 12.5 7H9.5C8.67188 7 8 6.32812 8 5.5V2.5ZM14 13.5C14 14.3281 13.3281 15 12.5 15H9.5C8.67188 15 8 14.3281 8 13.5V10.5C8 9.67188 8.67188 9 9.5 9H12.5C13.3281 9 14 9.67188 14 10.5V13.5Z" />
</svg>
