<svg width="65" height="65" viewBox="0 0 65 65" fill="none" xmlns="http://www.w3.org/2000/svg">
<path d="M61.4032 0.5H3.59677C1.88942 0.5 0.5 1.88937 0.5 3.59667V49.0146C0.5 50.7219 1.88942 52.1112 3.59677 52.1112H31.4677V52.679C31.4677 53.7876 31.7279 54.8993 32.2213 55.8923L34.5645 60.6106V64.4515L53.1452 64.5V60.7128L54.7968 58.511C55.7289 57.2682 56.2419 55.7292 56.2419 54.1757V52.1112H61.4032C63.1106 52.1112 64.5 50.7219 64.5 49.0146V3.59667C64.5 1.88937 63.1106 0.5 61.4032 0.5ZM3.59677 2.56445H61.4032C61.972 2.56445 62.4355 3.02792 62.4355 3.59667V12.8867H2.56452V3.59667C2.56452 3.02792 3.028 2.56445 3.59677 2.56445ZM40.7581 25.2734C39.0507 25.2734 37.6613 26.6628 37.6613 28.3701V29.4023H25.2742V19.08H58.3064V29.4023H43.8548V28.3701C43.8548 26.6628 42.4654 25.2734 40.7581 25.2734ZM37.6613 42.0543C36.277 40.5978 34.3126 39.6812 32.1067 39.6812C30.6172 39.6812 29.4043 40.893 29.4032 42.3836C29.4032 42.8006 29.5023 43.2186 29.6881 43.5933L30.8515 45.9179H25.2742V35.5956H37.6613V42.0543ZM54.1774 54.1757C54.1774 55.2853 53.811 56.3857 53.1452 57.2724L51.0806 60.0253V62.4314L36.629 62.3922V60.1265L34.0701 54.9736C33.7181 54.2645 33.5323 53.4717 33.5323 52.679V48.4386C33.5323 47.2763 33.2577 46.113 32.7384 45.0746L31.5359 42.6695C31.4915 42.5817 31.4677 42.4816 31.4677 42.3836C31.4677 42.0316 31.7547 41.7456 32.2048 41.7456C35.2138 41.7456 37.6613 44.1941 37.6613 47.203V48.9712V51.0357H39.7258V48.9712V47.203V28.3701C39.7258 27.8013 40.1893 27.3378 40.7581 27.3378C41.3268 27.3378 41.7903 27.8013 41.7903 28.3701V40.7568V44.8857H43.8548V40.7568C43.8548 40.188 44.3183 39.7245 44.8871 39.7245C45.4559 39.7245 45.9194 40.188 45.9194 40.7568V44.8857H47.9839V40.7568C47.9839 40.188 48.4474 39.7245 49.0161 39.7245C49.5849 39.7245 50.0484 40.188 50.0484 40.7568V42.8212V44.8857H52.1129V42.8212C52.1129 42.2525 52.5764 41.789 53.1452 41.789C53.7139 41.789 54.1774 42.2525 54.1774 42.8212V54.1757ZM53.1452 39.7245C52.7374 39.7245 52.3503 39.8082 51.9932 39.9516C51.637 38.6355 50.4437 37.6601 49.0161 37.6601C48.2203 37.6601 47.5008 37.9708 46.9516 38.4652C46.4025 37.9698 45.683 37.6601 44.8871 37.6601C44.5237 37.6601 44.179 37.7344 43.8548 37.85V35.5956H58.3064V45.9179H56.2419V42.8212C56.2419 41.1139 54.8525 39.7245 53.1452 39.7245ZM61.4032 50.0468H56.2419V47.9823H60.371V33.5312H43.8548V31.4667H60.371V17.0156H23.2097V31.4667H37.6613V33.5312H23.2097V47.9823H31.4409C31.4543 48.1341 31.4677 48.2868 31.4677 48.4386V50.0468H3.59677C3.028 50.0468 2.56452 49.5833 2.56452 49.0146V14.9511H62.4355V49.0146C62.4355 49.5833 61.972 50.0468 61.4032 50.0468Z" fill="#9397AD"/>
<path d="M10.8225 4.62891H4.62891V10.8223H10.8225V4.62891ZM8.75794 8.75781H6.69342V6.69336H8.75794V8.75781Z" fill="#9397AD"/>
<path d="M19.0812 4.62891H12.8877V10.8223H19.0812V4.62891ZM17.0167 8.75781H14.9522V6.69336H17.0167V8.75781Z" fill="#9397AD"/>
<path d="M27.3386 4.62891H21.145V10.8223H27.3386V4.62891ZM25.2741 8.75781H23.2095V6.69336H25.2741V8.75781Z" fill="#9397AD"/>
<path d="M27.3389 21.1445H29.4034V23.209H27.3389V21.1445Z" fill="#9397AD"/>
<path d="M31.4678 21.1445H56.242V23.209H31.4678V21.1445Z" fill="#9397AD"/>
<path d="M45.9194 25.2732H56.242V27.3376H45.9194V25.2732Z" fill="#9397AD"/>
<path d="M27.3389 25.2732H35.5969V27.3376H27.3389V25.2732Z" fill="#9397AD"/>
<path d="M6.69385 31.4665H21.1455V17.0154H6.69385V31.4665ZM8.75836 19.0798H19.0809V29.4021H8.75836V19.0798Z" fill="#9397AD"/>
<path d="M12.8871 24.8461L11.5524 23.5115L10.0928 24.971L12.8871 27.7653L18.7782 21.8744L17.3186 20.4148L12.8871 24.8461Z" fill="#764AF1"/>
<path d="M6.69385 47.9824H21.1455V33.5312H6.69385V47.9824ZM8.75836 35.5957H19.0809V45.9179H8.75836V35.5957Z" fill="#9397AD"/>
<path d="M12.8871 41.3618L11.5524 40.0271L10.0928 41.4867L12.8871 44.2809L18.7782 38.39L17.3186 36.9304L12.8871 41.3618Z" fill="#764AF1"/>
</svg>
