<svg width="16" height="16" viewBox="0 0 16 16" xmlns="http://www.w3.org/2000/svg">
<path d="M7.99996 5.56347C7.90575 5.56385 7.81239 5.54557 7.72527 5.50969C7.63816 5.47381 7.55901 5.42104 7.49239 5.35442C7.42577 5.2878 7.37299 5.20865 7.33711 5.12153C7.30124 5.03442 7.28296 4.94106 7.28334 4.84684C7.28386 4.79969 7.28865 4.75268 7.29767 4.70639C7.31527 4.61412 7.35134 4.52637 7.40373 4.4484C7.43017 4.40961 7.4599 4.37316 7.49259 4.33947C7.63015 4.2107 7.81153 4.13905 7.99996 4.13905C8.18839 4.13905 8.36977 4.2107 8.50733 4.33947C8.64034 4.475 8.71539 4.65696 8.71659 4.84684C8.72081 4.89357 8.72081 4.94058 8.71659 4.9873C8.69899 5.07957 8.66291 5.16732 8.61053 5.24529C8.58336 5.28353 8.55368 5.31992 8.52167 5.35422C8.45282 5.4218 8.37127 5.47508 8.28173 5.511C8.19219 5.54691 8.09643 5.56474 7.99996 5.56347ZM7.99996 11.7265C7.84791 11.7265 7.70209 11.6661 7.59458 11.5585C7.48706 11.451 7.42666 11.3052 7.42666 11.1532V7.4267H7.14001C6.98796 7.4267 6.84214 7.3663 6.73463 7.25878C6.62711 7.15127 6.56671 7.00545 6.56671 6.8534C6.56671 6.70135 6.62711 6.55553 6.73463 6.44801C6.84214 6.3405 6.98796 6.2801 7.14001 6.2801H7.99996C8.15201 6.2801 8.29783 6.3405 8.40535 6.44801C8.51286 6.55553 8.57326 6.70135 8.57326 6.8534V11.1532C8.57326 11.3052 8.51286 11.451 8.40535 11.5585C8.29783 11.6661 8.15201 11.7265 7.99996 11.7265Z" />
<path d="M8.91726 11.7265H7.0827C6.93065 11.7265 6.78483 11.666 6.67732 11.5585C6.5698 11.451 6.5094 11.3052 6.5094 11.1531C6.5094 11.0011 6.5698 10.8553 6.67732 10.7478C6.78483 10.6402 6.93065 10.5798 7.0827 10.5798H8.91726C9.06931 10.5798 9.21513 10.6402 9.32265 10.7478C9.43016 10.8553 9.49056 11.0011 9.49056 11.1531C9.49056 11.3052 9.43016 11.451 9.32265 11.5585C9.21513 11.666 9.06931 11.7265 8.91726 11.7265Z" />
<path d="M9.84029 15H6.15971C4.79127 15 3.47888 14.4564 2.51124 13.4888C1.54361 12.5211 1 11.2087 1 9.84029V6.15971C1 6.00766 1.0604 5.86184 1.16792 5.75432C1.27543 5.64681 1.42125 5.5864 1.5733 5.5864C1.72535 5.5864 1.87117 5.64681 1.97869 5.75432C2.0862 5.86184 2.1466 6.00766 2.1466 6.15971V9.84029C2.1466 10.9046 2.56941 11.9254 3.32201 12.678C4.07462 13.4306 5.09536 13.8534 6.15971 13.8534H9.84029C10.9046 13.8534 11.9254 13.4306 12.678 12.678C13.4306 11.9254 13.8534 10.9046 13.8534 9.84029V6.15971C13.8534 5.09536 13.4306 4.07462 12.678 3.32201C11.9254 2.56941 10.9046 2.1466 9.84029 2.1466H6.15971C5.50927 2.14663 4.86859 2.30476 4.29284 2.60737C3.71709 2.90997 3.22352 3.34799 2.85463 3.8837C2.81327 3.94879 2.75921 4.00487 2.69567 4.04857C2.63214 4.09228 2.56044 4.12272 2.48486 4.13807C2.40929 4.15342 2.3314 4.15337 2.25584 4.13791C2.18029 4.12246 2.10864 4.09192 2.04516 4.04812C1.98169 4.00433 1.9277 3.94818 1.88643 3.88303C1.84517 3.81789 1.81747 3.74508 1.80499 3.66898C1.79252 3.59288 1.79553 3.51505 1.81383 3.44013C1.83214 3.36522 1.86538 3.29477 1.91155 3.23301C2.38576 2.54448 3.02018 1.9815 3.7602 1.59252C4.50022 1.20353 5.32368 1.00019 6.15971 1H9.84029C11.2087 1 12.5211 1.54361 13.4888 2.51124C14.4564 3.47888 15 4.79127 15 6.15971V9.84029C15 11.2087 14.4564 12.5211 13.4888 13.4888C12.5211 14.4564 11.2087 15 9.84029 15Z" />
</svg>
