<svg width="16" height="16" viewBox="0 0 16 16" xmlns="http://www.w3.org/2000/svg">
<path d="M1 3C1 1.89531 1.89531 1 3 1H13C14.1031 1 15 1.89531 15 3V13C15 14.1031 14.1031 15 13 15H3C1.89531 15 1 14.1031 1 13V3ZM9.19375 5.24687C8.91563 5.55625 8.94062 6.00313 9.24687 6.30625L11.1281 8L9.24687 9.69375C8.94062 9.96875 8.91563 10.4438 9.19375 10.7531C9.46875 11.0594 9.94375 11.0844 10.2531 10.8062L12.7531 8.55625C12.9094 8.41562 13 8.2125 13 8C13 7.7875 12.9094 7.58437 12.7531 7.44375L10.2531 5.19375C9.94375 4.91562 9.46875 4.94062 9.19375 5.24687ZM6.75313 6.30625C7.05938 6.00313 7.08438 5.55625 6.80625 5.24687C6.50313 4.94062 6.05625 4.91562 5.74687 5.19375L3.24813 7.44375C3.09031 7.58437 3 7.7875 3 8C3 8.2125 3.09031 8.41562 3.24813 8.55625L5.74687 10.8062C6.05625 11.0844 6.50313 11.0594 6.80625 10.7531C7.08438 10.4438 7.05938 9.96875 6.75313 9.69375L4.87188 8L6.75313 6.30625Z" />
</svg>
