<svg width="16" height="16" viewBox="0 0 16 16" xmlns="http://www.w3.org/2000/svg">
<path d="M0 8C0 3.58125 3.58125 0 8 0C12.4187 0 16 3.58125 16 8C16 12.4187 12.4187 16 8 16C3.58125 16 0 12.4187 0 8ZM8.65 4.175C8.65 3.80313 8.34687 3.5 7.975 3.5C7.60312 3.5 7.3 3.80313 7.3 4.175V4.67812C7.10938 4.72187 6.925 4.75312 6.75313 4.85625C6.19063 5.09687 5.65938 5.55 5.53438 6.23125C5.40313 6.95312 5.71562 7.60313 6.325 7.99375C6.76875 8.27813 7.35625 8.44375 7.82812 8.57812C7.89688 8.59688 7.94062 8.61562 8.04062 8.6375C8.4125 8.7375 8.80312 8.81562 9.11875 9.05937C9.48437 9.30937 9.30937 9.75313 8.93437 9.87813C8.65625 10.0188 8.23125 10.0656 7.7 9.9875C7.3375 9.93125 6.975 9.80625 6.62187 9.6875C6.54375 9.6625 6.46562 9.63438 6.3875 9.60938C6.03437 9.49063 5.65 9.68438 5.53438 10.0375C5.41563 10.3906 5.60938 10.775 5.9625 10.8906C6.40313 11.0344 6.84688 11.1812 7.3 11.2812V11.825C7.3 12.1969 7.60312 12.5 7.975 12.5C8.34687 12.5 8.65 12.1969 8.65 11.825V11.35C8.92812 11.3188 9.19375 11.2563 9.4375 11.1562C10.025 10.9219 10.5094 10.4625 10.6406 9.7625C10.7719 9.0375 10.4875 8.35937 9.88125 7.94375C9.41563 7.625 8.79375 7.45 8.30625 7.30937C8.23437 7.29062 8.15937 7.26875 8.0875 7.22188C7.73125 7.15313 7.35938 7.05312 7.05 6.85625C6.65938 6.60625 6.94375 6.24375 7.2875 6.09375C7.675 5.92812 8.15313 5.89062 8.56563 5.96875C8.7875 6.0125 9.00625 6.075 9.225 6.13438C9.27188 6.15 9.32187 6.1625 9.36875 6.175C9.72812 6.275 10.1 6.06563 10.2 5.70625C10.3 5.34688 10.0875 4.975 9.72812 4.84688C9.67187 4.85938 9.6125 4.84062 9.55625 4.825C9.25625 4.74062 8.95312 4.65625 8.65 4.61875V4.175Z" />
</svg>
