<svg width="16" height="16" viewBox="0 0 16 16" xmlns="http://www.w3.org/2000/svg">
<path d="M14.5457 1.97096C15.1507 2.57517 15.1507 3.55484 14.5457 4.15905L13.7168 4.99063L11.0094 2.28371L11.841 1.45323C12.446 0.848924 13.424 0.848924 14.029 1.45323L14.5457 1.97096ZM5.76295 7.53234L10.385 2.90864L13.0925 5.61501L8.46766 10.2371C8.29913 10.4083 8.09193 10.5354 7.86262 10.6128L5.40932 11.4306C5.14686 11.5079 4.90926 11.4471 4.72969 11.2454C4.55287 11.0907 4.49209 10.8283 4.56945 10.5907L5.38722 8.13738C5.46457 7.90807 5.59166 7.70087 5.76295 7.53234ZM6.30444 2.5981C6.79345 2.5981 7.18852 3.01887 7.18852 3.48218C7.18852 3.99605 6.79345 4.36625 6.30444 4.36625H3.65222C3.16405 4.36625 2.76815 4.78619 2.76815 5.25033V12.3478C2.76815 12.8368 3.16405 13.2319 3.65222 13.2319H10.7248C11.2138 13.2319 11.6089 12.8368 11.6089 12.3478V9.67069C11.6089 9.20655 12.004 8.78662 12.493 8.78662C12.982 8.78662 13.377 9.20655 13.377 9.67069V12.3478C13.377 13.812 12.1891 15 10.7248 15H3.65222C2.18742 15 1 13.812 1 12.3478V5.25033C1 3.78608 2.18742 2.5981 3.65222 2.5981H6.30444Z" />
</svg>
