<svg width="16" height="16" viewBox="0 0 16 16" xmlns="http://www.w3.org/2000/svg">
<path d="M11.6594 0.780312C12.5375 -0.0983438 13.9625 -0.0983438 14.8406 0.780312L15.2188 1.15906C16.0969 2.03781 16.0969 3.4625 15.2188 4.34062L9.05625 10.5062C8.78437 10.775 8.45 10.9719 8.08125 11.0781L4.95625 11.9719C4.69375 12.0469 4.4125 11.9719 4.21875 11.7531C4.02813 11.5875 3.95312 11.3062 4.02812 11.0437L4.92188 7.91875C5.02813 7.55 5.225 7.21562 5.49375 6.94375L11.6594 0.780312ZM13.7531 1.84094C13.4875 1.54812 13.0125 1.54812 12.7188 1.84094L11.8094 2.75L13.25 4.19063L14.1594 3.25312C14.4531 2.9875 14.4531 2.5125 14.1594 2.21969L13.7531 1.84094ZM6.36562 8.33125L5.84062 10.1594L7.66875 9.63437C7.79375 9.6 7.90313 9.53437 7.99375 9.44375L12.1906 5.25L10.75 3.80938L6.55625 8.00625C6.46563 8.09688 6.4 8.20625 6.36562 8.33125ZM6.25 2C6.66563 2 7 2.33594 7 2.75C7 3.16563 6.66563 3.5 6.25 3.5H2.75C2.05969 3.5 1.5 4.05937 1.5 4.75V13.25C1.5 13.9406 2.05969 14.5 2.75 14.5H11.25C11.9406 14.5 12.5 13.9406 12.5 13.25V9.75C12.5 9.33437 12.8344 9 13.25 9C13.6656 9 14 9.33437 14 9.75V13.25C14 14.7687 12.7687 16 11.25 16H2.75C1.23125 16 0 14.7687 0 13.25V4.75C0 3.23125 1.23125 2 2.75 2H6.25Z" />
</svg>
