<svg width="16" height="16" viewBox="0 0 16 16" xmlns="http://www.w3.org/2000/svg">
<path d="M14.5206 5.51586C14.4934 5.44734 14.4523 5.38567 14.4002 5.33501C14.348 5.28435 14.286 5.24588 14.2184 5.2222C14.1507 5.19851 14.0789 5.19015 14.0078 5.19769C13.9368 5.20523 13.8681 5.2285 13.8064 5.26591C13.7447 5.30332 13.6915 5.35402 13.6504 5.41458C13.6092 5.47514 13.581 5.54415 13.5677 5.61697C13.5544 5.68979 13.5563 5.76472 13.5733 5.83671C13.5903 5.9087 13.622 5.97607 13.6662 6.03428C13.8802 6.39055 13.9944 6.80164 13.996 7.22146C14.0002 7.29571 14.0002 7.37014 13.996 7.44439C13.9553 7.81511 13.8303 8.1705 13.6312 8.48123L13.5612 8.58491C13.1794 9.09402 12.6973 9.51287 12.1472 9.81357H12.0972L12.0472 9.83949C10.7984 10.5155 9.40847 10.8627 7.99989 10.8504C6.59424 10.8739 5.20452 10.5392 3.95253 9.87578L3.90257 9.84986L3.83761 9.81357C3.29713 9.50878 2.82532 9.08819 2.45351 8.57973L2.39355 8.4916C2.19179 8.18137 2.06339 7.82614 2.0188 7.45475C2.00913 7.37739 2.00413 7.29948 2.00381 7.22146C2.00381 5.25665 4.75201 3.59252 7.99989 3.59252C8.35204 3.59248 8.70396 3.61151 9.0542 3.64954C9.18672 3.66398 9.31934 3.62321 9.42289 3.53619C9.52643 3.44918 9.59242 3.32305 9.60634 3.18556C9.62025 3.04806 9.58095 2.91046 9.49708 2.80303C9.41322 2.6956 9.29165 2.62714 9.15913 2.6127C8.77394 2.57267 8.387 2.55364 7.99989 2.55567C4.07745 2.55567 1.00446 4.62936 1.00446 7.22146V10.332C0.998513 10.4408 0.998513 10.5498 1.00446 10.6586C1.07094 11.2486 1.28259 11.811 1.61906 12.2916C2.07122 12.9325 2.6527 13.4632 3.32295 13.8469C4.76207 14.6374 6.37189 15.0335 7.99989 14.9978C9.62454 15.0242 11.2289 14.621 12.6618 13.8261C13.3319 13.4422 13.9133 12.9115 14.3657 12.2709C14.7038 11.7994 14.9205 11.2463 14.9953 10.6638C15.0016 10.5533 15.0016 10.4425 14.9953 10.332V7.22146C14.9911 6.61848 14.8269 6.02835 14.5206 5.51586V5.51586Z" />
<path d="M8.49953 4.62936C8.49953 4.49187 8.44688 4.36 8.35317 4.26278C8.25947 4.16556 8.13237 4.11094 7.99985 4.11094C7.86733 4.11094 7.74024 4.16556 7.64653 4.26278C7.55282 4.36 7.50018 4.49187 7.50018 4.62936C7.10261 4.62936 6.72133 4.79322 6.44021 5.08489C6.15909 5.37655 6.00116 5.77214 6.00116 6.18462C6.00116 6.5971 6.15909 6.99269 6.44021 7.28436C6.72133 7.57603 7.10261 7.73989 7.50018 7.73989V8.77673H6.50083C6.36831 8.77673 6.24122 8.83135 6.14751 8.92857C6.0538 9.02579 6.00116 9.15766 6.00116 9.29515C6.00116 9.43264 6.0538 9.56451 6.14751 9.66173C6.24122 9.75895 6.36831 9.81357 6.50083 9.81357H7.50018C7.50018 9.95107 7.55282 10.0829 7.64653 10.1802C7.74024 10.2774 7.86733 10.332 7.99985 10.332C8.13237 10.332 8.25947 10.2774 8.35317 10.1802C8.44688 10.0829 8.49953 9.95107 8.49953 9.81357C8.89709 9.81357 9.27837 9.64971 9.55949 9.35805C9.84061 9.06638 9.99854 8.67079 9.99854 8.25831C9.99854 7.84583 9.84061 7.45024 9.55949 7.15857C9.27837 6.8669 8.89709 6.70304 8.49953 6.70304V5.6662H9.49887C9.63139 5.6662 9.75849 5.61158 9.85219 5.51436C9.9459 5.41714 9.99854 5.28527 9.99854 5.14778C9.99854 5.01029 9.9459 4.87842 9.85219 4.7812C9.75849 4.68398 9.63139 4.62936 9.49887 4.62936H8.49953ZM8.9992 8.25831C8.9992 8.3958 8.94656 8.52766 8.85285 8.62489C8.75914 8.72211 8.63205 8.77673 8.49953 8.77673V7.73989C8.63205 7.73989 8.75914 7.7945 8.85285 7.89173C8.94656 7.98895 8.9992 8.12081 8.9992 8.25831ZM7.50018 6.70304C7.36766 6.70304 7.24056 6.64842 7.14686 6.5512C7.05315 6.45398 7.00051 6.32212 7.00051 6.18462C7.00051 6.04713 7.05315 5.91527 7.14686 5.81804C7.24056 5.72082 7.36766 5.6662 7.50018 5.6662V6.70304ZM10.9979 3.59252C11.0637 3.59291 11.1288 3.57983 11.1897 3.55404C11.2506 3.52824 11.306 3.49022 11.3527 3.44217L11.9972 2.76823V5.6662C11.9972 5.8037 12.0499 5.93556 12.1436 6.03278C12.2373 6.13 12.3644 6.18462 12.4969 6.18462C12.6294 6.18462 12.7565 6.13 12.8502 6.03278C12.9439 5.93556 12.9966 5.8037 12.9966 5.6662V2.76823L13.6412 3.43699C13.7368 3.52192 13.8597 3.5663 13.9855 3.56126C14.1112 3.55622 14.2305 3.50213 14.3195 3.40981C14.4085 3.31748 14.4606 3.19371 14.4655 3.06324C14.4703 2.93276 14.4276 2.80519 14.3457 2.70602L12.8467 1.15075C12.7531 1.0542 12.6264 1 12.4944 1C12.3624 1 12.2358 1.0542 12.1421 1.15075L10.6431 2.70602C10.5727 2.77853 10.5246 2.87117 10.5051 2.97213C10.4856 3.07309 10.4955 3.1778 10.5335 3.2729C10.5716 3.368 10.6361 3.44919 10.7188 3.50611C10.8015 3.56304 10.8986 3.59312 10.9979 3.59252Z" />
</svg>
