<svg width="16" height="16" viewBox="0 0 16 16" xmlns="http://www.w3.org/2000/svg">
<path d="M13.25 1H2.75C1.78387 1.0009 1.0009 1.78387 1 2.75V4.23955C1.00068 4.72606 1.2032 5.19043 1.55918 5.52202L5.9 9.55244V14.65C5.9 14.8433 6.05671 15 6.25 15C6.29452 15.0001 6.33865 14.9915 6.37988 14.9747L9.87988 13.5747C10.0129 13.5219 10.1002 13.3931 10.1 13.25V9.55244L14.4415 5.52193C14.7971 5.19013 14.9992 4.72589 15 4.23955V2.75C14.9991 1.78387 14.2161 1.0009 13.25 1ZM9.51211 9.14365C9.44059 9.2097 9.39996 9.30263 9.4 9.4V13.0128L6.6 14.1332V9.4C6.60004 9.30263 6.55941 9.2097 6.48789 9.14365L2.24102 5.2H13.7596L9.51211 9.14365ZM14.3 4.23955C14.2998 4.32863 14.2849 4.41528 14.263 4.5H1.73704C1.71517 4.41528 1.70017 4.32863 1.7 4.23955V2.75C1.70064 2.17036 2.17036 1.70064 2.75 1.7H13.25C13.8296 1.70064 14.2994 2.17036 14.3 2.75V4.23955Z" />
</svg>
