<svg width="16" height="16" viewBox="0 0 16 16" xmlns="http://www.w3.org/2000/svg">
<path d="M13.4833 1H2.51667C2.11461 1.00069 1.7292 1.17931 1.4449 1.49673C1.16061 1.81414 1.00062 2.24445 1 2.69334V4.91812C1.00062 5.36701 1.16061 5.79732 1.4449 6.11474C1.7292 6.43215 2.11461 6.61077 2.51667 6.61146H13.4833C13.8854 6.61077 14.2708 6.43215 14.5551 6.11474C14.8394 5.79732 14.9994 5.36701 15 4.91812V2.69334C14.9994 2.24445 14.8394 1.81414 14.5551 1.49673C14.2708 1.17931 13.8854 1.00069 13.4833 1ZM14.0667 4.9077C14.0667 5.08044 14.0052 5.24609 13.8958 5.36823C13.7864 5.49037 13.638 5.55899 13.4833 5.55899H2.51667C2.36356 5.55901 2.21658 5.49182 2.10745 5.37193C1.99832 5.25204 1.93578 5.08904 1.93333 4.91812V2.69334C1.93333 2.52061 1.99479 2.35495 2.10419 2.23281C2.21358 2.11067 2.36196 2.04205 2.51667 2.04205H13.4833C13.638 2.04205 13.7864 2.11067 13.8958 2.23281C14.0052 2.35495 14.0667 2.52061 14.0667 2.69334V4.9077ZM13.7167 7.95311H2.28333C2.15957 7.95311 2.04087 8.008 1.95335 8.10571C1.86583 8.20342 1.81667 8.33595 1.81667 8.47413C1.81667 8.61232 1.86583 8.74485 1.95335 8.84256C2.04087 8.94027 2.15957 8.99516 2.28333 8.99516H13.7167C13.8404 8.99516 13.9591 8.94027 14.0466 8.84256C14.1342 8.74485 14.1833 8.61232 14.1833 8.47413C14.1833 8.33595 14.1342 8.20342 14.0466 8.10571C13.9591 8.008 13.8404 7.95311 13.7167 7.95311ZM12.774 10.9568H3.226C3.10223 10.9568 2.98353 11.0117 2.89602 11.1094C2.8085 11.2071 2.75933 11.3397 2.75933 11.4779C2.75933 11.616 2.8085 11.7486 2.89602 11.8463C2.98353 11.944 3.10223 11.9989 3.226 11.9989H12.774C12.8978 11.9989 13.0165 11.944 13.104 11.8463C13.1915 11.7486 13.2407 11.616 13.2407 11.4779C13.2407 11.3397 13.1915 11.2071 13.104 11.1094C13.0165 11.0117 12.8978 10.9568 12.774 10.9568ZM11.472 13.9579H4.53033C4.40657 13.9579 4.28787 14.0128 4.20035 14.1106C4.11283 14.2083 4.06367 14.3408 4.06367 14.479C4.06367 14.6172 4.11283 14.7497 4.20035 14.8474C4.28787 14.9451 4.40657 15 4.53033 15H11.472C11.5958 15 11.7145 14.9451 11.802 14.8474C11.8895 14.7497 11.9387 14.6172 11.9387 14.479C11.9387 14.3408 11.8895 14.2083 11.802 14.1106C11.7145 14.0128 11.5958 13.9579 11.472 13.9579Z" />
</svg>
