<svg width="16" height="16" viewBox="0 0 16 16" xmlns="http://www.w3.org/2000/svg">
<circle cx="8" cy="8" r="8" />
<path d="M4.1813 12.3215C5.37227 11.9672 8.27769 11.0856 9.69439 10.647C10.0641 10.5541 10.391 10.2511 10.5115 9.88944C11.0559 8.50991 12.1544 5.67938 12.5976 4.51857C12.759 4.11901 12.5603 3.74082 12.1788 3.65711C12.0756 3.62778 11.9316 3.63633 11.8188 3.67849C10.9255 3.94423 7.83524 4.87219 6.30567 5.35298C5.93592 5.44583 5.60907 5.74886 5.48856 6.11054L3.37129 11.4478C3.20992 11.8474 3.40859 12.2256 3.7901 12.3093C3.92442 12.3722 4.03728 12.33 4.1813 12.3215Z" />
<circle cx="8" cy="8" r="1" />
</svg>
