<svg width="16" height="16" viewBox="0 0 16 16" xmlns="http://www.w3.org/2000/svg">
<path d="M14.1298 4.75443V13.3295C14.1298 13.7257 14.1211 14.1218 14.1298 14.518V14.535L14.5636 14.0708H1.96998C1.79934 14.0708 1.62871 14.0677 1.45808 14.0708H1.43639L1.8702 14.535V5.95999C1.8702 5.56381 1.87888 5.16763 1.8702 4.77145V4.75443L1.43639 5.2187H14.03C14.2007 5.2187 14.3713 5.22025 14.5419 5.2187H14.5636C14.7906 5.2187 15.0076 5.00514 14.9974 4.75443C14.9873 4.50218 14.8066 4.29016 14.5636 4.29016H1.96998C1.79934 4.29016 1.62871 4.28861 1.45808 4.29016H1.43639C1.20213 4.29016 1.00257 4.50218 1.00257 4.75443V13.3295C1.00257 13.7257 0.996787 14.1218 1.00257 14.518V14.535C1.00257 14.7858 1.20068 14.9993 1.43639 14.9993H14.03C14.2007 14.9993 14.3713 15.0009 14.5419 14.9993H14.5636C14.7979 14.9993 14.9974 14.7873 14.9974 14.535V5.95999C14.9974 5.56381 15.0032 5.16763 14.9974 4.77145V4.75443C14.9974 4.51146 14.7979 4.27933 14.5636 4.29016C14.3279 4.301 14.1298 4.49444 14.1298 4.75443Z" />
<path d="M14.5637 4.2917H1.97003C1.7994 4.2917 1.62876 4.28861 1.45813 4.2917H1.43644C1.53911 4.55634 1.64033 4.81942 1.743 5.08406C2.06836 4.71264 2.39517 4.34277 2.72053 3.97136C3.23966 3.38019 3.75879 2.79056 4.27792 2.19939L4.63365 1.79548C4.53098 1.84036 4.42976 1.88679 4.32709 1.93166H10.7692C11.0657 1.93166 11.3636 1.94095 11.6614 1.93166H11.673C11.5703 1.88679 11.4691 1.84036 11.3665 1.79548C11.6918 2.16689 12.0186 2.53676 12.344 2.90818C12.8631 3.49935 13.3822 4.08897 13.9014 4.68014L14.2571 5.08406C14.4133 5.26203 14.7155 5.26512 14.8702 5.08406C15.0336 4.89371 15.0365 4.61669 14.8702 4.42789C14.5752 4.09207 14.2802 3.75624 13.9852 3.42197C13.4864 2.85401 12.986 2.28606 12.4871 1.7181C12.3368 1.54632 12.1864 1.37609 12.0345 1.20431C11.9348 1.09134 11.8364 1.00932 11.6701 1.00313H4.54833C4.44133 1.00313 4.31552 0.989197 4.20996 1.02015C4.03354 1.07277 3.89617 1.27859 3.77614 1.41478L2.37926 3.00258L1.19061 4.35361L1.12554 4.42789C1.00407 4.56562 0.966473 4.76061 1.03588 4.93549C1.1024 5.10417 1.25857 5.22024 1.4321 5.22024H14.0257C14.1964 5.22024 14.367 5.22179 14.5376 5.22024H14.5593C14.7864 5.22024 15.0033 5.00668 14.9931 4.75597C14.9874 4.50372 14.8066 4.2917 14.5637 4.2917Z" />
<path d="M9.19876 4.75442V9.09689C9.41567 8.9638 9.63402 8.82916 9.85093 8.69607C9.36216 8.42215 8.87485 8.14823 8.38608 7.87431C8.32246 7.83872 8.26028 7.80158 8.19665 7.76753C8.03903 7.68242 7.88864 7.69634 7.73825 7.77836C7.70499 7.79539 7.67318 7.81396 7.64137 7.83253C7.35794 7.99193 7.07452 8.15133 6.78964 8.30918C6.55972 8.43763 6.33125 8.56608 6.10133 8.69452C6.31823 8.82761 6.53659 8.96225 6.75349 9.09534V4.75287L6.31968 5.21714H9.63258C9.85961 5.21714 10.0765 5.00358 10.0664 4.75287C10.0563 4.50062 9.87551 4.2886 9.63258 4.2886H6.31968C6.08542 4.2886 5.88586 4.50062 5.88586 4.75287V9.09534C5.88586 9.45902 6.25171 9.65711 6.53803 9.49616C7.02101 9.22534 7.50255 8.95451 7.98553 8.68369L8.19376 8.56762H7.75561C8.23859 8.83845 8.72012 9.10927 9.2031 9.3801L9.41133 9.49616C9.69909 9.65711 10.0635 9.45902 10.0635 9.09534V4.75287C10.0635 4.50991 9.86394 4.27777 9.62968 4.2886C9.39687 4.30098 9.19876 4.49443 9.19876 4.75442Z" />
</svg>
