<svg width="16" height="16" viewBox="0 0 16 16" xmlns="http://www.w3.org/2000/svg">
<path d="M4.29653 4.90247C5.26558 4.19496 6.50807 3.65623 7.99994 3.65623C9.76742 3.65623 11.1827 4.41173 12.213 5.30913C13.2368 6.19915 13.9214 7.24708 14.2452 7.99765C14.3174 8.15966 14.3174 8.34013 14.2452 8.50214C13.9521 9.16453 13.3636 10.0976 12.4974 10.9302L14.7986 12.62C15.0261 12.7882 15.0677 13.0979 14.8883 13.3111C14.7089 13.5244 14.3786 13.5634 14.1511 13.3952L1.20116 3.87956C0.972959 3.71181 0.93295 3.40256 1.11182 3.18858C1.29071 2.97465 1.62058 2.93714 1.84896 3.10483L4.29653 4.90247ZM5.88027 6.06586L7.85556 7.51778C7.94744 7.34347 7.99994 7.1466 7.99994 6.91896C7.99994 6.70159 7.91463 6.48011 7.81619 6.28939C7.87744 6.28323 7.93869 6.26273 7.99994 6.26273C9.1593 6.26273 10.0999 7.14455 10.0999 8.23144C10.0999 8.53085 10.0365 8.79744 9.90523 9.03943L10.7693 9.65876C11.0121 9.2404 11.1499 8.76053 11.1499 8.23144C11.1499 6.61956 9.73898 5.27837 7.99994 5.27837C7.18401 5.27837 6.43808 5.58803 5.88027 6.06586ZM7.99994 12.8436C6.23245 12.8436 4.81715 12.0889 3.78685 11.1907C2.76354 10.2822 2.0793 9.23425 1.7538 8.50214C1.68205 8.34013 1.68205 8.15966 1.7538 7.99765C1.96249 7.52803 2.31883 6.92102 2.81757 6.31194L4.88059 7.83565C4.8609 7.971 4.84996 8.1084 4.84996 8.23144C4.84996 9.88024 6.26089 11.203 7.99994 11.203C8.409 11.203 8.80056 11.1291 9.1593 10.9958L10.7605 12.1771C9.96648 12.579 9.04555 12.8436 7.99994 12.8436Z" />
</svg>
