<svg width="16" height="16" viewBox="0 0 16 16" xmlns="http://www.w3.org/2000/svg">
<path d="M7.76667 5.32817C7.84445 5.32014 7.92223 5.31746 8 5.31746C9.47223 5.31746 10.6667 6.44514 10.6667 7.88889C10.6667 9.30853 9.47223 10.4603 8 10.4603C6.50278 10.4603 5.33334 9.30853 5.33334 7.88889C5.33334 7.81389 5.33611 7.73889 5.34445 7.66389C5.60278 7.78443 5.90278 7.88889 6.22223 7.88889C7.20278 7.88889 8 7.12014 8 6.1746C8 5.86657 7.89167 5.57728 7.76667 5.32817ZM13.35 4.04782C14.65 5.21032 15.5194 6.57907 15.9306 7.55943C16.0222 7.77103 16.0222 8.00675 15.9306 8.21835C15.5194 9.1746 14.65 10.5434 13.35 11.73C12.0417 12.9032 10.2444 13.8889 8 13.8889C5.75556 13.8889 3.95834 12.9032 2.65056 11.73C1.35056 10.5434 0.48167 9.1746 0.0683646 8.21835C-0.0227882 8.00675 -0.0227882 7.77103 0.0683646 7.55943C0.48167 6.57907 1.35056 5.21032 2.65056 4.04782C3.95834 2.87568 5.75556 1.88889 8 1.88889C10.2444 1.88889 12.0417 2.87568 13.35 4.04782ZM8 4.03175C5.79167 4.03175 4 5.75943 4 7.88889C4 10.0184 5.79167 11.746 8 11.746C10.2083 11.746 12 10.0184 12 7.88889C12 5.75943 10.2083 4.03175 8 4.03175Z" />
</svg>
