<svg width="16" height="16" viewBox="0 0 16 16" xmlns="http://www.w3.org/2000/svg">
<path d="M0 2.30312C0 1.58344 0.583438 1 1.30313 1H14.6969C15.4156 1 16 1.58344 16 2.30312C16 2.60312 15.8969 2.89375 15.7063 3.125L10.5 9.51562V13.9906C10.5 14.5469 10.0469 15 9.49063 15C9.2625 15 9.04063 14.9219 8.8625 14.7531L5.97188 12.4875C5.675 12.25 5.5 11.8906 5.5 11.5094V9.51562L0.292906 3.125C0.103469 2.89375 0 2.60312 0 2.30312ZM1.7175 2.5L6.83125 8.775C6.94063 8.90937 7 9.07812 7 9.25V11.3875L9 12.975V9.25C9 9.07812 9.05937 8.90937 9.16875 8.775L14.2812 2.5H1.7175Z" />
</svg>
