<svg width="16" height="16" viewBox="0 0 16 16" xmlns="http://www.w3.org/2000/svg">
<path d="M2.53618 1H7.32072C7.86478 1 8.38324 1.21062 8.76729 1.58594L14.3999 7.08437C15.2 7.86562 15.2 9.13437 14.3999 9.91562L10.1306 14.0844C9.33055 14.8656 8.0312 14.8656 7.23111 14.0844L1.60007 8.58438C1.2158 8.20938 1 7.70312 1 7.17188V2.5C1 1.67156 1.68776 1 2.53618 1ZM4.58441 5.5C5.15087 5.5 5.60853 5.05313 5.60853 4.5C5.60853 3.94687 5.15087 3.5 4.58441 3.5C4.0189 3.5 3.56029 3.94687 3.56029 4.5C3.56029 5.05313 4.0189 5.5 4.58441 5.5Z" />
</svg>
