<svg width="16" height="16" viewBox="0 0 16 16" xmlns="http://www.w3.org/2000/svg">
<path d="M9.5 13.5H4C3.86739 13.5 3.74022 13.4473 3.64645 13.3536C3.55268 13.2598 3.5 13.1326 3.5 13V12.5C3.50078 11.6106 3.76513 10.7413 4.25965 10.002C4.75417 9.26271 5.45668 8.68654 6.27846 8.34628C7.10024 8.00601 8.00442 7.9169 8.87682 8.09021C9.74921 8.26351 10.5507 8.69146 11.18 9.32C11.2757 9.40191 11.3987 9.44471 11.5245 9.43985C11.6504 9.43499 11.7697 9.38283 11.8588 9.29378C11.9478 9.20473 12 9.08536 12.0049 8.95952C12.0097 8.83369 11.9669 8.71065 11.885 8.615C11.3491 8.07584 10.7073 7.65362 10 7.375C10.6115 6.94921 11.0711 6.33938 11.312 5.63426C11.5529 4.92915 11.5625 4.16556 11.3394 3.45462C11.1163 2.74368 10.672 2.12251 10.0714 1.68152C9.47081 1.24052 8.74513 1.00272 8 1.00272C7.25487 1.00272 6.52919 1.24052 5.92857 1.68152C5.32795 2.12251 4.88375 2.74368 4.66062 3.45462C4.43748 4.16556 4.44706 4.92915 4.68796 5.63426C4.92886 6.33938 5.38851 6.94921 6 7.375C4.96851 7.77765 4.08257 8.48228 3.45809 9.39668C2.83362 10.3111 2.49969 11.3927 2.5 12.5V13C2.5 13.3978 2.65804 13.7794 2.93934 14.0607C3.22064 14.342 3.60218 14.5 4 14.5H9.5C9.63261 14.5 9.75979 14.4473 9.85355 14.3536C9.94732 14.2598 10 14.1326 10 14C10 13.8674 9.94732 13.7402 9.85355 13.6464C9.75979 13.5527 9.63261 13.5 9.5 13.5ZM5.5 4.5C5.5 4.00554 5.64662 3.52219 5.92133 3.11107C6.19603 2.69995 6.58648 2.37952 7.04329 2.1903C7.50011 2.00108 8.00277 1.95157 8.48773 2.04803C8.97268 2.1445 9.41814 2.3826 9.76777 2.73223C10.1174 3.08186 10.3555 3.52732 10.452 4.01227C10.5484 4.49722 10.4989 4.99989 10.3097 5.45671C10.1205 5.91352 9.80005 6.30397 9.38893 6.57867C8.9778 6.85337 8.49445 7 8 7C7.33696 7 6.70107 6.73661 6.23223 6.26776C5.76339 5.79892 5.5 5.16304 5.5 4.5V4.5Z" />
<path d="M14.075 10.6C13.9367 10.4279 13.7646 10.2859 13.5695 10.1828C13.3743 10.0796 13.1601 10.0174 12.94 9.99999C12.6098 9.97829 12.2811 10.0605 12 10.235C11.7194 10.0592 11.3903 9.97691 11.06 9.99999C10.8403 10.0168 10.6263 10.0782 10.4312 10.1805C10.236 10.2828 10.0638 10.4238 9.92499 10.595C9.63994 10.9619 9.49152 11.4166 9.5052 11.881C9.51889 12.3454 9.69383 12.7905 9.99999 13.14L11.405 14.725C11.4796 14.8117 11.5721 14.8813 11.6761 14.9289C11.7801 14.9766 11.8931 15.0013 12.0075 15.0013C12.1219 15.0013 12.2349 14.9766 12.3389 14.9289C12.4429 14.8813 12.5354 14.8117 12.61 14.725L14 13.14C14.3049 12.7909 14.479 12.3467 14.4927 11.8834C14.5064 11.4201 14.3587 10.9665 14.075 10.6ZM13.26 12.5L12 13.895L10.74 12.5C10.5932 12.3291 10.5084 12.1137 10.4994 11.8887C10.4903 11.6636 10.5575 11.4421 10.69 11.26C10.7424 11.1926 10.8081 11.1366 10.8828 11.0953C10.9576 11.054 11.04 11.0284 11.125 11.02H11.165C11.3142 11.0233 11.4568 11.0822 11.565 11.185C11.6836 11.2922 11.8377 11.3515 11.9975 11.3515C12.1573 11.3515 12.3114 11.2922 12.43 11.185C12.4884 11.1295 12.5576 11.0866 12.6333 11.0591C12.709 11.0315 12.7896 11.0199 12.87 11.025C12.955 11.0334 13.0374 11.059 13.1121 11.1003C13.1869 11.1416 13.2525 11.1976 13.305 11.265C13.437 11.4461 13.5043 11.6663 13.4961 11.8903C13.4879 12.1142 13.4048 12.329 13.26 12.5Z" />
</svg>
