<svg width="16" height="16" viewBox="0 0 16 16" xmlns="http://www.w3.org/2000/svg">
<path d="M4.66667 10.6667C4.93188 10.6667 5.18624 10.5613 5.37377 10.3738C5.56131 10.1862 5.66667 9.93189 5.66667 9.66668C5.66992 9.63342 5.66992 9.59993 5.66667 9.56668L7.52667 7.70668H7.68H7.83333L8.90667 8.78001C8.90667 8.78001 8.90667 8.81334 8.90667 8.83334C8.90667 9.09856 9.01202 9.35291 9.19956 9.54045C9.3871 9.72799 9.64145 9.83334 9.90667 9.83334C10.1719 9.83334 10.4262 9.72799 10.6138 9.54045C10.8013 9.35291 10.9067 9.09856 10.9067 8.83334V8.78001L13.3333 6.33334C13.5311 6.33334 13.7245 6.27469 13.8889 6.16481C14.0534 6.05493 14.1815 5.89875 14.2572 5.71603C14.3329 5.5333 14.3527 5.33223 14.3141 5.13825C14.2755 4.94427 14.1803 4.76609 14.0404 4.62624C13.9006 4.48638 13.7224 4.39114 13.5284 4.35256C13.3344 4.31397 13.1334 4.33378 12.9507 4.40946C12.7679 4.48515 12.6117 4.61332 12.5019 4.77777C12.392 4.94222 12.3333 5.13556 12.3333 5.33334C12.3301 5.3666 12.3301 5.40009 12.3333 5.43334L9.92667 7.84001H9.82L8.66667 6.66668C8.66667 6.40146 8.56131 6.14711 8.37377 5.95957C8.18624 5.77203 7.93188 5.66668 7.66667 5.66668C7.40145 5.66668 7.1471 5.77203 6.95956 5.95957C6.77202 6.14711 6.66667 6.40146 6.66667 6.66668L4.66667 8.66668C4.40145 8.66668 4.1471 8.77203 3.95956 8.95957C3.77202 9.14711 3.66667 9.40146 3.66667 9.66668C3.66667 9.93189 3.77202 10.1862 3.95956 10.3738C4.1471 10.5613 4.40145 10.6667 4.66667 10.6667ZM13.6667 13.3333H2.33333V2.00001C2.33333 1.8232 2.2631 1.65363 2.13807 1.52861C2.01305 1.40358 1.84348 1.33334 1.66667 1.33334C1.48986 1.33334 1.32029 1.40358 1.19526 1.52861C1.07024 1.65363 1 1.8232 1 2.00001V14C1 14.1768 1.07024 14.3464 1.19526 14.4714C1.32029 14.5964 1.48986 14.6667 1.66667 14.6667H13.6667C13.8435 14.6667 14.013 14.5964 14.1381 14.4714C14.2631 14.3464 14.3333 14.1768 14.3333 14C14.3333 13.8232 14.2631 13.6536 14.1381 13.5286C14.013 13.4036 13.8435 13.3333 13.6667 13.3333Z" />
</svg>
