<svg width="16" height="16" viewBox="0 0 16 16" xmlns="http://www.w3.org/2000/svg">
<path d="M0 3C0 1.89531 0.895313 1 2 1H14C15.1031 1 16 1.89531 16 3V13C16 14.1031 15.1031 15 14 15H2C0.895313 15 0 14.1031 0 13V3ZM11.25 5.25H14.5V3C14.5 2.72375 14.275 2.5 14 2.5H11.25V5.25ZM9.75 2.5H6.25V5.25H9.75V2.5ZM4.75 2.5H2C1.72375 2.5 1.5 2.72375 1.5 3V5.25H4.75V2.5ZM1.5 6.75V9.25H4.75V6.75H1.5ZM1.5 10.75V13C1.5 13.275 1.72375 13.5 2 13.5H4.75V10.75H1.5ZM6.25 13.5H9.75V10.75H6.25V13.5ZM11.25 13.5H14C14.275 13.5 14.5 13.275 14.5 13V10.75H11.25V13.5ZM14.5 9.25V6.75H11.25V9.25H14.5ZM9.75 9.25V6.75H6.25V9.25H9.75Z" />
</svg>
