<svg width="16" height="16" viewBox="0 0 16 16" xmlns="http://www.w3.org/2000/svg">
<path d="M7.99781 9.5625C9.25366 9.5625 10.2531 8.60766 10.2531 7.42969C10.2531 6.25172 9.23506 5.29688 7.99781 5.29688C6.74197 5.29688 5.7425 6.25172 5.7425 7.42969C5.72281 8.60684 6.74219 9.5625 7.99781 9.5625ZM9.09156 10.2188H6.90844C5.19125 10.2188 3.8 11.4431 3.8 12.9524C3.8 13.256 4.07781 13.5 4.42125 13.5H11.5787C11.9222 13.5 12.2 13.256 12.2 12.9524C12.2 11.4431 10.8087 10.2188 9.09156 10.2188ZM12.2 6.28125C13.1664 6.28125 13.95 5.54666 13.95 4.64062C13.95 3.73459 13.1669 3 12.2 3C11.2336 3 10.45 3.73459 10.45 4.64062C10.45 5.54666 11.2331 6.28125 12.2 6.28125ZM5.02281 7.42969C5.02281 7.31794 5.0443 7.21169 5.05801 7.10341C4.81937 6.98057 4.55687 6.9375 4.27906 6.9375H2.92675C1.86275 6.9375 1 7.79473 1 8.85088C1 9.06211 1.17253 9.23438 1.38544 9.23438H5.7495C5.30281 8.74629 5.02281 8.1208 5.02281 7.42969ZM3.8 6.28125C4.76644 6.28125 5.55 5.54666 5.55 4.64062C5.55 3.73459 4.76687 3 3.8 3C2.83356 3 2.05 3.73459 2.05 4.64062C2.05 5.54666 2.83356 6.28125 3.8 6.28125ZM13.0728 6.9375H11.7201C11.4401 6.9375 11.1758 6.99978 10.9356 7.10648C10.9488 7.21436 10.9706 7.31895 10.9706 7.42969C10.9706 8.12101 10.6911 8.74649 10.2453 9.23438H14.6137C14.8272 9.23438 15 9.06211 15 8.85088C15 7.79473 14.1381 6.9375 13.0728 6.9375Z" />
</svg>
