<svg width="16" height="16" viewBox="0 0 16 16" xmlns="http://www.w3.org/2000/svg">
<path d="M7.97539 3.4724L8.30352 3.14482C9.21953 2.25205 10.4883 1.84572 11.7352 2.05326C13.6191 2.36716 15 3.9974 15 5.90873V6.06732C15 7.20208 14.5297 8.28763 13.6984 9.06146L8.75742 13.6744C8.55234 13.8658 8.28164 13.9724 8 13.9724C7.71836 13.9724 7.44766 13.8658 7.24258 13.6744L2.30129 9.06146C1.47113 8.28763 1 7.20208 1 6.06732V5.90873C1 3.9974 2.38141 2.36716 4.26484 2.05326C5.48711 1.84572 6.78047 2.25205 7.67188 3.14482L7.97539 3.4724ZM7.97539 4.71107L7.05391 3.76224C6.36211 3.07072 5.375 2.75517 4.40977 2.91623C2.94715 3.16013 1.85039 4.42669 1.85039 5.90873V6.06732C1.85039 6.96146 2.24551 7.81185 2.8982 8.42162L7.83867 13.0345C7.88242 13.0755 7.93984 13.0974 7.97539 13.0974C8.06016 13.0974 8.11758 13.0755 8.16133 13.0345L13.1023 8.42162C13.7531 7.81185 14.125 6.96146 14.125 6.06732V5.90873C14.125 4.42669 13.0531 3.16013 11.5902 2.91623C10.6004 2.75517 9.63789 3.07072 8.94609 3.76224L7.97539 4.71107Z" />
</svg>
