<svg width="16" height="16" viewBox="0 0 16 16" xmlns="http://www.w3.org/2000/svg">
<path d="M12.3077 15H3.69231C2.20788 15 1 13.7921 1 12.3077V3.69231C1 2.20788 2.20788 1 3.69231 1H12.3077C13.7921 1 15 2.20788 15 3.69231V12.3077C15 13.7921 13.7921 15 12.3077 15ZM3.69231 2.07692C2.80153 2.07692 2.07692 2.80153 2.07692 3.69231V12.3077C2.07692 13.1985 2.80153 13.9231 3.69231 13.9231H12.3077C13.1985 13.9231 13.9231 13.1985 13.9231 12.3077V3.69231C13.9231 2.80153 13.1985 2.07692 12.3077 2.07692H3.69231Z" />
<path d="M8.5385 10.6923H7.46157V9.61538C7.46157 8.4572 8.239 7.61112 8.864 6.9312C9.23338 6.52924 9.61542 6.11328 9.61542 5.84615C9.61542 4.51103 8.73703 4.23076 8.00003 4.23076C7.31296 4.23076 6.503 4.47436 6.39644 5.58914C6.38276 5.73215 6.27179 5.84615 6.12813 5.84615H5.58783C5.43496 5.84615 5.30665 5.71751 5.31747 5.56502C5.44304 3.79385 6.762 3.15384 8.00003 3.15384C9.3015 3.15384 10.6923 3.86111 10.6923 5.84615C10.6923 6.53317 10.1894 7.0803 9.65672 7.65979C9.10695 8.25819 8.5385 8.87682 8.5385 9.61538V10.6923ZM8.26926 12.8461H7.7308C7.58213 12.8461 7.46157 12.7256 7.46157 12.5769V12.0385C7.46157 11.8898 7.58213 11.7692 7.7308 11.7692H8.26926C8.41793 11.7692 8.5385 11.8898 8.5385 12.0385V12.5769C8.5385 12.7256 8.41793 12.8461 8.26926 12.8461Z" />
</svg>
