<svg width="16" height="16" viewBox="0 0 16 16" xmlns="http://www.w3.org/2000/svg">
<path d="M7.35779 1.14129C7.76523 0.952905 8.23557 0.952905 8.64301 1.14129L14.6207 3.90396C14.8531 4.0106 15.0008 4.24304 15.0008 4.47547C15.0008 4.7544 14.8531 4.98683 14.6207 5.09621L8.64301 7.85809C8.23557 8.04677 7.76523 8.04677 7.35779 7.85809L1.38092 5.09621C1.1487 4.98683 1 4.7544 1 4.47547C1 4.24304 1.14868 4.0106 1.38092 3.90396L7.35779 1.14129ZM14.6207 7.40416C14.8531 7.5108 15.0008 7.74324 15.0008 7.97567C15.0008 8.2546 14.8531 8.48703 14.6207 8.59641L8.64301 11.3583C8.23557 11.547 7.76523 11.547 7.35779 11.3583L1.38092 8.59641C1.1487 8.48703 1 8.2546 1 7.97567C1 7.74324 1.14868 7.5108 1.38092 7.40416L2.83569 6.73146L6.99136 8.6511C7.63124 8.94917 8.36956 8.94917 9.00944 8.6511L13.1659 6.73146L14.6207 7.40416ZM9.00944 12.1513L13.1659 10.2317L14.6207 10.9044C14.8531 11.011 15.0008 11.2434 15.0008 11.4759C15.0008 11.7548 14.8531 11.9872 14.6207 12.0966L8.64301 14.8585C8.23557 15.0472 7.76523 15.0472 7.35779 14.8585L1.38092 12.0966C1.1487 11.9872 1 11.7548 1 11.4759C1 11.2434 1.14868 11.011 1.38092 10.9044L2.83569 10.2317L6.99136 12.1513C7.63124 12.4494 8.36956 12.4494 9.00944 12.1513Z" />
</svg>
