<svg width="14" height="16" viewBox="0 0 14 16" xmlns="http://www.w3.org/2000/svg">
<path d="M13.9719 8C13.9719 8.55312 13.5531 9 13 9H3.41562L6.70937 12.2937C7.1 12.6844 7.1 13.3172 6.70937 13.7078C6.5125 13.9031 6.25625 14 6 14C5.74375 14 5.48812 13.9023 5.29312 13.707L0.293121 8.70703C-0.0975037 8.31641 -0.0975037 7.68359 0.293121 7.29297L5.29312 2.29297C5.68375 1.90234 6.31656 1.90234 6.70718 2.29297C7.09781 2.68359 7.09781 3.31641 6.70718 3.70703L3.41562 7H13C13.5531 7 13.9719 7.44688 13.9719 8Z" />
</svg>
