<svg width="16" height="16" viewBox="0 0 16 16" xmlns="http://www.w3.org/2000/svg">
<path d="M7 1C7 0.447812 7.44687 0 8 0C8.55313 0 9 0.447812 9 1V2.5C9 3.05219 8.55313 3.5 8 3.5C7.44687 3.5 7 3.05219 7 2.5V1ZM11 8C11 9.65625 9.65625 11 8 11C6.31562 11 5 9.65625 5 8C5 6.31562 6.31562 5 8 5C9.65625 5 11 6.31562 11 8ZM0 8C0 7.44687 0.447812 7 1 7H2.5C3.05219 7 3.5 7.44687 3.5 8C3.5 8.55313 3.05219 9 2.5 9H1C0.447812 9 0 8.55313 0 8ZM15 7C15.5531 7 16 7.44687 16 8C16 8.55313 15.5531 9 15 9H13.5C12.9469 9 12.5 8.55313 12.5 8C12.5 7.44687 12.9469 7 13.5 7H15ZM8 16C7.44687 16 7 15.5531 7 15V13.5C7 12.9469 7.44687 12.5 8 12.5C8.55313 12.5 9 12.9469 9 13.5V15C9 15.5531 8.55313 16 8 16ZM2.29281 13.7063C1.9025 13.3156 1.9025 12.6844 2.29281 12.2937L3.29375 11.2937C3.68438 10.9031 4.31563 10.9031 4.70625 11.2937C5.09688 11.6844 5.09688 12.3156 4.70625 12.7063L3.70625 13.7063C3.31562 14.0969 2.68344 14.0969 2.29281 13.7063ZM12.2937 2.29281C12.6844 1.9025 13.3156 1.9025 13.7063 2.29281C14.0969 2.68344 14.0969 3.31562 13.7063 3.70625L12.7063 4.70625C12.3156 5.09688 11.6844 5.09688 11.2937 4.70625C10.9031 4.31563 10.9031 3.68438 11.2937 3.29375L12.2937 2.29281ZM13.7063 13.7063C13.3156 14.0969 12.6844 14.0969 12.2937 13.7063L11.2937 12.7063C10.9031 12.3156 10.9031 11.6844 11.2937 11.2937C11.6844 10.9031 12.3156 10.9031 12.7063 11.2937L13.7063 12.2937C14.0969 12.6844 14.0969 13.3156 13.7063 13.7063ZM2.29281 3.70625C1.9025 3.31562 1.9025 2.68344 2.29281 2.29281C2.68344 1.9025 3.31562 1.9025 3.70625 2.29281L4.70625 3.29375C5.09688 3.68438 5.09688 4.31563 4.70625 4.70625C4.31563 5.09688 3.68438 5.09688 3.29375 4.70625L2.29281 3.70625Z" />
</svg>
