<svg width="16" height="17" viewBox="0 0 16 17" xmlns="http://www.w3.org/2000/svg">
<g clip-path="url(#clip0_887_65611)">
<path d="M8.96994 5.99937C8.96994 5.91503 8.98986 5.83069 9.02988 5.75469C9.54929 4.76937 9.80977 3.71125 9.80977 3.39594C9.80977 3.02406 9.53789 2.5 8.93262 2.5C8.44336 2.5 8.3584 2.65469 8.08916 3.525C7.57221 5.20506 7.19838 5.58754 6.2553 6.55244C6.03379 6.77908 5.78087 7.03785 5.4873 7.35313L8.96994 5.99937ZM8.96994 5.99937C8.9707 6.29688 9.19922 6.5 9.43945 6.5M8.96994 5.99937L9.43945 6.5M5.56049 7.42127L5.56026 7.42152C5.4508 7.53828 5.30439 7.6 5.15625 7.6C4.84839 7.6 4.5875 7.33592 4.5875 7C4.5875 6.77759 4.71865 6.59009 4.89327 6.40432C4.98193 6.30999 5.08687 6.21108 5.20047 6.10466C5.20811 6.09749 5.2158 6.09029 5.22353 6.08305C5.33139 5.98205 5.4476 5.87323 5.56923 5.75159C6.08806 5.23275 6.7056 4.48075 7.10501 3.18339L7.10868 3.17146C7.22985 2.77691 7.36536 2.33566 7.62688 1.99441C7.89729 1.64155 8.29814 1.4 8.93262 1.4C10.1338 1.4 10.849 2.42146 10.847 3.39594C10.847 3.39601 10.847 3.39608 10.847 3.39616L10.747 3.39594C10.747 3.81167 10.5618 4.58982 10.2362 5.4L5.56049 7.42127ZM5.56049 7.42127C5.85314 7.10698 6.10491 6.84938 6.3263 6.62287C6.39609 6.55146 6.46286 6.48315 6.52694 6.41712C6.7936 6.14235 7.0142 5.90665 7.20683 5.65652C7.59472 5.15284 7.86374 4.59764 8.18474 3.55441C8.25207 3.33676 8.3069 3.16715 8.35888 3.03407C8.41109 2.90041 8.45798 2.81021 8.50696 2.74798C8.55388 2.68836 8.60324 2.6537 8.66507 2.63224C8.73022 2.60963 8.81402 2.6 8.93262 2.6C9.20278 2.6 9.3943 2.71554 9.52043 2.87142C9.64892 3.03021 9.70977 3.2317 9.70977 3.39594C9.70977 3.53776 9.64862 3.86902 9.51894 4.29493C9.39039 4.71713 9.19767 5.22195 8.94142 5.70806L8.9414 5.7081C8.89355 5.79897 8.86994 5.89938 8.86994 5.99937L8.86994 5.99963C8.87084 6.35125 9.14308 6.6 9.43945 6.6H13.1982C13.6146 6.6 13.9625 6.96155 13.9625 7.42188C13.9625 7.85338 13.6444 8.20624 13.2502 8.23463L13.2501 8.23464C12.944 8.25707 12.7206 8.52715 12.7206 8.83313C12.7206 9.03983 12.812 9.16355 12.8915 9.27125C12.8999 9.28261 12.9082 9.2938 12.9162 9.30489C12.9971 9.41686 13.0739 9.54071 13.0739 9.79031C13.0739 10.1889 12.8073 10.5242 12.4505 10.595L12.4503 10.5951C12.2427 10.6365 11.9873 10.8379 11.9873 11.1853C11.9873 11.3363 12.0385 11.4368 12.0833 11.5248C12.0879 11.5339 12.0925 11.5429 12.0969 11.5518C12.1424 11.6427 12.1855 11.7417 12.1855 11.9216C12.1855 12.147 12.1322 12.2899 12.06 12.3904C11.9864 12.4929 11.8865 12.5608 11.7739 12.6259C11.7541 12.6373 11.7333 12.6489 11.7121 12.6608C11.6196 12.7126 11.5176 12.7697 11.4382 12.8441C11.3324 12.9432 11.2624 13.0745 11.2624 13.2669C11.2624 13.3274 11.2714 13.3741 11.2793 13.4149C11.28 13.4187 11.2808 13.4225 11.2815 13.4262C11.2896 13.4685 11.2971 13.5123 11.2971 13.5796L5.56049 7.42127ZM9.43945 6.5H13.1982M9.43945 6.5H13.1982M13.1982 6.5C13.6758 6.5 14.0625 6.9125 14.0625 7.42188M13.1982 6.5L14.0625 7.42188M14.0625 7.42188C14.0625 7.90094 13.7086 8.30188 13.2574 8.33437L14.0625 7.42188ZM13.1982 5.4H10.3438L11.3971 13.5797C11.3965 14.0875 11.0098 14.5 10.5322 14.5H8.90332C7.28959 14.5 6.41227 13.5975 5.83613 13.0048C5.55447 12.7151 5.34479 12.4994 5.15625 12.4994C4.8963 12.4994 4.6875 12.7242 4.6875 12.9981L4.58763 12.993C4.58759 12.9939 4.58754 12.9948 4.5875 12.9957C4.58366 13.0867 4.62114 13.1925 4.67733 13.299C4.73587 13.4101 4.82203 13.5355 4.93114 13.6682C5.14956 13.934 5.46588 14.2363 5.85522 14.5215C6.63299 15.091 7.71386 15.6 8.90332 15.6H10.5331C11.5703 15.6 12.4067 14.7172 12.4342 13.634C12.9814 13.2693 13.3234 12.6234 13.3234 11.9209C13.3234 11.7876 13.3103 11.6543 13.2851 11.5237C13.8475 11.1668 14.2119 10.5151 14.2119 9.78938C14.2119 9.58128 14.1815 9.37627 14.1224 9.1809C14.709 8.83468 15.1 8.17078 15.1 7.42188C15.1 6.31345 14.2526 5.4 13.1982 5.4ZM2.57812 6.4H1.17188C0.464439 6.4 -0.1 7.01026 -0.1 7.75V14.25C-0.1 14.9897 0.464439 15.6 1.17188 15.6H2.57812C3.2868 15.6 3.85 14.9897 3.85 14.25V7.75C3.85 7.01032 3.2868 6.4 2.57812 6.4ZM2.7125 14.25C2.7125 14.3385 2.64604 14.4 2.57812 14.4H1.17188C1.10396 14.4 1.0375 14.3385 1.0375 14.25V7.75C1.0375 7.66147 1.10396 7.6 1.17188 7.6H2.57812C2.64604 7.6 2.7125 7.66147 2.7125 7.75V14.25Z" stroke="#585C7B" stroke-width="0.2"/>
</g>
<defs>
<clipPath id="clip0_887_65611">
<rect width="16" height="16" transform="translate(0 0.5)"/>
</clipPath>
</defs>
</svg>
