<svg width="16" height="16" viewBox="0 0 16 16" xmlns="http://www.w3.org/2000/svg">
<path d="M1 3.35484C1 2.60657 1.60657 2 2.35484 2C3.1031 2 3.70968 2.60657 3.70968 3.35484C3.70968 4.10282 3.1031 4.70968 2.35484 4.70968C1.60657 4.70968 1 4.10282 1 3.35484ZM14.0968 2.45161C14.5964 2.45161 15 2.85609 15 3.35484C15 3.85444 14.5964 4.25806 14.0968 4.25806H5.96774C5.46815 4.25806 5.06452 3.85444 5.06452 3.35484C5.06452 2.85609 5.46815 2.45161 5.96774 2.45161H14.0968ZM14.0968 6.96774C14.5964 6.96774 15 7.37137 15 7.87097C15 8.37056 14.5964 8.77419 14.0968 8.77419H5.96774C5.46815 8.77419 5.06452 8.37056 5.06452 7.87097C5.06452 7.37137 5.46815 6.96774 5.96774 6.96774H14.0968ZM14.0968 11.4839C14.5964 11.4839 15 11.8875 15 12.3871C15 12.8867 14.5964 13.2903 14.0968 13.2903H5.96774C5.46815 13.2903 5.06452 12.8867 5.06452 12.3871C5.06452 11.8875 5.46815 11.4839 5.96774 11.4839H14.0968ZM1 12.3871C1 11.6391 1.60657 11.0323 2.35484 11.0323C3.1031 11.0323 3.70968 11.6391 3.70968 12.3871C3.70968 13.1351 3.1031 13.7419 2.35484 13.7419C1.60657 13.7419 1 13.1351 1 12.3871ZM3.70968 7.87097C3.70968 8.61895 3.1031 9.22581 2.35484 9.22581C1.60657 9.22581 1 8.61895 1 7.87097C1 7.12298 1.60657 6.51613 2.35484 6.51613C3.1031 6.51613 3.70968 7.12298 3.70968 7.87097Z" />
</svg>
