<svg width="16" height="16" viewBox="0 0 16 16" xmlns="http://www.w3.org/2000/svg">
<path d="M10.5 6.01557C10.5 7.4004 9.38125 8.52205 8 8.52205C6.61875 8.52205 5.5 7.4004 5.5 6.01557C5.5 4.63073 6.61875 3.50908 8 3.50908C9.38125 3.50908 10.5 4.63073 10.5 6.01557ZM8 5.01297C7.44687 5.01297 7 5.46101 7 6.01557C7 6.57013 7.44687 7.01816 8 7.01816C8.55313 7.01816 9 6.57013 9 6.01557C9 5.46101 8.55313 5.01297 8 5.01297ZM14 6.01557C14 8.7539 10.3437 13.629 8.74062 15.6405C8.35625 16.1198 7.64375 16.1198 7.25938 15.6405C5.62813 13.629 2 8.7539 2 6.01557C2 2.69322 4.68625 0 8 0C11.3125 0 14 2.69322 14 6.01557ZM8 1.50389C5.51562 1.50389 3.5 3.52475 3.5 6.01557C3.5 6.40407 3.64031 7.00563 3.97812 7.80771C4.30562 8.58472 4.77063 9.44319 5.30625 10.3111C6.19375 11.7586 7.225 13.1309 8 14.1522C8.775 13.1309 9.80625 11.7586 10.6938 10.3111C11.2281 9.44319 11.6938 8.58472 12.0219 7.80771C12.3594 7.00563 12.5 6.40407 12.5 6.01557C12.5 3.52475 10.4844 1.50389 8 1.50389Z" />
</svg>
