<svg width="16" height="16" viewBox="0 0 16 16" xmlns="http://www.w3.org/2000/svg">
<path d="M10.9167 4.91493C10.9167 6.24123 9.13993 8.60475 8.35972 9.55696C8.17257 9.81202 7.82743 9.81202 7.64028 9.55696C6.86007 8.60475 5.08333 6.24123 5.08333 4.91493C5.08333 3.30516 6.38854 2 8 2C9.61146 2 10.9167 3.30516 10.9167 4.91493ZM8 5.69225C8.53715 5.69225 8.97222 5.25744 8.97222 4.7206C8.97222 4.18401 8.53715 3.74896 8 3.74896C7.46285 3.74896 7.02778 4.18401 7.02778 4.7206C7.02778 5.25744 7.46285 5.69225 8 5.69225ZM11.3444 6.36754C11.3566 6.33839 11.3688 6.30924 11.3809 6.27766L14.2003 5.15056C14.5844 4.99752 15 5.2793 15 5.69225V12.2703C15 12.5083 14.8542 12.7221 14.633 12.812L11.1111 14.2184V6.86794C11.1962 6.70033 11.274 6.53515 11.3444 6.36754ZM4.65556 6.36754C4.72604 6.53515 4.80382 6.70033 4.88889 6.86794V12.9747L1.7999 14.2111C1.41684 14.3423 1 14.0824 1 13.6694V7.09141C1 6.85336 1.14523 6.61774 1.36677 6.54972L4.34444 5.35946C4.40278 5.70439 4.52187 6.0469 4.65556 6.36754ZM8.96736 10.0428C9.30521 9.64198 9.83507 8.95454 10.3333 8.19423V14.25L5.66667 12.9164V8.19423C6.16493 8.95454 6.69479 9.64198 7.03264 10.0428C7.5309 10.6865 8.4691 10.6865 8.96736 10.0428Z" />
</svg>
