<svg width="16" height="16" viewBox="0 0 16 16" xmlns="http://www.w3.org/2000/svg">
<path d="M5.19603 6.22435C5.09498 6.22445 4.99512 6.20227 4.90332 6.15936C4.81151 6.11645 4.72996 6.05382 4.66429 5.97579L3.32861 4.39238V8.16235C4.05267 8.04906 4.79314 8.18816 5.42946 8.55701V6.22435H5.19603ZM5.89632 6.22435V8.88076C6.53172 9.40885 6.94907 10.1599 7.06589 10.9855C7.18271 11.8111 6.99051 12.6512 6.52727 13.3397H7.99716V6.22435H5.89632ZM10.5649 13.3397V8.64809L8.60034 6.22435H8.46402V13.3397H10.5649ZM11.0317 9.22396V9.72465L11.2542 9.49861L11.0317 9.22396Z" />
<path d="M14.1347 7.24257L13.3837 8.00534L9.92902 3.68892C9.90718 3.66155 9.8796 3.63948 9.84831 3.6243C9.81702 3.60912 9.78279 3.60122 9.74812 3.60116H9.74718L6.00534 3.61492L4.06859 1.25356C4.00586 1.17827 3.92851 1.11695 3.84137 1.07344C3.75423 1.02994 3.65919 1.00518 3.56221 1.00073C3.46522 0.996277 3.36837 1.01222 3.27773 1.04756C3.18708 1.08291 3.1046 1.13689 3.03544 1.20612L2.53544 1.71392C2.41147 1.84114 2.33895 2.01096 2.33221 2.18986C2.32547 2.36875 2.38499 2.54372 2.49903 2.68019L5.01864 5.66699C5.04056 5.69303 5.06776 5.71393 5.09839 5.72826C5.12901 5.74259 5.16233 5.75001 5.19605 5.75H8.82071L11.884 9.52946L11.1001 10.3259C11.0682 10.3593 11.0465 10.4015 11.0379 10.4473C11.0293 10.4931 11.034 10.5404 11.0516 10.5835C11.0691 10.6266 11.0987 10.6635 11.1367 10.6896C11.1746 10.7158 11.2193 10.7301 11.2652 10.7308H14.0663C14.1901 10.7306 14.3087 10.6805 14.3962 10.5916C14.4837 10.5027 14.533 10.3822 14.5331 10.2564V7.41026C14.5325 7.36366 14.5184 7.31827 14.4926 7.2797C14.4669 7.24114 14.4306 7.21108 14.3882 7.19324C14.3458 7.17541 14.2992 7.17058 14.2542 7.17934C14.2091 7.18811 14.1676 7.21009 14.1347 7.24257V7.24257ZM13.1326 13.3397V11.2051H11.2652C11.1856 11.2047 11.1066 11.1905 11.0317 11.1632V13.3397H13.1326ZM14.4164 13.8141H6.14143C5.83738 14.1255 5.47583 14.3728 5.07751 14.5418C4.67919 14.7109 4.25195 14.7984 3.82028 14.7993C3.3886 14.8002 2.961 14.7146 2.56198 14.5472C2.16297 14.3799 1.80039 14.1341 1.49505 13.8241C1.35024 13.8463 1.219 13.9232 1.12752 14.0394C1.03603 14.1556 0.991028 14.3025 1.00149 14.451C1.01195 14.5994 1.0771 14.7383 1.18395 14.8401C1.29079 14.9419 1.43147 14.999 1.57792 15H14.4164C14.5712 15 14.7196 14.9375 14.8291 14.8263C14.9385 14.7151 15 14.5643 15 14.4071C15 14.2498 14.9385 14.099 14.8291 13.9878C14.7196 13.8766 14.5712 13.8141 14.4164 13.8141Z" />
<path d="M3.81372 8.61443C0.078882 8.71262 0.0781816 14.2081 3.81372 14.3067C7.54786 14.2088 7.54856 8.71309 3.81372 8.61443ZM3.96638 12.7236V13.0933H3.66176V12.7257C3.47706 12.7136 3.30226 12.6365 3.16734 12.5078C3.03241 12.379 2.94577 12.2066 2.92226 12.0201L3.39285 11.8958C3.39435 11.9515 3.40685 12.0063 3.42961 12.057C3.45237 12.1077 3.48492 12.1532 3.52533 12.1909C3.56575 12.2285 3.61319 12.2575 3.66486 12.2762C3.71653 12.2949 3.77136 12.3028 3.82609 12.2995C3.88508 12.3088 3.94546 12.2992 3.99881 12.272C4.05216 12.2447 4.09581 12.2013 4.12368 12.1476C4.15154 12.094 4.16222 12.0328 4.15424 11.9727C4.14625 11.9126 4.11999 11.8565 4.07913 11.8123C3.96965 11.717 3.46311 11.5721 3.32656 11.472C2.7773 11.1337 2.97548 10.1563 3.66176 10.1134V9.82784H3.96638V10.1132C4.12386 10.1261 4.27309 10.1901 4.39204 10.2957C4.51098 10.4014 4.59335 10.5431 4.62698 10.6999L4.20751 10.8747C4.12581 10.635 3.9993 10.5152 3.82796 10.5152C3.77496 10.5122 3.72228 10.5253 3.6767 10.553C3.63112 10.5806 3.59472 10.6215 3.57218 10.6703C3.54964 10.7192 3.54199 10.7738 3.55022 10.827C3.55845 10.8803 3.58217 10.9299 3.61834 10.9694C3.74323 11.0716 4.23039 11.2184 4.36601 11.314C4.98459 11.6795 4.69981 12.7179 3.96638 12.7236V12.7236Z" />
</svg>
