<svg width="16" height="16" viewBox="0 0 16 16" xmlns="http://www.w3.org/2000/svg">
<path d="M14.7293 1.11446C14.5215 0.973474 14.2528 0.961498 14.033 1.08539L1.33174 8.30351C1.11452 8.4293 0.986214 8.66445 1.00118 8.91328C1.01615 9.16279 1.17181 9.3825 1.40244 9.47902L5.59842 11.2394V14.3429C5.59842 14.583 5.72972 14.8034 5.94056 14.9188C6.03901 14.9727 6.14576 15 6.23061 15C6.35422 15 6.47799 14.965 6.58616 14.8958L9.62982 12.9418L12.3275 14.0738C12.4092 14.108 12.4956 14.1251 12.582 14.1251C12.6936 14.1251 12.8048 14.0969 12.9044 14.0405C13.081 13.9414 13.2022 13.7654 13.2315 13.5652L14.9832 1.75274C15.0441 1.50422 14.9346 1.25629 14.7293 1.11446ZM11.1081 4.25937L5.98701 9.97148L3.14124 8.78477L11.1081 4.25937ZM6.88752 13.1406V11.7909L8.1589 12.3244L6.88752 13.1406ZM12.0798 12.5363L7.24608 10.5077L13.3936 3.68543L12.0798 12.5363Z" />
</svg>
