<svg width="16" height="16" viewBox="0 0 16 16" xmlns="http://www.w3.org/2000/svg">
<path d="M1 3.875C1 3.39184 1.44781 3 2 3H14C14.5531 3 15 3.39184 15 3.875C15 4.35898 14.5531 4.75 14 4.75H2C1.44781 4.75 1 4.35898 1 3.875ZM1 8.25C1 7.76602 1.44781 7.375 2 7.375H14C14.5531 7.375 15 7.76602 15 8.25C15 8.73398 14.5531 9.125 14 9.125H2C1.44781 9.125 1 8.73398 1 8.25ZM14 13.5H2C1.44781 13.5 1 13.109 1 12.625C1 12.141 1.44781 11.75 2 11.75H14C14.5531 11.75 15 12.141 15 12.625C15 13.109 14.5531 13.5 14 13.5Z" />
</svg>
