<svg width="16" height="16" viewBox="0 0 16 16" xmlns="http://www.w3.org/2000/svg">
<path d="M4.62963 8C4.62963 9.03 3.81718 9.86666 2.81481 9.86666C1.81245 9.86666 1 9.03 1 8C1 6.97 1.81245 6.13333 2.81481 6.13333C3.81718 6.13333 4.62963 6.97 4.62963 8ZM9.81481 8C9.81481 9.03 9.00139 9.86666 8 9.86666C6.99861 9.86666 6.18519 9.03 6.18519 8C6.18519 6.97 6.99861 6.13333 8 6.13333C9.00139 6.13333 9.81481 6.97 9.81481 8ZM11.3704 8C11.3704 6.97 12.1838 6.13333 13.1852 6.13333C14.1866 6.13333 15 6.97 15 8C15 9.03 14.1866 9.86666 13.1852 9.86666C12.1838 9.86666 11.3704 9.03 11.3704 8Z" />
</svg>
