<svg width="65" height="65" viewBox="0 0 65 65" fill="none" xmlns="http://www.w3.org/2000/svg">
<path d="M57.7308 0.5H7.26925C3.53662 0.5 0.5 3.85981 0.5 7.98939V38.6276V43.3937C0.5 47.5232 3.53662 50.883 7.26925 50.883H23.6141L21.6449 61.7766H15.2692C14.5895 61.7766 14.0385 62.3862 14.0385 63.1383C14.0385 63.8904 14.5895 64.5 15.2692 64.5H49.7308C50.4105 64.5 50.9615 63.8904 50.9615 63.1383C50.9615 62.3862 50.4105 61.7766 49.7308 61.7766H43.3551L41.3859 50.883H57.7308C61.4633 50.883 64.5 47.5234 64.5 43.3937V38.6276V7.98939C64.5 3.85981 61.4634 0.5 57.7308 0.5ZM24.1551 61.7766L26.1244 50.883H38.8756L40.8449 61.7766H24.1551ZM62.0385 43.3937C62.0385 46.0216 60.1061 48.1597 57.7308 48.1597H7.26925C4.894 48.1597 2.9615 46.0217 2.9615 43.3937V39.9895H62.0384V43.3937H62.0385ZM62.0385 37.2661H2.9615V34.5427H10.3461C11.0259 34.5427 11.5769 33.9331 11.5769 33.181C11.5769 32.429 11.0259 31.8194 10.3461 31.8194H2.9615V7.98939C2.9615 5.36145 4.89387 3.22336 7.26925 3.22336H57.7308C60.106 3.22336 62.0385 5.36131 62.0385 7.98939V37.2661Z" fill="#9397AD"/>
<path d="M32.4996 41.3511C31.1423 41.3511 30.0381 42.5728 30.0381 44.0744C30.0381 45.5761 31.1423 46.7978 32.4996 46.7978C33.8568 46.7978 34.9611 45.5761 34.9611 44.0744C34.9611 42.5728 33.8568 41.3511 32.4996 41.3511Z" fill="#9397AD"/>
<path d="M42.5762 26.5787L39.9653 23.6901L42.1411 21.283C42.4575 20.933 42.5772 20.4206 42.4538 19.9447C42.3305 19.469 41.9835 19.1047 41.5475 18.9932L30.2337 16.1046C29.8203 15.9993 29.3868 16.1365 29.0866 16.4686C28.7866 16.8006 28.6622 17.2801 28.7576 17.7378L31.3687 30.255C31.4693 30.7372 31.7986 31.1213 32.2287 31.2578C32.659 31.3941 33.1218 31.2616 33.4383 30.9117L35.614 28.5045L38.2248 31.3932C38.4652 31.6591 38.7802 31.792 39.0951 31.792C39.41 31.792 39.7251 31.6591 39.9653 31.3932L42.5762 28.5045C43.0567 27.9728 43.0567 27.1106 42.5762 26.5787ZM39.0951 28.5045L36.4842 25.6159C36.2438 25.35 35.9288 25.217 35.614 25.217C35.2991 25.217 34.984 25.35 34.7437 25.6159L33.268 27.2488L31.5992 19.2484L38.8303 21.0945L37.3545 22.7273C36.8738 23.259 36.8738 24.1213 37.3545 24.6531L39.9653 27.5417L39.0951 28.5045Z" fill="#764AF1"/>
<path d="M27.4334 12.7139L26.2027 11.3522C25.722 10.8204 24.9427 10.8204 24.462 11.3522C23.9814 11.8839 23.9814 12.7461 24.462 13.278L25.6929 14.6397C25.9333 14.9056 26.2483 15.0385 26.5632 15.0385C26.878 15.0385 27.1932 14.9056 27.4334 14.6397C27.914 14.108 27.914 13.2458 27.4334 12.7139Z" fill="#764AF1"/>
<path d="M25.0347 16.4004H23.2942C22.6145 16.4004 22.0635 17.01 22.0635 17.7621C22.0635 18.5141 22.6145 19.1238 23.2942 19.1238H25.0347C25.7145 19.1238 26.2655 18.5141 26.2655 17.7621C26.2655 17.01 25.7145 16.4004 25.0347 16.4004Z" fill="#764AF1"/>
<path d="M27.4338 20.8842C26.9533 20.3524 26.174 20.3524 25.6933 20.8842L24.4625 22.2459C23.9819 22.7776 23.9819 23.6399 24.4625 24.1717C24.7029 24.4376 25.0179 24.5705 25.3328 24.5705C25.6476 24.5705 25.9628 24.4376 26.203 24.1717L27.4338 22.81C27.9144 22.2784 27.9144 21.4161 27.4338 20.8842Z" fill="#764AF1"/>
<path d="M36.0496 11.3522C35.569 10.8204 34.7897 10.8204 34.309 11.3522L33.0782 12.7139C32.5976 13.2456 32.5976 14.1079 33.0782 14.6397C33.3186 14.9056 33.6336 15.0385 33.9486 15.0385C34.2636 15.0385 34.5786 14.9056 34.8189 14.6397L36.0496 13.278C36.5302 12.7464 36.5302 11.8841 36.0496 11.3522Z" fill="#764AF1"/>
<path d="M30.2561 8.69727C29.5764 8.69727 29.0254 9.30688 29.0254 10.0589V11.9846C29.0254 12.7367 29.5764 13.3463 30.2561 13.3463C30.9359 13.3463 31.4869 12.7367 31.4869 11.9846V10.0589C31.4869 9.30688 30.9359 8.69727 30.2561 8.69727Z" fill="#764AF1"/>
<path d="M15.2445 32.9154C15.2297 32.8283 15.2051 32.7425 15.1744 32.6594C15.1436 32.5777 15.1055 32.4987 15.0611 32.4252C15.0169 32.3502 14.9651 32.2808 14.9085 32.2181C14.8519 32.1555 14.7891 32.0984 14.7214 32.0493C14.6549 32.0003 14.5835 31.958 14.5085 31.924C14.4346 31.8899 14.3571 31.8627 14.2784 31.8464C14.1196 31.811 13.9571 31.811 13.7984 31.8464C13.7196 31.8627 13.6421 31.8899 13.5682 31.924C13.4931 31.958 13.4217 32.0002 13.3554 32.0493C13.2876 32.0982 13.2249 32.1555 13.1682 32.2181C13.1116 32.2808 13.06 32.3502 13.0156 32.4252C12.9714 32.4987 12.9331 32.5777 12.9024 32.6594C12.8716 32.7425 12.847 32.8283 12.8322 32.9154C12.8162 33.0025 12.8076 33.0924 12.8076 33.181C12.8076 33.2695 12.8162 33.3594 12.8322 33.4465C12.847 33.5336 12.8716 33.6194 12.9024 33.7011C12.9331 33.7842 12.9712 33.8632 13.0156 33.9366C13.0599 34.0116 13.1116 34.081 13.1682 34.1436C13.2249 34.2063 13.2876 34.2634 13.3554 34.3125C13.4219 34.3615 13.4932 34.4038 13.5682 34.4378C13.6421 34.4718 13.7196 34.4991 13.7984 34.5168C13.8771 34.5345 13.9584 34.5426 14.0384 34.5426C14.1184 34.5426 14.1996 34.5345 14.2784 34.5168C14.3571 34.4991 14.4346 34.4718 14.5085 34.4378C14.5836 34.4038 14.655 34.3616 14.7214 34.3125C14.7891 34.2635 14.8519 34.2063 14.9085 34.1436C14.9651 34.081 15.0167 34.0116 15.0611 33.9366C15.1054 33.863 15.1436 33.7841 15.1744 33.7011C15.2051 33.6194 15.2297 33.5336 15.2445 33.4465C15.2605 33.3594 15.2691 33.2695 15.2691 33.181C15.2691 33.0924 15.2605 33.0025 15.2445 32.9154Z" fill="#9397AD"/>
</svg>
