<svg width="16" height="16" viewBox="0 0 16 16" xmlns="http://www.w3.org/2000/svg">
<path d="M8.99999 1.875V2.4C10.9961 2.80551 12.5 4.57109 12.5 6.6875V7.20156C12.5 8.48945 12.973 9.72812 13.8262 10.6906L14.0285 10.9176C14.2582 11.1773 14.3156 11.5438 14.1734 11.8582C14.0312 12.1727 13.7195 12.375 13.375 12.375H2.87499C2.53046 12.375 2.21795 12.1727 2.0768 11.8582C1.93565 11.5438 1.99211 11.1773 2.22104 10.9176L2.42382 10.6906C3.27804 9.72812 3.74999 8.48945 3.74999 7.20156V6.6875C3.74999 4.57109 5.22929 2.80551 7.24999 2.4V1.875C7.24999 1.39184 7.64101 1 8.12499 1C8.60898 1 8.99999 1.39184 8.99999 1.875ZM8.12499 15C7.66015 15 7.21445 14.8168 6.88632 14.4887C6.5582 14.1605 6.37499 13.6902 6.37499 13.25H9.87499C9.87499 13.6902 9.69179 14.1605 9.36366 14.4887C9.03554 14.8168 8.56523 15 8.12499 15Z" />
</svg>
