<svg width="16" height="16" viewBox="0 0 16 16" xmlns="http://www.w3.org/2000/svg">
<path d="M10.4965 5.50352C10.6687 5.67305 10.6687 5.95195 10.4965 6.12148L6.12148 10.4965C5.95195 10.6687 5.67305 10.6687 5.50352 10.4965C5.33125 10.327 5.33125 10.048 5.50352 9.87852L9.87852 5.50352C10.048 5.33125 10.327 5.33125 10.4965 5.50352ZM5.59375 6.22539C5.59375 5.88633 5.88633 5.56914 6.25 5.56914C6.61367 5.56914 6.90625 5.88633 6.90625 6.22539C6.90625 6.61367 6.61367 6.88164 6.25 6.88164C5.88633 6.88164 5.59375 6.61367 5.59375 6.22539ZM9.09375 9.72539C9.09375 9.38633 9.38633 9.06914 9.75 9.06914C10.1137 9.06914 10.4062 9.38633 10.4062 9.72539C10.4062 10.1137 10.1137 10.4062 9.75 10.4062C9.38633 10.4062 9.09375 10.1137 9.09375 9.72539ZM10.3816 2.2477C11.284 2.08473 12.252 2.3516 12.9492 3.05023C13.6492 3.74805 13.9145 4.71602 13.7531 5.61836C14.5051 6.11602 15 7.01289 15 7.97539C15 8.98711 14.5051 9.85938 13.7531 10.3816C13.9145 11.284 13.6492 12.252 12.9492 12.9492C12.252 13.6492 11.284 13.9145 10.3816 13.7531C9.85938 14.5051 8.98711 15 8 15C7.01289 15 6.11602 14.5051 5.61836 13.7531C4.71602 13.9145 3.74805 13.6492 3.05023 12.9492C2.3516 12.252 2.08473 11.284 2.2477 10.3816C1.49438 9.85938 1 8.98711 1 7.97539C1 7.01289 1.49438 6.11602 2.2477 5.61836C2.08473 4.71602 2.3516 3.74805 3.05023 3.05023C3.74805 2.3516 4.71602 2.08473 5.61836 2.2477C6.11602 1.49438 7.01289 1 7.97539 1C8.98711 1 9.85938 1.49438 10.3816 2.2477ZM6.04219 3.27172L5.69492 3.16562C5.00039 2.95234 4.21563 3.12105 3.66902 3.66902C3.12105 4.21563 2.95234 5.00039 3.16562 5.69492L3.27172 6.04219L2.95234 6.21172C2.31059 6.55078 1.875 7.22617 1.875 7.97539C1.875 8.77383 2.31059 9.42461 2.95234 9.78828L3.27172 9.95781L3.16562 10.3051C2.95234 10.9996 3.12105 11.7816 3.66902 12.3312C4.21563 12.8781 5.00039 13.0477 5.69492 12.8344L6.04219 12.7277L6.21172 13.0477C6.55078 13.6902 7.22617 14.125 8 14.125C8.77383 14.125 9.42461 13.6902 9.78828 13.0477L9.95781 12.7277L10.3051 12.8344C10.9996 13.0477 11.7816 12.8781 12.3312 12.3312C12.8781 11.7816 13.0477 10.9996 12.8344 10.3051L12.7277 9.95781L13.0477 9.78828C13.6902 9.42461 14.125 8.77383 14.125 7.97539C14.125 7.22617 13.6902 6.55078 13.0477 6.21172L12.7277 6.04219L12.8344 5.69492C13.0477 5.00039 12.8781 4.21562 12.3312 3.66875C11.7844 3.12078 10.9996 2.95234 10.3051 3.16562L9.95781 3.27172L9.78828 2.95234C9.42461 2.31059 8.77383 1.85039 8 1.85039C7.22617 1.85039 6.55078 2.31059 6.21172 2.95234L6.04219 3.27172Z" />
</svg>
