<svg width="16" height="16" viewBox="0 0 16 16" xmlns="http://www.w3.org/2000/svg">
<path d="M11.6754 6.5735H8.35025L8.35025 7.8141C8.35026 8.715 7.75786 9.53649 6.93818 9.62668C5.99555 9.73033 5.20015 8.92289 5.20015 7.91313V5.02573L4.66398 5.37811C3.6951 6.01611 3.10095 7.16198 3.10095 8.40115L1.3509 9.50874C1.01729 9.71808 0.899599 10.1876 1.09386 10.5525L2.84391 13.8681C3.03806 14.2329 3.46737 14.3585 3.80098 14.1492L6.06293 12.7198H9.05115C9.82227 12.7198 10.4512 12.032 10.4512 11.1888C11.0311 11.1888 11.5012 10.6747 11.5012 10.0405V8.89155H11.6762C11.9661 8.89155 12.2013 8.63439 12.2013 8.31742L12.2013 7.16916C12.2004 6.85099 11.9663 6.5735 11.6754 6.5735ZM14.9064 5.69795L13.1574 2.38234C12.9633 2.01753 12.534 1.89193 12.2004 2.10125L9.93843 3.5306H8.56967C7.74167 3.5306 6.93052 3.78441 6.22678 4.26334C6.02486 4.40376 5.90017 4.64776 5.90017 4.91091L5.90016 7.93466C5.90016 8.46406 6.2913 8.89155 6.77519 8.89155C7.2593 8.89155 7.65022 8.46382 7.65022 7.93466V5.80799H11.6754C12.352 5.80799 12.9004 6.40771 12.9004 7.14763V7.82941L14.6505 6.72301C14.9852 6.53283 15.0989 6.06395 14.9064 5.69795Z" />
</svg>
