<svg width="16" height="16" viewBox="0 0 16 16" xmlns="http://www.w3.org/2000/svg">
<path d="M8 1C4.13359 1 1 4.13359 1 8C1 11.8664 4.13359 15 8 15C11.8664 15 15 11.8664 15 8C15 4.13359 11.8664 1 8 1ZM11.4891 9.79102L11.1713 11.1689C11.1267 11.3637 10.9553 11.5 10.7546 11.5C7.30656 11.5 4.50109 8.69453 4.50109 5.24375C4.50109 5.04337 4.63737 4.87215 4.83223 4.82758L6.2098 4.50984C6.41062 4.46328 6.61668 4.56751 6.70008 4.75763L7.33555 6.2418C7.40989 6.41655 7.35969 6.61996 7.21272 6.74L6.47695 7.34375C6.94152 8.29012 7.71125 9.05957 8.65816 9.52441L9.26027 8.78859C9.37905 8.64118 9.5843 8.59035 9.75902 8.66598L11.2421 9.30173C11.4316 9.38359 11.5355 9.59141 11.4891 9.79102Z" />
</svg>
