<svg width="16" height="16" viewBox="0 0 16 16" xmlns="http://www.w3.org/2000/svg">
<path d="M4.66667 10.6667C4.93188 10.6667 5.18624 10.5613 5.37377 10.3738C5.56131 10.1862 5.66667 9.93188 5.66667 9.66667C5.66992 9.63341 5.66992 9.59992 5.66667 9.56667L7.52667 7.70667H7.68H7.83333L8.90667 8.78C8.90667 8.78 8.90667 8.81333 8.90667 8.83333C8.90667 9.09855 9.01202 9.3529 9.19956 9.54044C9.3871 9.72798 9.64145 9.83333 9.90667 9.83333C10.1719 9.83333 10.4262 9.72798 10.6138 9.54044C10.8013 9.3529 10.9067 9.09855 10.9067 8.83333V8.78L13.3333 6.33333C13.5311 6.33333 13.7245 6.27468 13.8889 6.1648C14.0534 6.05492 14.1815 5.89874 14.2572 5.71602C14.3329 5.53329 14.3527 5.33222 14.3141 5.13824C14.2755 4.94426 14.1803 4.76608 14.0404 4.62623C13.9006 4.48637 13.7224 4.39113 13.5284 4.35255C13.3344 4.31396 13.1334 4.33376 12.9506 4.40945C12.7679 4.48514 12.6117 4.61331 12.5019 4.77776C12.392 4.94221 12.3333 5.13555 12.3333 5.33333C12.3301 5.36659 12.3301 5.40008 12.3333 5.43333L9.92667 7.84H9.82L8.66667 6.66667C8.66667 6.40145 8.56131 6.1471 8.37377 5.95956C8.18624 5.77202 7.93188 5.66667 7.66667 5.66667C7.40145 5.66667 7.1471 5.77202 6.95956 5.95956C6.77202 6.1471 6.66667 6.40145 6.66667 6.66667L4.66667 8.66667C4.40145 8.66667 4.1471 8.77202 3.95956 8.95956C3.77202 9.1471 3.66667 9.40145 3.66667 9.66667C3.66667 9.93188 3.77202 10.1862 3.95956 10.3738C4.1471 10.5613 4.40145 10.6667 4.66667 10.6667V10.6667ZM13.6667 13.3333H2.33333V2C2.33333 1.82319 2.2631 1.65362 2.13807 1.52859C2.01305 1.40357 1.84348 1.33333 1.66667 1.33333C1.48986 1.33333 1.32029 1.40357 1.19526 1.52859C1.07024 1.65362 1 1.82319 1 2V14C1 14.1768 1.07024 14.3464 1.19526 14.4714C1.32029 14.5964 1.48986 14.6667 1.66667 14.6667H13.6667C13.8435 14.6667 14.013 14.5964 14.1381 14.4714C14.2631 14.3464 14.3333 14.1768 14.3333 14C14.3333 13.8232 14.2631 13.6536 14.1381 13.5286C14.013 13.4036 13.8435 13.3333 13.6667 13.3333Z" />
</svg>
