<svg width="16" height="16" viewBox="0 0 16 16" xmlns="http://www.w3.org/2000/svg">
<path fill-rule="evenodd" clip-rule="evenodd" d="M12.7167 6.36197V5.31901C12.7167 2.93371 10.7832 1 8.3977 1H8.39579C6.01049 1 4.07678 2.93371 4.07678 5.31901V6.36197C4.08034 6.50279 4.13879 6.63664 4.23965 6.73498C4.3405 6.83332 4.47579 6.88836 4.61666 6.88836C4.75752 6.88836 4.89281 6.83332 4.99367 6.73498C5.09453 6.63664 5.15297 6.50279 5.15654 6.36197V5.31901C5.15671 3.5299 6.60686 2.07975 8.39579 2.07975H8.3977C10.1868 2.07975 11.637 3.5299 11.637 5.31901V6.36197C11.6405 6.50279 11.699 6.63664 11.7998 6.73498C11.9007 6.83332 12.036 6.88836 12.1768 6.88836C12.3177 6.88836 12.453 6.83332 12.5538 6.73498C12.6547 6.63664 12.7131 6.50279 12.7167 6.36197ZM8.39873 7.38661C8.04082 7.38675 7.6976 7.52898 7.44451 7.78204C7.19141 8.03511 7.04914 8.3783 7.04895 8.73622C7.04914 9.09414 7.1914 9.43736 7.4445 9.69045C7.69759 9.94354 8.0408 10.0858 8.39873 10.086C8.75666 10.0858 9.09987 9.94354 9.35297 9.69045C9.60606 9.43736 9.74833 9.09414 9.74851 8.73622C9.74828 8.37832 9.60599 8.03515 9.35291 7.78209C9.09982 7.52904 8.75663 7.38679 8.39873 7.38661ZM8.39873 8.46636C8.46828 8.46941 8.53396 8.49918 8.5821 8.54947C8.63023 8.59976 8.6571 8.66669 8.6571 8.7363C8.6571 8.80591 8.63023 8.87284 8.5821 8.92313C8.53396 8.97342 8.46828 9.00319 8.39873 9.00624C8.32714 9.00615 8.25852 8.97767 8.2079 8.92705C8.15728 8.87643 8.1288 8.8078 8.12871 8.73622C8.1288 8.66464 8.15728 8.59603 8.20791 8.54544C8.25853 8.49485 8.32716 8.46641 8.39873 8.46636Z" />
<path fill-rule="evenodd" clip-rule="evenodd" d="M7.85889 9.65635V11.276C7.86245 11.4168 7.92089 11.5507 8.02175 11.649C8.12261 11.7473 8.2579 11.8024 8.39876 11.8024C8.53963 11.8024 8.67492 11.7473 8.77578 11.649C8.87663 11.5507 8.93508 11.4168 8.93864 11.276V9.65635C8.93864 9.35851 8.69678 9.11647 8.39876 9.11647C8.25561 9.11656 8.11834 9.17347 8.01711 9.2747C7.91589 9.37592 7.85898 9.51319 7.85889 9.65635Z" />
<path fill-rule="evenodd" clip-rule="evenodd" d="M8.39877 4.20247C5.41917 4.20247 3 6.62163 3 9.60123C3 12.5808 5.41917 15 8.39877 15C11.3784 15 13.7975 12.5808 13.7975 9.60123C13.7975 6.62163 11.3784 4.20247 8.39877 4.20247ZM8.39877 5.28222C10.7825 5.28222 12.7178 7.21749 12.7178 9.60123C12.7178 11.985 10.7825 13.9202 8.39877 13.9202C6.01502 13.9202 4.07975 11.985 4.07975 9.60123C4.07975 7.21749 6.01502 5.28222 8.39877 5.28222Z" />
</svg>
