<svg width="16" height="16" viewBox="0 0 16 16" xmlns="http://www.w3.org/2000/svg">
<path d="M11.3606 4.51024C11.3606 3.81598 11.1548 3.13731 10.7691 2.56006C10.3833 1.9828 9.83512 1.53288 9.19371 1.2672C8.55229 1.00152 7.8465 0.932007 7.16558 1.06745C6.48466 1.20289 5.8592 1.53721 5.36828 2.02813C4.87737 2.51904 4.54305 3.14451 4.40761 3.82543C4.27216 4.50635 4.34168 5.21214 4.60736 5.85355C4.87304 6.49496 5.32296 7.04319 5.90021 7.42889C6.47747 7.8146 7.15614 8.02048 7.8504 8.02048C8.78137 8.02048 9.67421 7.65065 10.3325 6.99235C10.9908 6.33405 11.3606 5.44121 11.3606 4.51024ZM5.51024 4.51024C5.51024 4.0474 5.64749 3.59495 5.90463 3.21012C6.16177 2.82528 6.52725 2.52534 6.95486 2.34821C7.38246 2.17109 7.85299 2.12475 8.30694 2.21505C8.76089 2.30534 9.17786 2.52822 9.50514 2.8555C9.83242 3.18277 10.0553 3.59975 10.1456 4.0537C10.2359 4.50764 10.1895 4.97817 10.0124 5.40578C9.8353 5.83339 9.53536 6.19887 9.15052 6.45601C8.76568 6.71315 8.31324 6.8504 7.8504 6.8504C7.22975 6.8504 6.63452 6.60385 6.19565 6.16498C5.75679 5.72612 5.51024 5.13089 5.51024 4.51024ZM2 13.2449C2 13.7104 2.18491 14.1568 2.51406 14.4859C2.84321 14.8151 3.28963 15 3.75512 15H11.9457C12.4112 15 12.8576 14.8151 13.1867 14.4859C13.5159 14.1568 13.7008 13.7104 13.7008 13.2449C13.7008 12.1587 13.2693 11.1171 12.5013 10.3491C11.7333 9.58107 10.6917 9.1496 9.60552 9.1496H6.09528C5.00914 9.1496 3.96749 9.58107 3.19948 10.3491C2.43147 11.1171 2 12.1587 2 13.2449ZM6.09528 10.3197H9.60552C9.98966 10.3197 10.37 10.3953 10.7249 10.5423C11.0798 10.6894 11.4023 10.9048 11.6739 11.1765C11.9456 11.4481 12.161 11.7706 12.308 12.1255C12.4551 12.4804 12.5307 12.8607 12.5307 13.2449C12.5307 13.4 12.4691 13.5488 12.3594 13.6586C12.2496 13.7683 12.1008 13.8299 11.9457 13.8299H3.75512C3.59996 13.8299 3.45115 13.7683 3.34143 13.6586C3.23172 13.5488 3.17008 13.4 3.17008 13.2449C3.17008 12.4691 3.47827 11.725 4.02685 11.1765C4.57543 10.6279 5.31947 10.3197 6.09528 10.3197Z" />
</svg>
