<svg width="16" height="16" viewBox="0 0 16 16" xmlns="http://www.w3.org/2000/svg">
<path d="M4.81839 1C4.04247 0.999389 3.28481 1.24086 2.64648 1.69221C2.00815 2.14356 1.51949 2.78333 1.24568 3.52617C0.971876 4.26902 0.925941 5.07963 1.114 5.84988C1.30207 6.62013 1.71518 7.3134 2.29826 7.83721H7.33852C7.92159 7.3134 8.33471 6.62013 8.52277 5.84988C8.71083 5.07963 8.6649 4.26902 8.39109 3.52617C8.11729 2.78333 7.62863 2.14356 6.99029 1.69221C6.35196 1.24086 5.59431 0.999389 4.81839 1V1ZM5.77298 4.5814C5.85737 4.5814 5.93831 4.6157 5.99798 4.67676C6.05766 4.73781 6.09118 4.82063 6.09118 4.90698V6.2093C6.09118 6.29565 6.05766 6.37846 5.99798 6.43952C5.93831 6.50058 5.85737 6.53488 5.77298 6.53488H5.13659V6.86046C5.13659 6.94681 5.10306 7.02963 5.04339 7.09069C4.98371 7.15174 4.90278 7.18605 4.81839 7.18605C4.734 7.18605 4.65306 7.15174 4.59339 7.09069C4.53371 7.02963 4.50019 6.94681 4.50019 6.86046V6.53488H3.86379C3.7794 6.53488 3.69847 6.50058 3.63879 6.43952C3.57912 6.37846 3.54559 6.29565 3.54559 6.2093C3.54559 6.12295 3.57912 6.04014 3.63879 5.97908C3.69847 5.91802 3.7794 5.88372 3.86379 5.88372H5.45478V5.23256H3.86379C3.7794 5.23256 3.69847 5.19826 3.63879 5.1372C3.57912 5.07614 3.54559 4.99333 3.54559 4.90698V3.60465C3.54559 3.5183 3.57912 3.43549 3.63879 3.37443C3.69847 3.31337 3.7794 3.27907 3.86379 3.27907H4.50019V2.95349C4.50019 2.86714 4.53371 2.78433 4.59339 2.72327C4.65306 2.66221 4.734 2.62791 4.81839 2.62791C4.90278 2.62791 4.98371 2.66221 5.04339 2.72327C5.10306 2.78433 5.13659 2.86714 5.13659 2.95349V3.27907H5.77298C5.85737 3.27907 5.93831 3.31337 5.99798 3.37443C6.05766 3.43549 6.09118 3.5183 6.09118 3.60465C6.09118 3.691 6.05766 3.77381 5.99798 3.83487C5.93831 3.89593 5.85737 3.93023 5.77298 3.93023H4.18199V4.5814H5.77298ZM14.9638 5.38558C14.9367 5.43776 14.8961 5.4814 14.8466 5.5118C14.797 5.5422 14.7403 5.55822 14.6825 5.55814H13.4097V14.3488C13.4097 14.4352 13.3762 14.518 13.3165 14.5791C13.2569 14.6401 13.1759 14.6744 13.0915 14.6744H11.1824C11.098 14.6744 11.017 14.6401 10.9574 14.5791C10.8977 14.518 10.8642 14.4352 10.8642 14.3488V5.55814H9.59136C9.53368 5.55856 9.47701 5.54267 9.4276 5.51222C9.37819 5.48177 9.33796 5.43794 9.31135 5.38558C9.28331 5.33427 9.26993 5.27592 9.27274 5.2172C9.27555 5.15848 9.29444 5.10175 9.32726 5.05349L11.8728 1.14651C11.9033 1.10411 11.9431 1.06964 11.9889 1.04588C12.0348 1.02212 12.0855 1.00974 12.137 1.00974C12.1884 1.00974 12.2391 1.02212 12.285 1.04588C12.3308 1.06964 12.3706 1.10411 12.4011 1.14651L14.9466 5.05349C14.9784 5.10215 14.9968 5.15868 14.9998 5.21712C15.0028 5.27556 14.9904 5.33376 14.9638 5.38558Z" />
<path d="M8.66667 13.3721H1.33333C1.14924 13.3721 1 13.5179 1 13.6977V14.6744C1 14.8542 1.14924 15 1.33333 15H8.66667C8.85076 15 9 14.8542 9 14.6744V13.6977C9 13.5179 8.85076 13.3721 8.66667 13.3721Z" />
<path d="M8.66667 11.093H1.33333C1.14924 11.093 1 11.2388 1 11.4186V12.3953C1 12.5752 1.14924 12.7209 1.33333 12.7209H8.66667C8.85076 12.7209 9 12.5752 9 12.3953V11.4186C9 11.2388 8.85076 11.093 8.66667 11.093Z" />
<path d="M8.66667 8.81395H1.33333C1.14924 8.81395 1 8.95972 1 9.13953V10.1163C1 10.2961 1.14924 10.4419 1.33333 10.4419H8.66667C8.85076 10.4419 9 10.2961 9 10.1163V9.13953C9 8.95972 8.85076 8.81395 8.66667 8.81395Z" />
</svg>
