<svg width="16" height="16" viewBox="0 0 16 16" xmlns="http://www.w3.org/2000/svg">
<path d="M8.37048 8.86544C10.5694 8.86544 12.352 7.1047 12.352 4.93272C12.352 2.76074 10.5694 1 8.37048 1C6.17152 1 4.38892 2.76074 4.38892 4.93272C4.38892 7.1047 6.17152 8.86544 8.37048 8.86544Z" />
<path d="M14.7341 12.647C14.7377 12.591 14.7377 12.5349 14.7341 12.479C14.7183 12.2721 14.6596 12.0701 14.5613 11.8842C14.1742 11.1279 13.0891 10.7853 12.1837 10.5914C11.5377 10.4569 10.8813 10.3705 10.2207 10.3328L9.52956 10.2811H9.21853H8.83148H7.90531H7.51825H7.20722L6.51605 10.3328C5.85547 10.3705 5.19911 10.4569 4.55312 10.5914C3.64768 10.7595 2.56254 11.1085 2.17549 11.8842C2.07714 12.0701 2.01845 12.2721 2.00269 12.479C1.9991 12.5349 1.9991 12.591 2.00269 12.647C1.99938 12.703 1.99938 12.7591 2.00269 12.8151C2.02149 13.0202 2.08252 13.2199 2.1824 13.4033C2.56946 14.1597 3.6546 14.5023 4.56003 14.6962C5.20723 14.8244 5.86309 14.9108 6.52296 14.9548L7.21413 15H7.38001H7.52516H9.22544H9.37059H9.53647L10.2276 14.9548C10.8875 14.9108 11.5434 14.8244 12.1906 14.6962C13.096 14.5216 14.1812 14.179 14.5682 13.4033C14.6634 13.2141 14.7219 13.0105 14.741 12.8022C14.7419 12.7504 14.7396 12.6986 14.7341 12.647Z" />
</svg>
