<svg width="16" height="16" viewBox="0 0 16 16" xmlns="http://www.w3.org/2000/svg">
<path d="M14.7457 14.4995H12.8233V11.2569C12.823 10.9916 12.7157 10.7373 12.5251 10.5498C12.3344 10.3622 12.0758 10.2567 11.8061 10.2565H9.76999V6.41239C9.76972 6.14714 9.66247 5.89284 9.47178 5.70528C9.28108 5.51773 9.02252 5.41224 8.75283 5.41198H7.24336C6.97367 5.41224 6.71511 5.51773 6.52441 5.70528C6.33371 5.89284 6.22646 6.14714 6.22619 6.41239V8.46874H4.1939C3.92421 8.469 3.66565 8.57449 3.47495 8.76204C3.28425 8.9496 3.177 9.20391 3.17673 9.46915V14.4995H1.25429C1.18685 14.4995 1.12217 14.5258 1.07448 14.5727C1.02679 14.6196 1 14.6832 1 14.7496C1 14.8159 1.02679 14.8795 1.07448 14.9264C1.12217 14.9733 1.18685 14.9997 1.25429 14.9997H6.48048C8.91507 14.9979 12.3177 15.0009 14.7457 14.9997C14.8132 14.9997 14.8778 14.9733 14.9255 14.9264C14.9732 14.8795 15 14.8159 15 14.7496C15 14.6832 14.9732 14.6196 14.9255 14.5727C14.8778 14.5258 14.8132 14.4995 14.7457 14.4995V14.4995ZM3.68531 9.46915C3.68545 9.33653 3.73908 9.20938 3.83442 9.1156C3.92977 9.02182 4.05905 8.96908 4.1939 8.96894H6.22619V14.4995H3.68531V9.46915ZM6.73477 6.41239C6.73491 6.27977 6.78853 6.15261 6.88388 6.05884C6.97923 5.96506 7.10851 5.91231 7.24336 5.91218H8.75283C8.88765 5.91238 9.01689 5.96514 9.11223 6.05891C9.20756 6.15267 9.26121 6.27979 9.26141 6.41239V14.4995H6.73477V6.41239ZM9.76999 14.4995V10.7567H11.8064C11.9412 10.7569 12.0704 10.8096 12.1658 10.9034C12.2611 10.9972 12.3147 11.1243 12.3149 11.2569V14.4995H9.76999ZM6.26332 2.93045L6.85175 3.35088L6.62721 4.03116C6.59409 4.13161 6.59414 4.2398 6.62737 4.34023C6.66059 4.44065 6.72528 4.52816 6.81217 4.59021C6.89905 4.65226 7.00368 4.68567 7.11105 4.68566C7.21843 4.68565 7.32305 4.65221 7.40992 4.59014L7.99809 4.16996L8.58627 4.59039C8.67317 4.65255 8.77786 4.68605 8.88532 4.68607C8.99278 4.68608 9.09748 4.65263 9.18441 4.59049C9.27134 4.52836 9.33602 4.44074 9.36918 4.34021C9.40234 4.23967 9.40227 4.1314 9.36898 4.03091L9.14418 3.35088L9.73236 2.9307C9.81934 2.86865 9.88411 2.7811 9.91737 2.68061C9.95063 2.58011 9.95067 2.47184 9.91749 2.37132C9.8843 2.2708 9.8196 2.1832 9.73266 2.12109C9.64573 2.05897 9.54102 2.02554 9.43357 2.02558L8.70629 2.02583L8.48176 1.34555C8.44855 1.2451 8.38388 1.15758 8.29699 1.0955C8.21011 1.03343 8.10548 1 7.99809 1C7.89071 1 7.78608 1.03343 7.69919 1.0955C7.61231 1.15758 7.54763 1.2451 7.51443 1.34555L7.28964 2.02583H6.56237C6.45582 2.0275 6.35248 2.06187 6.26678 2.12415C6.18107 2.18642 6.1173 2.27348 6.08438 2.37315C6.05146 2.47283 6.05104 2.58013 6.08316 2.68005C6.11529 2.77997 6.17837 2.86752 6.26357 2.93045H6.26332ZM7.28964 2.52578C7.39708 2.52597 7.50181 2.4926 7.58874 2.43048C7.67566 2.36836 7.74029 2.28071 7.7733 2.18014L7.99682 1.49711L7.99809 1.50036L8.22263 2.18064C8.25584 2.28105 8.32053 2.36853 8.40742 2.43054C8.49431 2.49255 8.59894 2.52589 8.70629 2.52578L9.43357 2.52603L8.84488 2.94671C8.75803 3.00876 8.69339 3.09628 8.66027 3.19671C8.62715 3.29714 8.62723 3.40531 8.66052 3.50569L8.88506 4.18572C8.68036 4.06392 8.2384 3.64225 7.99809 3.66951C7.75906 3.64225 7.32371 4.05792 7.11062 4.18572L7.33566 3.50544C7.36898 3.40502 7.36903 3.29678 7.33581 3.19633C7.30258 3.09588 7.2378 3.00839 7.15079 2.94646L6.56262 2.52578H7.28964Z" />
</svg>
