<svg width="16" height="16" viewBox="0 0 16 16" xmlns="http://www.w3.org/2000/svg">
<path d="M11.9754 13.1253C12.0208 13.4065 11.9095 13.6924 11.6823 13.8588C11.4573 14.0252 11.1597 14.0463 10.9165 13.9127L7.99892 12.3074L5.08359 13.9127C4.83819 14.0463 4.54052 14.0252 4.31556 13.8588C4.09061 13.6924 3.97699 13.4065 4.02471 13.1253L4.58369 9.6898L2.21553 7.29479C2.01988 7.09325 1.95035 6.79797 2.03624 6.52613C2.12191 6.25663 2.34845 6.05978 2.6209 6.01995L5.88343 5.52313L7.34678 2.42204C7.46721 2.16388 7.7217 2 7.99892 2C8.27841 2 8.53291 2.16388 8.65334 2.42204L10.1144 5.52313L13.3797 6.01995C13.6501 6.05978 13.8773 6.25663 13.9636 6.52613C14.05 6.79797 13.9795 7.09325 13.7841 7.29479L11.4164 9.6898L11.9754 13.1253ZM7.99665 10.8217L7.99892 10.8193L10.5348 12.216L10.0508 9.25626L12.114 7.15183L9.26458 6.72064L7.99892 4.03621L7.99665 4.043V10.8217Z" />
</svg>
