<svg width="16" height="16" viewBox="0 0 16 16" xmlns="http://www.w3.org/2000/svg">
<path d="M7.99916 2C8.2083 2 8.39925 2.12307 8.49018 2.31693L10.0496 5.62879L13.5346 6.16092C13.7392 6.19139 13.9074 6.33908 13.9733 6.54068C14.037 6.74462 13.9847 6.96732 13.8392 7.115L11.3113 9.69829L11.9092 13.3435C11.9433 13.5545 11.8592 13.7701 11.6887 13.8944C11.5204 14.0186 11.2772 14.035 11.1135 13.9342L7.99916 12.2183L4.8666 13.9342C4.70292 14.035 4.48014 14.0186 4.30965 13.8944C4.14143 13.7701 4.05731 13.5545 4.07095 13.3435L4.68701 9.69829L2.16164 7.115C2.01478 6.96732 1.96273 6.74462 2.02729 6.54068C2.09162 6.33908 2.26143 6.19139 2.4658 6.16092L5.94867 5.62879L7.50813 2.31693C7.60134 2.12305 7.79002 2 7.99916 2ZM7.99916 3.85073L6.80569 6.3883C6.72613 6.55474 6.57155 6.67195 6.39423 6.70008L3.7045 7.10797L5.65769 9.10286C5.78272 9.23179 5.83956 9.41698 5.81 9.59749L5.3508 12.4011L7.74228 11.0837C7.90368 10.9946 8.09691 10.9946 8.25604 11.0837L10.6475 12.4011L10.1883 9.59749C10.1588 9.41698 10.2179 9.23179 10.3429 9.10286L12.2956 7.10797L9.60636 6.70008C9.42677 6.67195 9.27219 6.55474 9.1949 6.3883L7.99916 3.85073Z" />
</svg>
