<svg width="16" height="16" viewBox="0 0 16 16" xmlns="http://www.w3.org/2000/svg">
<path d="M5.04601 8.59221L2.16902 8.84732C2.01472 8.84661 1.86208 8.8155 1.71981 8.75577C1.57754 8.69604 1.44844 8.60886 1.33987 8.49922C1.23131 8.38957 1.14542 8.25961 1.0871 8.11675C1.02879 7.9739 0.999197 7.82095 1.00002 7.66666C0.999197 7.51236 1.02879 7.35942 1.0871 7.21656C1.14542 7.07371 1.23131 6.94375 1.33987 6.8341C1.44844 6.72445 1.57754 6.63728 1.71981 6.57755C1.86208 6.51782 2.01472 6.48671 2.16902 6.48599L5.04679 6.74033C5.55235 6.74033 5.96379 7.15488 5.96379 7.66588C5.96379 8.17921 5.55312 8.59221 5.04601 8.59221Z" />
<path d="M14.7083 8.54555C14.6632 8.59066 14.4952 8.78277 14.3373 8.94222C13.4164 9.94011 11.0131 11.5727 9.7562 12.072C9.56487 12.1513 9.08187 12.3209 8.82287 12.3333C8.57673 12.3331 8.33416 12.2744 8.11509 12.1622C7.8339 12.0035 7.61298 11.7563 7.48665 11.4591C7.40809 11.2553 7.28443 10.6424 7.28443 10.6315C7.16076 9.96266 7.09387 8.87455 7.09387 7.67211C7.09387 6.52722 7.16076 5.48344 7.26187 4.80367C7.27276 4.79122 7.3972 4.03133 7.53176 3.77078C7.6491 3.54047 7.82742 3.3468 8.04727 3.21089C8.26712 3.07497 8.52007 3.00202 8.77854 3H8.82287C9.15965 3.01089 9.86743 3.30644 9.86743 3.31733C11.0574 3.81667 13.4048 5.36989 14.3482 6.402C14.3482 6.402 14.615 6.668 14.7301 6.83289C14.9098 7.07089 15 7.36566 15 7.66044C15 7.98944 14.8989 8.29511 14.7083 8.54555Z" />
</svg>
