<svg width="14" height="16" viewBox="0 0 14 16" xmlns="http://www.w3.org/2000/svg">
<path d="M13.7063 8.70625L8.70626 13.7063C8.51251 13.9031 8.25626 14 8.00001 14C7.74376 14 7.48814 13.9023 7.29314 13.707C6.90251 13.3164 6.90251 12.6836 7.29314 12.293L10.5875 9H1.00001C0.447824 9 6.10352e-05 8.55313 6.10352e-05 8C6.10352e-05 7.44688 0.447824 7 1.00001 7H10.5875L7.29376 3.70625C6.90314 3.31563 6.90314 2.68282 7.29376 2.29219C7.68439 1.90157 8.3172 1.90157 8.70782 2.29219L13.7078 7.29219C14.0969 7.68438 14.0969 8.31563 13.7063 8.70625Z" />
</svg>
