<svg width="16" height="16" viewBox="0 0 16 16" xmlns="http://www.w3.org/2000/svg">
<path d="M6 2.5C6 1.67156 6.67188 1 7.5 1H8.5C9.32812 1 10 1.67156 10 2.5V13.5C10 14.3281 9.32812 15 8.5 15H7.5C6.67188 15 6 14.3281 6 13.5V2.5ZM1 8.5C1 7.67188 1.67156 7 2.5 7H3.5C4.32812 7 5 7.67188 5 8.5V13.5C5 14.3281 4.32812 15 3.5 15H2.5C1.67156 15 1 14.3281 1 13.5V8.5ZM13.5 3C14.3281 3 15 3.67188 15 4.5V13.5C15 14.3281 14.3281 15 13.5 15H12.5C11.6719 15 11 14.3281 11 13.5V4.5C11 3.67188 11.6719 3 12.5 3H13.5Z" />
</svg>
