<svg width="16" height="16" viewBox="0 0 16 16" xmlns="http://www.w3.org/2000/svg">
<path d="M14.9892 2.00771L13.2392 13.3583C13.1982 13.6244 13.0375 13.8565 12.8025 13.9885C12.67 14.0629 12.5217 14.1006 12.3737 14.1006C12.2592 14.1006 12.1463 14.0783 12.0377 14.033L8.6853 12.6357L7.29457 14.7218C7.18793 14.9043 7.0102 15 6.81879 15C6.50433 15 6.25003 14.7457 6.25003 14.4312V11.8013C6.25003 11.6067 6.31489 11.4176 6.43438 11.2642L12.3751 3.62485L4.34414 10.8519L1.53836 9.68157C1.23069 9.55305 1.02217 9.2632 1.00167 8.905C0.981158 8.54679 1.15121 8.25639 1.44081 8.09096L13.691 1.11548C13.9833 0.94843 14.344 0.963798 14.6207 1.15392C14.8974 1.34404 15.0412 1.67576 14.9892 2.00771Z" />
</svg>
