<svg width="16" height="16" viewBox="0 0 16 16" xmlns="http://www.w3.org/2000/svg">
<path d="M14.1578 5.55547C14.248 5.79063 14.1714 6.05586 13.9855 6.22812L12.8015 7.30547C12.8316 7.53242 12.848 7.76484 12.848 8C12.848 8.23516 12.8316 8.46758 12.8015 8.69453L13.9855 9.77187C14.1714 9.94414 14.248 10.2094 14.1578 10.4445C14.0374 10.7699 13.8925 11.0844 13.7285 11.3824L13.5999 11.6039C13.4195 11.9047 13.2171 12.1891 12.9957 12.4598C12.8316 12.6539 12.5664 12.7223 12.3257 12.6457L10.8027 12.159C10.4363 12.4406 10.007 12.6758 9.59956 12.8563L9.25776 14.4176C9.20307 14.6637 9.01167 14.8387 8.7601 14.9043C8.38276 14.9672 7.99448 15 7.57339 15C7.20151 15 6.81323 14.9672 6.43589 14.9043C6.18432 14.8387 5.99292 14.6637 5.93823 14.4176L5.59643 12.8563C5.1644 12.6758 4.75971 12.4406 4.39331 12.159L2.87135 12.6457C2.62963 12.7223 2.36303 12.6539 2.20116 12.4598C1.9794 12.1891 1.77706 11.9047 1.59659 11.6039L1.46862 11.3824C1.30264 11.0844 1.15827 10.7699 1.03713 10.4445C0.948541 10.2094 1.02319 9.94414 1.21077 9.77187L2.39366 8.69453C2.36358 8.46758 2.34799 8.23516 2.34799 8C2.34799 7.76484 2.36358 7.53242 2.39366 7.30547L1.21077 6.22812C1.02319 6.05586 0.948541 5.79336 1.03713 5.55547C1.15827 5.23008 1.30292 4.91563 1.46862 4.61758L1.59631 4.39609C1.77706 4.09531 1.9794 3.81094 2.20116 3.5416C2.36303 3.34609 2.62963 3.27828 2.87135 3.35539L4.39331 3.84102C4.75971 3.55828 5.1644 3.32313 5.59643 3.14457L5.93823 1.58324C5.99292 1.33496 6.18432 1.13781 6.43589 1.09598C6.81323 1.03284 7.20151 1 7.59799 1C7.99448 1 8.38276 1.03284 8.7601 1.09598C9.01167 1.13781 9.20307 1.33496 9.25776 1.58324L9.59956 3.14457C10.007 3.32313 10.4363 3.55828 10.8027 3.84102L12.3257 3.35539C12.5664 3.27828 12.8316 3.34609 12.9957 3.5416C13.2171 3.81094 13.4195 4.09531 13.5999 4.39609L13.7285 4.61758C13.8925 4.91563 14.0374 5.23008 14.1578 5.55547ZM7.59799 10.1875C8.80659 10.1875 9.78549 9.20859 9.78549 7.97539C9.78549 6.79141 8.80659 5.78789 7.59799 5.78789C6.3894 5.78789 5.41049 6.79141 5.41049 7.97539C5.41049 9.20859 6.3894 10.1875 7.59799 10.1875Z" />
</svg>
