<svg width="16" height="16" viewBox="0 0 16 16" xmlns="http://www.w3.org/2000/svg">
<path d="M15 4C15 5.65625 13.6562 7 12 7C11.0969 7 10.2875 6.6 9.7375 5.96875L6.93437 7.37187C6.97812 7.575 6.97188 7.78438 6.97188 7.97188C6.97188 8.21563 6.97812 8.425 6.93437 8.62813L9.7375 10.0031C10.2875 9.4 11.0969 8.97188 12 8.97188C13.6562 8.97188 15 10.3156 15 12C15 13.6562 13.6562 15 12 15C10.3156 15 9 13.6562 9 12C9 11.7844 9.02188 11.575 9.06563 11.3719L6.2625 9.96875C5.7125 10.6 4.90312 11 4 11C2.34312 11 1 9.65625 1 7.97188C1 6.31563 2.34312 4.97188 4 4.97188C4.90312 4.97188 5.7125 5.4 6.2625 6.00313L9.06563 4.62813C9.02188 4.425 9 4.21563 9 4C9 2.34312 10.3156 1 12 1C13.6562 1 15 2.34312 15 4ZM3.97187 9.5C4.82812 9.5 5.47188 8.82812 5.47188 8C5.47188 7.17188 4.82812 6.5 3.97187 6.5C3.17156 6.5 2.47187 7.17188 2.47187 8C2.47187 8.82812 3.17156 9.5 3.97187 9.5ZM12 2.5C11.1719 2.5 10.5 3.17188 10.5 4C10.5 4.82812 11.1719 5.5 12 5.5C12.8281 5.5 13.5 4.82812 13.5 4C13.5 3.17188 12.8281 2.5 12 2.5ZM12 13.5C12.8281 13.5 13.5 12.8281 13.5 12C13.5 11.1719 12.8281 10.5 12 10.5C11.1719 10.5 10.5 11.1719 10.5 12C10.5 12.8281 11.1719 13.5 12 13.5Z" />
</svg>
