<svg width="16" height="16" viewBox="0 0 16 16" xmlns="http://www.w3.org/2000/svg">
<path d="M3.625 14.25H5.375C5.85898 14.25 6.25 13.859 6.25 13.375C6.25 12.891 5.85898 12.5 5.375 12.5H3.625C3.14184 12.5 2.75 12.1082 2.75 11.625V4.625C2.75 4.14184 3.14184 3.75 3.625 3.75H5.375C5.85898 3.75 6.25 3.35816 6.25 2.875C6.25 2.39184 5.85898 2 5.375 2H3.625C2.17523 2 1 3.17523 1 4.625V11.625C1 13.0742 2.17523 14.25 3.625 14.25ZM14.8031 7.64648L10.8629 3.92773C10.6722 3.74787 10.3926 3.69873 10.152 3.80212C9.91125 3.90594 9.7552 4.14309 9.7552 4.40505L9.75269 6.3738L6.25269 6.37377C5.76897 6.37377 5.37714 6.76561 5.37714 7.24877V8.99877C5.37714 9.48193 5.76925 9.87377 6.25269 9.87377L9.75269 9.8738L9.7552 11.8179C9.7552 12.0798 9.91125 12.317 10.152 12.4209C10.3927 12.5243 10.6723 12.4751 10.8629 12.2952L14.8031 8.5765C15.0656 8.35469 15.0656 7.89531 14.8031 7.64648Z" />
</svg>
