<svg width="16" height="16" viewBox="0 0 16 16" xmlns="http://www.w3.org/2000/svg">
<path fill-rule="evenodd" clip-rule="evenodd" d="M7.67441 13.3805H2.10698C2.07244 13.3805 2.03931 13.3668 2.01489 13.3424C1.99046 13.318 1.97674 13.2849 1.97674 13.2503V12.3061C1.97674 11.765 2.36288 11.2884 2.95805 10.8833C4.02074 10.1579 5.74046 9.70083 7.67441 9.70083C7.80394 9.70083 7.92816 9.64938 8.01974 9.55779C8.11133 9.4662 8.16279 9.34198 8.16279 9.21246C8.16279 9.08294 8.11133 8.95872 8.01974 8.86713C7.92816 8.77554 7.80394 8.72409 7.67441 8.72409C5.51125 8.72409 3.59618 9.2652 2.40716 10.0759C1.50009 10.6945 1 11.4805 1 12.3055V13.2503C1 13.5439 1.11663 13.8255 1.32423 14.0331C1.53182 14.2407 1.81339 14.3573 2.10698 14.3573H7.67441C7.80394 14.3573 7.92816 14.3058 8.01974 14.2143C8.11133 14.1227 8.16279 13.9984 8.16279 13.8689C8.16279 13.7394 8.11133 13.6152 8.01974 13.5236C7.92816 13.432 7.80394 13.3805 7.67441 13.3805ZM7.67441 1C6.72468 1.00035 5.81393 1.37778 5.14237 2.04935C4.4708 2.72091 4.09337 3.63165 4.09302 4.58139C4.09302 6.55832 5.69748 8.16279 7.67441 8.16279C9.65134 8.16279 11.2558 6.55832 11.2558 4.58139C11.2558 2.60446 9.65134 1 7.67441 1ZM7.67441 1.97674C9.11218 1.97674 10.2791 3.14363 10.2791 4.58139C10.2791 6.01916 9.11218 7.18604 7.67441 7.18604C6.23665 7.18604 5.06976 6.01916 5.06976 4.58139C5.06976 3.14363 6.23665 1.97674 7.67441 1.97674ZM11.093 10.4419V12.7209C11.093 12.8504 11.1445 12.9747 11.2361 13.0663C11.3276 13.1578 11.4519 13.2093 11.5814 13.2093C11.7109 13.2093 11.8351 13.1578 11.9267 13.0663C12.0183 12.9747 12.0698 12.8504 12.0698 12.7209V10.4419C12.0698 10.3123 12.0183 10.1881 11.9267 10.0965C11.8351 10.0049 11.7109 9.95348 11.5814 9.95348C11.4519 9.95348 11.3276 10.0049 11.2361 10.0965C11.1445 10.1881 11.093 10.3123 11.093 10.4419Z" />
<path fill-rule="evenodd" clip-rule="evenodd" d="M10.4419 12.0698H12.7209C12.8505 12.0698 12.9747 12.0183 13.0663 11.9267C13.1578 11.8351 13.2093 11.7109 13.2093 11.5814C13.2093 11.4519 13.1578 11.3277 13.0663 11.2361C12.9747 11.1445 12.8505 11.093 12.7209 11.093H10.4419C10.3123 11.093 10.1881 11.1445 10.0965 11.2361C10.0049 11.3277 9.95349 11.4519 9.95349 11.5814C9.95349 11.7109 10.0049 11.8351 10.0965 11.9267C10.1881 12.0183 10.3123 12.0698 10.4419 12.0698Z" />
<path fill-rule="evenodd" clip-rule="evenodd" d="M11.5814 8.1628C10.6749 8.16314 9.80555 8.52343 9.16451 9.16446C8.52347 9.8055 8.16319 10.6748 8.16284 11.5814C8.16319 12.488 8.52347 13.3573 9.16451 13.9983C9.80555 14.6394 10.6749 14.9997 11.5814 15C12.488 14.9997 13.3573 14.6394 13.9984 13.9983C14.6394 13.3573 14.9997 12.488 15 11.5814C14.9997 10.6748 14.6394 9.8055 13.9984 9.16446C13.3573 8.52343 12.488 8.16314 11.5814 8.1628ZM11.5814 9.13954C12.9293 9.13954 14.0233 10.2335 14.0233 11.5814C14.0233 12.9293 12.9293 14.0233 11.5814 14.0233C10.2335 14.0233 9.13959 12.9293 9.13959 11.5814C9.13959 10.2335 10.2335 9.13954 11.5814 9.13954Z" />
</svg>
