<svg width="16" height="16" viewBox="0 0 16 16" xmlns="http://www.w3.org/2000/svg">
<path fill-rule="evenodd" clip-rule="evenodd" d="M9.57159 7.46154L7.97846 5.86769C7.92849 5.81772 7.88885 5.7584 7.86181 5.69311C7.83477 5.62782 7.82085 5.55785 7.82085 5.48718C7.82085 5.41651 7.83477 5.34653 7.86181 5.28125C7.88885 5.21596 7.92849 5.15663 7.97846 5.10666C8.02843 5.05669 8.08775 5.01706 8.15304 4.99001C8.21833 4.96297 8.28831 4.94905 8.35897 4.94905C8.42964 4.94905 8.49962 4.96297 8.56491 4.99001C8.6302 5.01706 8.68952 5.05669 8.73949 5.10666L10.7447 7.11189C10.8615 7.22846 10.9541 7.36689 11.0173 7.51928C11.0805 7.67167 11.113 7.83503 11.113 8C11.113 8.16497 11.0805 8.32832 11.0173 8.48071C10.9541 8.6331 10.8615 8.77154 10.7447 8.8881L8.73949 10.8933C8.68952 10.9433 8.6302 10.9829 8.56491 11.01C8.49962 11.037 8.42964 11.0509 8.35897 11.0509C8.28831 11.0509 8.21833 11.037 8.15304 11.01C8.08775 10.9829 8.02843 10.9433 7.97846 10.8933C7.92849 10.8434 7.88885 10.784 7.86181 10.7188C7.83477 10.6535 7.82085 10.5835 7.82085 10.5128C7.82085 10.4422 7.83477 10.3722 7.86181 10.3069C7.88885 10.2416 7.92849 10.1823 7.97846 10.1323L9.57159 8.53846H1.53846C1.39565 8.53846 1.25869 8.48173 1.15771 8.38075C1.05673 8.27977 1 8.14281 1 8C1 7.85719 1.05673 7.72023 1.15771 7.61925C1.25869 7.51827 1.39565 7.46154 1.53846 7.46154H9.57159Z" />
<path fill-rule="evenodd" clip-rule="evenodd" d="M6.3846 5.84615V4.41026C6.38432 4.10376 6.44448 3.80021 6.56164 3.51699C6.6788 3.23377 6.85066 2.97644 7.06739 2.75971C7.28411 2.54298 7.54145 2.37112 7.82467 2.25396C8.10789 2.1368 8.41144 2.07664 8.71793 2.07692H11.5897C11.8962 2.07664 12.1998 2.1368 12.483 2.25396C12.7662 2.37112 13.0236 2.54298 13.2403 2.75971C13.457 2.97644 13.6289 3.23377 13.746 3.51699C13.8632 3.80021 13.9233 4.10376 13.9231 4.41026V11.5897C13.9233 11.8962 13.8632 12.1998 13.746 12.483C13.6289 12.7662 13.457 13.0236 13.2403 13.2403C13.0236 13.457 12.7662 13.6289 12.483 13.746C12.1998 13.8632 11.8962 13.9234 11.5897 13.9231H8.71793C8.41144 13.9234 8.10789 13.8632 7.82467 13.746C7.54145 13.6289 7.28411 13.457 7.06739 13.2403C6.85066 13.0236 6.6788 12.7662 6.56164 12.483C6.44448 12.1998 6.38432 11.8962 6.3846 11.5897V10.1538C6.3846 10.011 6.32787 9.87408 6.22689 9.7731C6.12591 9.67212 5.98895 9.61539 5.84614 9.61539C5.70333 9.61539 5.56637 9.67212 5.46539 9.7731C5.36441 9.87408 5.30768 10.011 5.30768 10.1538V11.5897C5.30768 12.4942 5.66697 13.3616 6.30652 14.0012C6.94607 14.6407 7.81348 15 8.71793 15H11.5897C12.4942 15 13.3616 14.6407 14.0011 14.0012C14.6407 13.3616 15 12.4942 15 11.5897V4.41026C15 3.5058 14.6407 2.63839 14.0011 1.99884C13.3616 1.35929 12.4942 1 11.5897 1H8.71793C7.81348 1 6.94607 1.35929 6.30652 1.99884C5.66697 2.63839 5.30768 3.5058 5.30768 4.41026V5.84615C5.30768 5.98896 5.36441 6.12592 5.46539 6.2269C5.56637 6.32788 5.70333 6.38462 5.84614 6.38462C5.98895 6.38462 6.12591 6.32788 6.22689 6.2269C6.32787 6.12592 6.3846 5.98896 6.3846 5.84615Z" />
</svg>
