<svg width="16" height="16" viewBox="0 0 16 16" xmlns="http://www.w3.org/2000/svg">
<path d="M1.44776 8.88652C2.72004 9.73759 5.83712 11.7943 7.36386 12.7872C7.74554 13.0709 8.25446 13.0709 8.63614 12.7872C10.1629 11.7943 13.28 9.73759 14.5522 8.88652C14.9975 8.60284 15.1248 7.96454 14.8703 7.46808C14.8067 7.32624 14.6795 7.1844 14.5522 7.11348C13.598 6.47518 10.2901 4.2766 8.63614 3.21277C8.25446 2.92908 7.74554 2.92908 7.36386 3.21277L1.44776 7.04255C1.00246 7.32624 0.875232 7.96454 1.12969 8.46099C1.1933 8.67376 1.32053 8.74468 1.44776 8.88652Z" />
</svg>
