<svg width="16" height="16" viewBox="0 0 16 16" xmlns="http://www.w3.org/2000/svg">
<path d="M10.3333 5.60012C9.90313 5.60012 9.55556 5.2426 9.55556 4.80006C9.55556 4.35753 9.90313 4 10.3333 4H14.2222C14.6524 4 15 4.35753 15 4.80006V8.80037C15 9.24291 14.6524 9.60044 14.2222 9.60044C13.792 9.60044 13.4444 9.24291 13.4444 8.80037V6.73271L9.32708 10.9655C9.02326 11.2781 8.53229 11.2781 8.22847 10.9655L5.64479 8.33284L2.32781 11.7656C2.02399 12.0781 1.53156 12.0781 1.22779 11.7656C0.924069 11.4531 0.924069 10.948 1.22779 10.6355L5.11736 6.63521C5.42118 6.32268 5.91215 6.32268 6.21597 6.63521L8.77778 9.26791L12.3434 5.57762L10.3333 5.60012Z" />
</svg>
