<svg width="16" height="16" viewBox="0 0 16 16" xmlns="http://www.w3.org/2000/svg">
<path d="M12.3434 10.4L8.77778 6.73234L6.21597 9.36492C5.91215 9.67743 5.42118 9.67743 5.11736 9.36492L1.22779 5.36479C0.924069 5.05228 0.924069 4.54727 1.22779 4.23476C1.53156 3.92175 2.02399 3.92175 2.32781 4.23476L5.64479 7.66736L8.22847 5.03478C8.53229 4.72227 9.02326 4.72227 9.32708 5.03478L13.4444 9.26742V7.17735C13.4444 6.75734 13.792 6.37732 14.2222 6.37732C14.6524 6.37732 15 6.75734 15 7.17735V11.2C15 11.6425 14.6524 12 14.2222 12H10.3333C9.90313 12 9.55556 11.6425 9.55556 11.2C9.55556 10.7575 9.90313 10.4 10.3333 10.4H12.3434Z" />
</svg>
