<svg width="10" height="10" viewBox="0 0 10 10" xmlns="http://www.w3.org/2000/svg">
<path d="M7.20704 5.73633H2.79296C2.5371 5.73633 2.38475 6.02246 2.52929 6.23438L4.73633 9.48535C4.86328 9.67188 5.13769 9.67188 5.26465 9.48535L7.47169 6.23438C7.61427 6.02246 7.4629 5.73633 7.20704 5.73633Z" />
<path d="M7.20702 5.63867C7.11815 5.63867 7.02928 5.63867 6.93944 5.63867C6.70995 5.63867 6.48143 5.63867 6.25194 5.63867C5.94433 5.63867 5.63769 5.63867 5.33007 5.63867C5.00292 5.63867 4.67577 5.63867 4.34862 5.63867C4.06054 5.63867 3.77343 5.63867 3.48535 5.63867C3.29589 5.63867 3.10644 5.63867 2.91601 5.63867C2.87792 5.63867 2.83886 5.63867 2.80078 5.63867C2.64746 5.63965 2.5039 5.71582 2.42871 5.85156C2.35156 5.99023 2.36035 6.15918 2.44921 6.29102C2.47265 6.32617 2.49609 6.36035 2.51953 6.39453C2.63378 6.56348 2.74902 6.73242 2.86328 6.90137C3.03417 7.15234 3.20507 7.4043 3.37499 7.65527C3.55761 7.92481 3.7412 8.19434 3.92382 8.46387C4.07812 8.69043 4.23144 8.91797 4.38573 9.14453C4.46874 9.26758 4.55273 9.39062 4.63573 9.51367C4.69823 9.60645 4.78027 9.68066 4.89159 9.70898C5.0703 9.75488 5.24608 9.67871 5.3496 9.53027C5.41894 9.43066 5.48632 9.3291 5.55468 9.22852C5.70019 9.01367 5.84569 8.7998 5.9912 8.58496C6.17284 8.31641 6.35546 8.04883 6.5371 7.78027C6.7119 7.52344 6.88671 7.26562 7.06053 7.00879C7.18651 6.82324 7.31249 6.63672 7.43846 6.45117C7.52245 6.32812 7.62401 6.20801 7.62108 6.05078C7.6201 5.82227 7.4326 5.64258 7.20702 5.63867C7.08104 5.63672 7.08104 5.83203 7.20702 5.83398C7.37596 5.83691 7.48436 6.01758 7.40038 6.16406C7.38475 6.19141 7.36522 6.21777 7.34764 6.24414C7.25096 6.38574 7.15526 6.52832 7.05858 6.66992C6.72069 7.16797 6.3828 7.66602 6.04393 8.16406C5.77636 8.55859 5.50878 8.95312 5.2412 9.34668C5.22167 9.37598 5.20214 9.40527 5.18163 9.43359C5.10253 9.54199 4.95116 9.55957 4.85448 9.47363C4.82616 9.44824 4.80663 9.41602 4.78515 9.38477C4.74804 9.33008 4.71093 9.27539 4.67382 9.2207C4.37109 8.77539 4.06835 8.3291 3.7666 7.88379C3.44921 7.41602 3.13085 6.94727 2.81347 6.47949C2.74804 6.38281 2.68164 6.28711 2.61718 6.19043C2.54687 6.08496 2.56152 5.95605 2.65527 5.88184C2.708 5.84082 2.76074 5.83398 2.82617 5.83398C3.21679 5.83398 3.60839 5.83398 3.99902 5.83398C4.62499 5.83398 5.25097 5.83398 5.87694 5.83398C6.29979 5.83398 6.72167 5.83398 7.14452 5.83398C7.166 5.83398 7.18651 5.83398 7.20799 5.83398C7.33202 5.83398 7.33299 5.63867 7.20702 5.63867ZM7.20702 4.26367H2.79296C2.5371 4.26367 2.38476 3.97754 2.52929 3.76562L4.73632 0.514648C4.86327 0.328125 5.13769 0.328125 5.26464 0.514648L7.47167 3.76562C7.61424 3.97754 7.46288 4.26367 7.20702 4.26367Z" />
<path d="M7.207 4.16601C6.90133 4.16601 6.59567 4.16601 6.28903 4.16601C5.66891 4.16601 5.0488 4.16601 4.42966 4.16601C3.94334 4.16601 3.45701 4.16601 2.97166 4.16601C2.92185 4.16601 2.87205 4.16601 2.82225 4.16601C2.75389 4.16601 2.69529 4.15429 2.64842 4.1123C2.55857 4.03027 2.54783 3.91308 2.61814 3.80859C2.64061 3.77539 2.66307 3.74219 2.68553 3.70996C2.95896 3.30762 3.2324 2.90527 3.50486 2.50195C3.8408 2.00684 4.17673 1.5127 4.51267 1.01758C4.60447 0.881839 4.69724 0.746097 4.78904 0.610355C4.8115 0.577152 4.83298 0.541996 4.86325 0.518559C4.96286 0.440434 5.10642 0.460941 5.18259 0.567387C5.25095 0.662113 5.31442 0.760746 5.37985 0.857425C5.5195 1.06348 5.66013 1.27051 5.79977 1.47656C6.14841 1.99024 6.49704 2.50391 6.84567 3.0166C6.9775 3.21094 7.10934 3.4043 7.2402 3.59863C7.27731 3.65234 7.31344 3.70703 7.35055 3.76074C7.37106 3.79199 7.39645 3.82324 7.41207 3.85742C7.4736 4 7.36715 4.16308 7.207 4.16601C7.08102 4.16797 7.08102 4.36328 7.207 4.36132C7.43649 4.35742 7.63278 4.16699 7.62399 3.93261C7.62106 3.84082 7.5859 3.76074 7.5361 3.6875C7.44821 3.55762 7.36031 3.42871 7.27242 3.29883C7.11618 3.06836 6.95993 2.83789 6.8027 2.60742C6.61911 2.33789 6.43649 2.06738 6.2529 1.79785C6.08493 1.54981 5.91696 1.30176 5.74802 1.05469C5.63669 0.890628 5.52438 0.725589 5.41306 0.561527C5.39255 0.531254 5.37204 0.500004 5.35056 0.46973C5.24509 0.318364 5.05759 0.239262 4.87693 0.296879C4.71189 0.348637 4.63376 0.493168 4.54294 0.62598C4.41794 0.809574 4.29392 0.993167 4.16892 1.17774C3.99412 1.43555 3.81931 1.69336 3.64353 1.95117C3.46189 2.21875 3.28025 2.48535 3.09959 2.75293C2.9531 2.96875 2.80564 3.18555 2.65916 3.40137C2.58885 3.50488 2.51756 3.60742 2.44822 3.71191C2.35838 3.84668 2.35154 4.02441 2.43748 4.16406C2.51658 4.29199 2.6533 4.3623 2.80271 4.36328C2.92185 4.36425 3.04197 4.36328 3.16111 4.36328C3.40818 4.36328 3.65525 4.36328 3.90232 4.36328C4.2197 4.36328 4.53611 4.36328 4.85349 4.36328C5.17771 4.36328 5.50192 4.36328 5.82614 4.36328C6.09958 4.36328 6.37399 4.36328 6.64743 4.36328C6.81149 4.36328 6.97555 4.36328 7.13961 4.36328C7.16207 4.36328 7.18453 4.36328 7.207 4.36328C7.33199 4.36132 7.33297 4.16601 7.207 4.16601Z" />
</svg>
