<svg width="16" height="16" viewBox="0 0 16 16" xmlns="http://www.w3.org/2000/svg">
<path d="M3.6 13C1.61175 13 0 11.4163 0 9.46429C0 7.92232 1.00425 6.61116 2.405 6.12746C2.40175 6.06116 2.4 5.99487 2.4 5.92857C2.4 3.75804 4.19 2 6.4 2C7.8825 2 9.175 2.79185 9.8675 3.9692C10.2475 3.69665 10.7075 3.57143 11.2 3.57143C12.525 3.57143 13.6 4.60513 13.6 5.92857C13.6 6.22812 13.5425 6.51295 13.44 6.77813C14.9 7.06786 16 8.33728 16 9.85714C16 11.5931 14.5675 13 12.8 13H3.6ZM5.575 7.67187C5.3425 7.90268 5.3425 8.27589 5.575 8.4846C5.81 8.73504 6.19 8.73504 6.4025 8.4846L7.4 7.54665V10.8393C7.4 11.1658 7.6675 11.4286 8 11.4286C8.3325 11.4286 8.6 11.1658 8.6 10.8393V7.54665L9.575 8.4846C9.81 8.73504 10.19 8.73504 10.4025 8.4846C10.6575 8.27589 10.6575 7.90268 10.4025 7.67187L8.4025 5.70759C8.19 5.47924 7.81 5.47924 7.575 5.70759L5.575 7.67187Z" />
</svg>
