<svg width="16" height="16" viewBox="0 0 16 16" xmlns="http://www.w3.org/2000/svg">
<path d="M8 0C9.15 0 10.15 0.646875 10.6531 1.59687C11.6812 1.25312 12.8156 1.53 13.6562 2.34313C14.4688 3.15625 14.6906 4.31875 14.4031 5.34688C15.3531 5.85 16 6.85 16 8C16 9.15 15.3531 10.15 14.4031 10.6531C14.7187 11.6812 14.4688 12.8156 13.6562 13.6562C12.8156 14.4688 11.6812 14.6906 10.6531 14.4031C10.15 15.3531 9.15 16 8 16C6.85 16 5.85 15.3531 5.34688 14.4031C4.31875 14.7187 3.15625 14.4688 2.34313 13.6562C1.53 12.8156 1.28125 11.6812 1.59687 10.6531C0.646875 10.15 0 9.15 0 8C0 6.85 0.646875 5.85 1.59687 5.34688C1.25312 4.31875 1.53 3.15625 2.34313 2.34313C3.15625 1.53 4.31875 1.28125 5.34688 1.59687C5.85 0.646875 6.85 0 8 0ZM11.0031 7.00313C11.3219 6.7375 11.3219 6.2625 11.0031 5.96875C10.7375 5.67812 10.2625 5.67812 9.96875 5.96875L7 8.94063L5.75313 7.71875C5.4875 7.42812 5.0125 7.42812 4.71875 7.71875C4.42812 8.0125 4.42812 8.4875 4.71875 8.75313L6.46875 10.5031C6.7625 10.8219 7.2375 10.8219 7.50313 10.5031L11.0031 7.00313Z" />
</svg>
