<svg width="16" height="16" viewBox="0 0 16 16" xmlns="http://www.w3.org/2000/svg">
<path d="M4.58343 14.9168L7.57639 11.4941L10.5709 14.9186L10.5708 14.9187L10.5732 14.9211C10.6408 14.9887 10.7305 15.0446 10.8418 15.0446H10.8425C10.8577 15.0446 10.8792 15.0446 10.9012 15.0424C10.9221 15.0403 10.9475 15.0358 10.9704 15.025C11.1131 14.9705 11.2028 14.8435 11.2028 14.6836V2.24396C11.2028 1.53217 10.6206 0.95 9.90881 0.95H5.24396C4.53217 0.95 3.95 1.53217 3.95 2.24396V14.6836C3.95 14.8273 4.03933 14.9714 4.18459 15.0258C4.32592 15.0788 4.4902 15.0453 4.58343 14.9168ZM7.30481 10.7174L4.67198 13.7264V2.24396C4.67198 1.92949 4.92949 1.67198 5.24396 1.67198H9.90881C10.2233 1.67198 10.4808 1.92949 10.4808 2.24396V13.7264L7.84796 10.7174C7.77525 10.627 7.68261 10.5907 7.57639 10.5907C7.47016 10.5907 7.37753 10.627 7.30481 10.7174ZM9.28683 3.22693C9.48549 3.22693 9.64782 3.0646 9.64782 2.86594C9.64782 2.66728 9.48549 2.50495 9.28683 2.50495H5.86594C5.66728 2.50495 5.50495 2.66728 5.50495 2.86594C5.50495 3.0646 5.66728 3.22693 5.86594 3.22693H9.28683ZM9.28683 4.78188C9.48549 4.78188 9.64782 4.61955 9.64782 4.42089C9.64782 4.22223 9.48549 4.0599 9.28683 4.0599H5.86594C5.66728 4.0599 5.50495 4.22223 5.50495 4.42089C5.50495 4.61955 5.66728 4.78188 5.86594 4.78188H9.28683ZM8.04287 6.33683C8.24153 6.33683 8.40386 6.1745 8.40386 5.97584C8.40386 5.77718 8.24153 5.61485 8.04287 5.61485H5.86594C5.66728 5.61485 5.50495 5.77718 5.50495 5.97584C5.50495 6.1745 5.66728 6.33683 5.86594 6.33683H8.04287Z" stroke-width="0.1"/>
</svg>
